<?xml version="1.0" encoding="utf-8"?>
<!-- Generator: Adobe Illustrator 16.0.0, SVG Export Plug-In . SVG Version: 6.00 Build 0)  -->
<!DOCTYPE svg PUBLIC "-//W3C//DTD SVG 1.1//EN" "http://www.w3.org/Graphics/SVG/1.1/DTD/svg11.dtd">
<svg version="1.1" id="imglettrage" xmlns="http://www.w3.org/2000/svg" xmlns:xlink="http://www.w3.org/1999/xlink" x="0px" y="0px"
	 width="700px" height="600px" viewBox="0 0 400 350" enable-background="new 0 0 350 350" xml:space="preserve">
<style type="text/css">
  <![CDATA[

.motjoie, .mottravail, .motchance {
    animation-fill-mode: forwards;
    opacity: 0;
    -webkit-animation-name: swoopInTop;
    animation-name: swoopInTop;
    -webkit-animation-duration: 2s;
    animation-duration: 2s;
    animation-delay: 250ms; }

    .annee1, .annee3 {
        animation-fill-mode: forwards;
        opacity: 0;
        -webkit-animation-name: swoopInTop;
        animation-name: swoopInTop;
        -webkit-animation-duration: 2s;
        animation-duration: 2s;
        animation-delay: 4000ms; }
  
  @keyframes swoopInTop {

    from { opacity: 0; }
        to { opacity: 1; }

    0% {
      opacity: 0;
      -webkit-animation-timing-function: cubic-bezier(0.215, 0.61, 0.355, 1);
      animation-timing-function: cubic-bezier(0.215, 0.61, 0.355, 1);
      -webkit-transform: scaleY(1) translate3d(0, -400px, 0);
      transform: scaleY(1) translate3d(0, -400px, 0); }
     
    100% {
      -webkit-animation-timing-function: cubic-bezier(0.42, 0, 0.58, 1);
      animation-timing-function: cubic-bezier(0.42, 0, 0.58, 1);
      -webkit-transform: scaleY(1) translate3d(0, 0, 0);
      transform: scaleY(1) translate3d(0, 0, 0); } }

    .motpaix, .motprosperite, .motamitie {
    animation-fill-mode: forwards;
      opacity: 0;
    -webkit-animation-name: swoopInBottom;
    animation-name: swoopInBottom;
    -webkit-animation-duration: 2s;
    animation-duration: 2s;
    animation-delay: 1000ms; }

    .annee2, .annee4{
        animation-fill-mode: forwards;
          opacity: 0;
        -webkit-animation-name: swoopInBottom;
        animation-name: swoopInBottom;
        -webkit-animation-duration: 2s;
        animation-duration: 2s;
        animation-delay: 4000ms; }
  
  @keyframes swoopInBottom {

    from { opacity: 0; }
        to { opacity: 1; }

    0% {
      opacity: 0;
      -webkit-animation-timing-function: cubic-bezier(0.215, 0.61, 0.355, 1);
      animation-timing-function: cubic-bezier(0.215, 0.61, 0.355, 1);
      -webkit-transform: scaleY(1) translate3d(0, 250px, 0);
      transform: scaleY(1) translate3d(0, 250px, 0); }

    100% {
      -webkit-animation-timing-function: cubic-bezier(0.42, 0, 0.58, 1);
      animation-timing-function: cubic-bezier(0.42, 0, 0.58, 1);
      -webkit-transform: scaleY(1) translate3d(0, 0, 0);
      transform: scaleY(1) translate3d(0, 0, 0); } }

.motsucces, .motbonheur {
animation-fill-mode: forwards;
opacity: 0;
-webkit-animation-name: swoopInLeft;
animation-name: swoopInLeft;
-webkit-animation-duration: 2s;
    animation-duration: 2s;
    animation-delay: 1750ms; }

@keyframes swoopInLeft {

    from { opacity: 0; }
    to { opacity: 1; }

0% {
    opacity: 0;
    -webkit-animation-timing-function: cubic-bezier(0.215, 0.61, 0.355, 1);
    animation-timing-function: cubic-bezier(0.215, 0.61, 0.355, 1);
    -webkit-transform: scaleX(1) translate3d(-400px, 0, 0);
    transform: scaleX(1) translate3d(-400px, 0, 0); }

100% {
    -webkit-animation-timing-function: cubic-bezier(0.42, 0, 0.58, 1);
    animation-timing-function: cubic-bezier(0.42, 0, 0.58, 1);
    -webkit-transform: scaleX(1) translate3d(0, 0, 0);
    transform: scaleX(1) translate3d(0, 0, 0); } }
    
.motsante, .motreussite, .motsatisfaction {
animation-fill-mode: forwards;
opacity: 0;
-webkit-animation-name: swoopInRight;
animation-name: swoopInRight;
-webkit-animation-duration: 2s;
    animation-duration: 2s;
    animation-delay: 2500ms; }

@keyframes swoopInRight {

    from { opacity: 0; }
    to { opacity: 1; }

0% {
    opacity: 0;
    -webkit-animation-timing-function: cubic-bezier(0.215, 0.61, 0.355, 1);
    animation-timing-function: cubic-bezier(0.215, 0.61, 0.355, 1);
    -webkit-transform: scaleX(1) translate3d(400px, 0, 0);
    transform: scaleX(1) translate3d(400px, 0, 0); }

100% {
    -webkit-animation-timing-function: cubic-bezier(0.42, 0, 0.58, 1);
    animation-timing-function: cubic-bezier(0.42, 0, 0.58, 1);
    -webkit-transform: scaleX(1) translate3d(0, 0, 0);
    transform: scaleX(1) translate3d(0, 0, 0); } }

  ]]>
</style>
<g>
	<g class="motsante">
		<path fill="#FFFFFF" d="M220.613,162.271l0.668,2.162c0.336,0.152,0.727,0.275,1.176,0.369c0.445,0.094,0.836,0.138,1.164,0.132
			c0.438,0,0.842-0.076,1.209-0.229c0.363-0.152,0.664-0.346,0.896-0.58c0.23-0.234,0.408-0.5,0.531-0.795s0.185-0.584,0.185-0.866
			c0-0.58-0.194-1.069-0.589-1.468c-0.393-0.399-1.051-0.908-1.973-1.529c-0.924-0.621-1.593-1.14-2.009-1.556
			c-0.357-0.369-0.624-0.74-0.802-1.112c-0.176-0.372-0.264-0.787-0.264-1.244c0-0.504,0.138-1.005,0.413-1.503
			s0.7-0.913,1.274-1.244c0.572-0.331,1.278-0.497,2.116-0.497c0.381,0,0.785,0.019,1.213,0.057c0.43,0.038,0.726,0.057,0.89,0.057
			c0.141-0.006,0.271-0.01,0.396-0.013s0.223-0.009,0.294-0.018c0.073-0.009,0.151-0.019,0.233-0.031l0.053,3.006h-0.114
			l-0.554-2.03c-0.813-0.357-1.521-0.536-2.127-0.536c-0.504,0-0.957,0.095-1.356,0.286c-0.401,0.191-0.715,0.451-0.938,0.782
			s-0.334,0.705-0.334,1.121c0,0.434,0.149,0.831,0.448,1.191s0.708,0.713,1.226,1.059c0.521,0.346,1.075,0.712,1.67,1.099
			c0.597,0.387,1.071,0.759,1.431,1.116c0.695,0.697,1.046,1.503,1.046,2.417c0,0.516-0.137,1.047-0.404,1.595
			c-0.269,0.548-0.724,1.012-1.362,1.393c-0.638,0.381-1.465,0.571-2.479,0.571c-0.357,0-0.793-0.021-1.308-0.062
			c-0.513-0.041-0.889-0.062-1.129-0.062c-0.109,0-0.195,0.003-0.26,0.009c-0.061,0.006-0.156,0.015-0.285,0.026
			c-0.129,0.011-0.205,0.018-0.229,0.018l-0.143-3.094h0.125L220.613,162.271L220.613,162.271z M224.911,152.497h-0.281
			c-0.646,0-1.239,0.129-1.784,0.387c-0.545,0.258-0.976,0.624-1.292,1.099s-0.475,1.011-0.475,1.608
			c0,0.744,0.323,1.441,0.976,2.092c0.287,0.275,0.555,0.507,0.805,0.694c0.248,0.188,0.625,0.453,1.129,0.795
			c0.506,0.342,0.906,0.624,1.209,0.844c0.303,0.22,0.551,0.429,0.742,0.628c0.527,0.527,0.791,1.116,0.791,1.767
			c0,0.445-0.122,0.875-0.365,1.288c-0.241,0.413-0.595,0.75-1.055,1.011s-1,0.394-1.621,0.4v0.097
			c0.715,0.023,1.354-0.103,1.912-0.378c0.561-0.275,0.986-0.639,1.283-1.09c0.295-0.451,0.443-0.917,0.443-1.397
			c0-0.416-0.067-0.794-0.202-1.134s-0.381-0.688-0.738-1.046c-0.205-0.205-0.574-0.491-1.107-0.857
			c-0.531-0.366-1.07-0.735-1.615-1.105c-0.545-0.372-0.943-0.678-1.195-0.918c-0.615-0.609-0.923-1.28-0.923-2.013
			c0-0.645,0.279-1.245,0.84-1.802c0.559-0.557,1.401-0.85,2.526-0.879L224.911,152.497L224.911,152.497z"/>
		<path fill="#FFFFFF" d="M236.196,152.348l3.808,9.079c0.492,1.184,1.064,2.358,1.723,3.524l1.459,0.308v0.088h-6.205v-0.088
			l2.393-0.308c-0.088-0.58-0.251-1.211-0.487-1.894c-0.238-0.683-0.5-1.276-0.787-1.78h-5.511
			c-0.234,0.592-0.424,1.078-0.567,1.459c-0.143,0.381-0.281,0.776-0.412,1.187c-0.133,0.41-0.219,0.753-0.26,1.028l2.303,0.308
			v0.088h-4.913v-0.088l1.617-0.308c0.395-0.68,0.753-1.43,1.081-2.25l4.069-10.354L236.196,152.348L236.196,152.348z
			 M235.265,154.817c-0.158,0.311-0.368,0.765-0.629,1.362c-0.261,0.597-0.496,1.157-0.707,1.679s-0.431,1.077-0.659,1.666
			c-0.228,0.589-0.381,0.977-0.457,1.165c0.348,0.047,0.748,0.079,1.208,0.097s0.898,0.026,1.314,0.026
			c1.023,0,1.866-0.041,2.521-0.123c-0.223-0.662-0.601-1.604-1.134-2.826C236.19,156.641,235.704,155.626,235.265,154.817z
			 M235.405,154.079l4.563,10.925h0.589l-4.86-11.663L235.405,154.079z"/>
		<path fill="#FFFFFF" d="M243.368,152.567v-0.088h4.438c0.293,0.398,0.672,0.879,1.139,1.441c0.467,0.563,0.882,1.046,1.243,1.45
			l3.938,4.377c0.521,0.568,0.927,1.008,1.218,1.318c0.289,0.311,0.666,0.688,1.129,1.134c0.035-0.404,0.061-0.782,0.07-1.134
			s0.018-0.683,0.018-0.993v-3.797c0-1.365-0.065-2.493-0.202-3.384l-2.136-0.325v-0.088h5.229v0.088l-2.138,0.343
			c-0.109,0.82-0.167,1.869-0.167,3.146v9.633h-0.088c-0.896-1.137-1.784-2.2-2.663-3.19l-5.379-5.994
			c-0.797-0.85-1.477-1.526-2.039-2.03c-0.082,0.797-0.123,1.541-0.123,2.232v5.563c0,0.744,0.061,1.632,0.178,2.663l2.23,0.325
			v0.088h-5.344v-0.088l2.162-0.308c0.068-0.422,0.12-1.022,0.147-1.802c0.029-0.78,0.044-1.474,0.044-2.083v-4.307
			c0-0.51-0.009-1.015-0.024-1.516c-0.019-0.501-0.05-0.998-0.099-1.49l-1.169-0.861L243.368,152.567z M245.996,152.805
			l10.615,11.804v-0.826l-9.879-10.978H245.996z"/>
		<path fill="#FFFFFF" d="M261.597,152.479h7.629c0.463,0,0.888-0.013,1.274-0.04c0.386-0.027,0.885-0.069,1.494-0.127l0.2,2.848
			h-0.104l-0.65-2.074c-0.533-0.094-1.09-0.141-1.67-0.141c-0.498,0-0.952,0.026-1.362,0.079c-0.408,0.053-0.853,0.141-1.325,0.264
			c-0.047,0.545-0.082,1.071-0.105,1.578c-0.021,0.507-0.041,0.976-0.053,1.406s-0.02,0.725-0.02,0.883v2.918
			c0,0.768,0.026,1.627,0.079,2.58c0.055,0.953,0.117,1.712,0.193,2.281l2.171,0.325v0.088h-6.636v-0.088l2.136-0.325
			c0.182-1.295,0.272-2.862,0.272-4.702v-3.182c0-0.656-0.017-1.304-0.046-1.942c-0.027-0.638-0.077-1.245-0.147-1.819
			c-0.34-0.094-0.735-0.168-1.188-0.224c-0.45-0.056-0.879-0.089-1.281-0.101c-0.641,0-1.271,0.053-1.892,0.158l-0.633,2.092h-0.123
			l0.193-2.883c0.176,0.012,0.431,0.04,0.765,0.083S261.38,152.479,261.597,152.479z M265.394,152.805v12.199h0.589v-12.199H265.394
			z"/>
		<path fill="#FFFFFF" d="M272.574,152.567v-0.088h9.358l0.22,2.733h-0.141l-0.633-2.145c-0.498-0.035-1.06-0.053-1.679-0.053
			c-1.133,0-2.042,0.079-2.733,0.237c-0.117,0.949-0.176,2.033-0.176,3.252c0,0.762,0.021,1.38,0.068,1.854
			c0.928,0.053,1.517,0.079,1.769,0.079c0.662,0,1.345-0.038,2.048-0.114l0.396-1.494h0.147v3.744h-0.147l-0.413-1.582
			c-0.512-0.059-1.072-0.088-1.688-0.088c-0.771,0-1.477,0.035-2.109,0.105c-0.074,0.68-0.1,1.345-0.068,1.995
			c0.012,0.832,0.024,1.519,0.044,2.061c0.018,0.542,0.05,1.009,0.097,1.402c0.715,0.217,1.652,0.325,2.813,0.325
			c0.668,0,1.229-0.026,1.688-0.079l0.703-2.118h0.123l-0.193,2.751h-9.466v-0.088l2.103-0.308c0.047-0.24,0.089-0.606,0.127-1.099
			c0.038-0.493,0.07-1.044,0.102-1.657c0.03-0.613,0.05-1.125,0.063-1.538c0.012-0.413,0.018-0.775,0.018-1.085v-2.215
			c0-0.281-0.009-0.681-0.026-1.2c-0.017-0.521-0.044-1.056-0.077-1.613c-0.035-0.557-0.086-1.113-0.149-1.67L272.574,152.567z
			 M275.246,152.822v12.182h0.604v-12.182H275.246z M277.944,150.08h1.837l-3.813,1.591h-0.22L277.944,150.08z"/>
	</g>
	<g class="motreussite">
		<path fill="#FFFFFF" d="M182.347,184.341v-2.716c0-0.697-0.021-1.496-0.07-2.395c-0.047-0.899-0.104-1.607-0.176-2.123
			l-2.107-0.308v-0.088h5.772c1.096,0,1.97,0.218,2.623,0.655c0.653,0.437,1.106,0.935,1.358,1.494s0.378,1.042,0.378,1.446
			c0,0.557-0.126,1.053-0.378,1.49s-0.582,0.784-0.989,1.042c-0.407,0.258-0.821,0.41-1.243,0.457v0.035
			c0.398,0.158,0.729,0.369,0.993,0.633c0.205,0.205,0.438,0.494,0.703,0.866c0.264,0.372,0.611,0.88,1.046,1.525
			c0.434,0.645,0.782,1.148,1.046,1.512c0.264,0.364,0.507,0.659,0.729,0.888c0.49,0.492,0.979,0.738,1.459,0.738v0.088h-1.529
			c-0.855,0-1.535-0.258-2.039-0.773c-0.199-0.199-0.397-0.435-0.593-0.708c-0.197-0.272-0.51-0.719-0.934-1.34
			c-0.426-0.621-0.781-1.134-1.07-1.538c-0.291-0.404-0.521-0.691-0.69-0.861c-0.252-0.252-0.482-0.42-0.69-0.505
			s-0.514-0.127-0.918-0.127c-0.367,0-0.654,0.021-0.859,0.062c-0.035,0.316-0.055,0.668-0.055,1.055v1.626
			c0,0.686,0.073,1.591,0.222,2.716l2.188,0.308v0.088h-6.528v-0.088l2.063-0.308c0.088-0.592,0.158-1.424,0.211-2.496
			C182.321,185.619,182.347,184.833,182.347,184.341z M182.566,177.055v12.182h0.635v-12.182H182.566z M184.096,180.324v1.441
			c0,0.51,0.018,0.984,0.053,1.424c0.229,0.035,0.562,0.053,0.993,0.053c0.75,0,1.354-0.129,1.815-0.387
			c0.459-0.258,0.787-0.593,0.982-1.006c0.195-0.413,0.294-0.866,0.294-1.358c0-0.486-0.096-0.935-0.284-1.345
			c-0.19-0.41-0.438-0.757-0.738-1.042s-0.641-0.504-1.01-0.659c-0.373-0.155-0.737-0.233-1.097-0.233c-0.34,0-0.604,0.023-0.8,0.07
			c-0.053,0.34-0.102,0.826-0.145,1.459C184.117,179.375,184.096,179.902,184.096,180.324z M184.975,176.905v0.088
			c0.803,0.018,1.477,0.212,2.02,0.584c0.541,0.372,0.936,0.828,1.182,1.367c0.246,0.539,0.369,1.072,0.369,1.6
			c0,1.172-0.51,2.019-1.529,2.54l0.053,0.035c0.6-0.152,1.093-0.478,1.48-0.976s0.585-1.093,0.585-1.784
			c0-0.539-0.105-1.027-0.316-1.463s-0.497-0.801-0.854-1.094c-0.361-0.293-0.765-0.516-1.209-0.668
			c-0.445-0.152-0.896-0.229-1.345-0.229H184.975z M187.26,184.684l1.907,2.769c0.457,0.65,0.862,1.115,1.222,1.393
			c0.358,0.278,0.779,0.42,1.266,0.426v-0.088c-0.463-0.135-1.058-0.729-1.782-1.784l-1.529-2.197
			c-0.328-0.48-0.636-0.844-0.923-1.09c-0.287-0.246-0.641-0.41-1.057-0.492l-0.033,0.07
			C186.656,183.901,186.967,184.232,187.26,184.684z"/>
		<path fill="#FFFFFF" d="M193.685,176.8v-0.088h9.36l0.22,2.733h-0.141l-0.633-2.145c-0.498-0.035-1.06-0.053-1.681-0.053
			c-1.131,0-2.042,0.079-2.731,0.237c-0.117,0.949-0.178,2.033-0.178,3.252c0,0.762,0.023,1.38,0.07,1.854
			c0.926,0.053,1.515,0.079,1.769,0.079c0.66,0,1.345-0.038,2.048-0.114l0.396-1.494h0.149v3.744h-0.149l-0.413-1.582
			c-0.51-0.059-1.07-0.088-1.688-0.088c-0.773,0-1.479,0.035-2.109,0.105c-0.076,0.68-0.1,1.345-0.07,1.995
			c0.014,0.832,0.026,1.519,0.046,2.061c0.018,0.542,0.05,1.009,0.097,1.402c0.715,0.217,1.65,0.325,2.813,0.325
			c0.668,0,1.23-0.026,1.688-0.079l0.703-2.118h0.123l-0.193,2.751h-9.466v-0.088l2.101-0.308c0.047-0.24,0.089-0.606,0.127-1.099
			s0.072-1.044,0.104-1.657c0.03-0.613,0.05-1.125,0.062-1.538c0.014-0.413,0.02-0.775,0.02-1.085v-2.215
			c0-0.281-0.009-0.681-0.026-1.2c-0.017-0.519-0.044-1.056-0.079-1.613s-0.085-1.113-0.147-1.67L193.685,176.8z M196.356,177.055
			v12.182h0.606v-12.182H196.356z M199.055,174.313h1.837l-3.813,1.591h-0.222L199.055,174.313z"/>
		<path fill="#FFFFFF" d="M206.2,185.853v-4.896c0-1.09-0.07-2.379-0.213-3.867l-1.837-0.29v-0.088h6.407v0.088l-2.32,0.29
			c-0.059,0.41-0.104,0.902-0.141,1.477c-0.036,0.575-0.066,1.187-0.092,1.837c-0.027,0.65-0.04,1.172-0.04,1.564v3.612
			c0,0.861,0.174,1.554,0.521,2.079c0.35,0.525,0.811,0.895,1.383,1.112c0.568,0.217,1.2,0.325,1.894,0.325
			c1.178,0,2.102-0.299,2.772-0.896c0.67-0.597,1.007-1.564,1.007-2.9v-3.762c0-0.668-0.023-1.458-0.07-2.369
			s-0.104-1.604-0.176-2.079l-2.313-0.29v-0.088h6.372v0.088l-1.793,0.29c-0.082,0.381-0.146,1.015-0.188,1.903
			c-0.045,0.888-0.066,1.633-0.066,2.237v4.263c0,0.662-0.079,1.225-0.237,1.688c-0.156,0.463-0.402,0.861-0.736,1.195
			c-0.229,0.229-0.471,0.422-0.723,0.58s-0.569,0.296-0.958,0.413c-0.387,0.117-0.809,0.202-1.266,0.255s-1.021,0.079-1.696,0.079
			c-1.102,0-2.06-0.123-2.874-0.369c-0.813-0.246-1.455-0.656-1.92-1.23C206.433,187.528,206.2,186.778,206.2,185.853z
			 M211.21,189.474v-0.114c-0.826-0.047-1.549-0.212-2.166-0.497c-0.619-0.284-1.104-0.706-1.451-1.266s-0.522-1.244-0.522-2.052
			v-8.508h-0.613v8.815c0,1.084,0.379,1.941,1.138,2.571S209.558,189.403,211.21,189.474z M212.361,189.359v0.114
			c0.691-0.041,1.289-0.154,1.793-0.338c0.506-0.184,0.923-0.442,1.255-0.773c0.328-0.331,0.576-0.746,0.74-1.244
			s0.246-1.075,0.246-1.731v-8.35h-0.615v8.332c0,1.172-0.27,2.098-0.809,2.777S213.563,189.23,212.361,189.359z"/>
		<path fill="#FFFFFF" d="M220.122,186.503l0.668,2.162c0.334,0.152,0.725,0.275,1.174,0.369c0.447,0.094,0.836,0.138,1.164,0.132
			c0.438,0,0.842-0.076,1.209-0.229c0.365-0.152,0.664-0.346,0.896-0.58c0.23-0.234,0.408-0.5,0.531-0.795s0.187-0.584,0.187-0.866
			c0-0.58-0.196-1.069-0.591-1.468c-0.393-0.399-1.051-0.908-1.973-1.529c-0.924-0.621-1.593-1.14-2.009-1.556
			c-0.357-0.369-0.624-0.74-0.8-1.112c-0.178-0.372-0.266-0.787-0.266-1.244c0-0.504,0.14-1.005,0.413-1.503
			c0.275-0.498,0.7-0.913,1.274-1.244s1.278-0.497,2.118-0.497c0.381,0,0.783,0.019,1.213,0.057
			c0.428,0.038,0.724,0.057,0.888,0.057c0.141-0.006,0.272-0.01,0.396-0.013c0.124-0.003,0.223-0.009,0.296-0.018
			c0.071-0.009,0.149-0.019,0.231-0.031l0.053,3.006h-0.112l-0.556-2.03c-0.813-0.357-1.521-0.536-2.127-0.536
			c-0.504,0-0.957,0.095-1.356,0.286c-0.401,0.191-0.713,0.451-0.938,0.782c-0.223,0.331-0.334,0.705-0.334,1.121
			c0,0.434,0.149,0.831,0.448,1.191s0.708,0.713,1.226,1.059c0.521,0.346,1.075,0.712,1.67,1.099
			c0.597,0.387,1.071,0.759,1.431,1.116c0.697,0.697,1.046,1.503,1.046,2.417c0,0.516-0.135,1.047-0.404,1.595
			c-0.269,0.548-0.724,1.012-1.36,1.393c-0.64,0.381-1.467,0.571-2.479,0.571c-0.357,0-0.793-0.021-1.306-0.062
			c-0.515-0.041-0.891-0.062-1.129-0.062c-0.111,0-0.197,0.003-0.262,0.009c-0.061,0.006-0.154,0.015-0.284,0.026
			c-0.13,0.011-0.204,0.018-0.229,0.018l-0.141-3.094h0.125V186.503L220.122,186.503z M224.42,176.729h-0.281
			c-0.645,0-1.239,0.129-1.784,0.387c-0.545,0.258-0.976,0.624-1.292,1.099c-0.314,0.475-0.475,1.011-0.475,1.608
			c0,0.744,0.325,1.441,0.976,2.092c0.287,0.275,0.557,0.507,0.807,0.694c0.248,0.188,0.625,0.453,1.129,0.795
			c0.504,0.342,0.904,0.624,1.209,0.844c0.301,0.22,0.549,0.429,0.74,0.628c0.527,0.527,0.791,1.116,0.791,1.767
			c0,0.445-0.12,0.875-0.363,1.288c-0.243,0.413-0.597,0.75-1.057,1.011c-0.46,0.261-1,0.394-1.621,0.4v0.097
			c0.717,0.023,1.354-0.103,1.912-0.378c0.56-0.275,0.986-0.639,1.283-1.09c0.295-0.451,0.443-0.917,0.443-1.396
			c0-0.416-0.067-0.794-0.202-1.134c-0.135-0.34-0.381-0.688-0.738-1.046c-0.205-0.205-0.574-0.491-1.105-0.857
			c-0.533-0.366-1.072-0.735-1.617-1.107c-0.545-0.372-0.943-0.678-1.195-0.918c-0.615-0.609-0.923-1.28-0.923-2.013
			c0-0.645,0.279-1.245,0.84-1.802c0.561-0.557,1.401-0.85,2.526-0.879L224.42,176.729L224.42,176.729z"/>
		<path fill="#FFFFFF" d="M228.744,186.503l0.668,2.162c0.334,0.152,0.725,0.275,1.174,0.369c0.447,0.094,0.836,0.138,1.164,0.132
			c0.438,0,0.842-0.076,1.209-0.229c0.365-0.152,0.664-0.346,0.896-0.58c0.23-0.234,0.408-0.5,0.531-0.795s0.185-0.584,0.185-0.866
			c0-0.58-0.194-1.069-0.589-1.468c-0.393-0.399-1.051-0.908-1.973-1.529c-0.924-0.621-1.593-1.14-2.009-1.556
			c-0.357-0.369-0.624-0.74-0.8-1.112c-0.178-0.372-0.266-0.787-0.266-1.244c0-0.504,0.138-1.005,0.413-1.503s0.7-0.913,1.274-1.244
			c0.572-0.331,1.278-0.497,2.116-0.497c0.383,0,0.785,0.019,1.215,0.057c0.428,0.038,0.724,0.057,0.888,0.057
			c0.141-0.006,0.271-0.01,0.396-0.013s0.223-0.009,0.294-0.018c0.073-0.009,0.151-0.019,0.233-0.031l0.053,3.006h-0.112
			l-0.556-2.03c-0.813-0.357-1.521-0.536-2.127-0.536c-0.504,0-0.957,0.095-1.356,0.286c-0.401,0.191-0.713,0.451-0.938,0.782
			c-0.223,0.331-0.334,0.705-0.334,1.121c0,0.434,0.149,0.831,0.448,1.191s0.708,0.713,1.226,1.059
			c0.521,0.346,1.075,0.712,1.67,1.099c0.597,0.387,1.071,0.759,1.431,1.116c0.695,0.697,1.046,1.503,1.046,2.417
			c0,0.516-0.135,1.047-0.404,1.595c-0.269,0.548-0.724,1.012-1.362,1.393c-0.638,0.381-1.465,0.571-2.479,0.571
			c-0.357,0-0.793-0.021-1.306-0.062c-0.515-0.041-0.891-0.062-1.129-0.062c-0.111,0-0.197,0.003-0.262,0.009
			c-0.061,0.006-0.154,0.015-0.285,0.026c-0.129,0.011-0.203,0.018-0.229,0.018l-0.141-3.094h0.125L228.744,186.503L228.744,186.503
			z M233.042,176.729h-0.281c-0.645,0-1.239,0.129-1.784,0.387c-0.545,0.258-0.976,0.624-1.292,1.099
			c-0.314,0.475-0.475,1.011-0.475,1.608c0,0.744,0.325,1.441,0.976,2.092c0.287,0.275,0.557,0.507,0.807,0.694
			c0.246,0.188,0.625,0.453,1.129,0.795c0.504,0.342,0.904,0.624,1.209,0.844c0.301,0.22,0.549,0.429,0.74,0.628
			c0.527,0.527,0.791,1.116,0.791,1.767c0,0.445-0.122,0.875-0.363,1.288c-0.243,0.413-0.597,0.75-1.057,1.011
			c-0.46,0.261-1,0.394-1.621,0.4v0.097c0.717,0.023,1.354-0.103,1.912-0.378c0.56-0.275,0.986-0.639,1.283-1.09
			c0.295-0.451,0.443-0.917,0.443-1.396c0-0.416-0.067-0.794-0.202-1.134c-0.135-0.34-0.381-0.688-0.738-1.046
			c-0.205-0.205-0.574-0.491-1.105-0.857c-0.533-0.366-1.072-0.735-1.617-1.107c-0.545-0.372-0.943-0.678-1.195-0.918
			c-0.615-0.609-0.923-1.28-0.923-2.013c0-0.645,0.279-1.245,0.84-1.802c0.561-0.557,1.401-0.85,2.526-0.879L233.042,176.729
			L233.042,176.729z"/>
		<path fill="#FFFFFF" d="M243.598,189.579h-6.645v-0.088l2.145-0.325c0.102-0.732,0.174-1.616,0.224-2.65
			c0.052-1.034,0.075-2.046,0.075-3.037v-1.477c0-2.01-0.088-3.642-0.264-4.896l-2.18-0.308v-0.088h6.645v0.088l-2.197,0.308
			c-0.063,0.568-0.109,1.083-0.141,1.542s-0.056,1.017-0.079,1.67c-0.021,0.653-0.035,1.267-0.035,1.841v1.942
			c0,0.357,0.016,0.942,0.039,1.753c0.027,0.812,0.063,1.499,0.105,2.061c0.045,0.563,0.087,0.984,0.128,1.266l2.18,0.308V189.579
			L243.598,189.579z M239.634,177.055v12.182h0.615v-12.182H239.634z"/>
		<path fill="#FFFFFF" d="M245.716,176.712h7.629c0.463,0,0.888-0.013,1.274-0.04c0.386-0.027,0.885-0.069,1.492-0.127l0.202,2.848
			h-0.104l-0.65-2.074c-0.533-0.094-1.09-0.141-1.67-0.141c-0.498,0-0.952,0.026-1.362,0.079c-0.408,0.053-0.853,0.141-1.325,0.264
			c-0.049,0.545-0.082,1.071-0.105,1.578c-0.021,0.507-0.041,0.976-0.053,1.406c-0.012,0.43-0.02,0.725-0.02,0.883v2.918
			c0,0.768,0.026,1.627,0.079,2.58c0.055,0.953,0.117,1.712,0.193,2.281l2.171,0.325v0.088h-6.636v-0.088l2.136-0.325
			c0.182-1.295,0.272-2.862,0.272-4.702v-3.182c0-0.656-0.017-1.304-0.046-1.942c-0.027-0.638-0.077-1.245-0.147-1.819
			c-0.34-0.094-0.735-0.168-1.188-0.224c-0.45-0.056-0.879-0.089-1.281-0.101c-0.641,0-1.271,0.053-1.892,0.158l-0.633,2.092h-0.123
			l0.193-2.883c0.176,0.012,0.431,0.04,0.765,0.083S245.499,176.712,245.716,176.712z M249.513,177.037v12.199h0.589v-12.199
			H249.513z"/>
		<path fill="#FFFFFF" d="M256.693,176.8v-0.088h9.36l0.22,2.733h-0.141l-0.633-2.145c-0.498-0.035-1.06-0.053-1.681-0.053
			c-1.131,0-2.042,0.079-2.731,0.237c-0.117,0.949-0.176,2.033-0.176,3.252c0,0.762,0.021,1.38,0.068,1.854
			c0.928,0.053,1.517,0.079,1.769,0.079c0.662,0,1.345-0.038,2.048-0.114l0.396-1.494h0.149v3.744h-0.149l-0.413-1.582
			c-0.51-0.059-1.07-0.088-1.688-0.088c-0.773,0-1.477,0.035-2.109,0.105c-0.074,0.68-0.1,1.345-0.068,1.995
			c0.012,0.832,0.024,1.519,0.044,2.061c0.018,0.542,0.05,1.009,0.097,1.402c0.715,0.217,1.652,0.325,2.813,0.325
			c0.668,0,1.229-0.026,1.688-0.079l0.703-2.118h0.123l-0.193,2.751h-9.466v-0.088l2.101-0.308c0.049-0.24,0.091-0.606,0.129-1.099
			c0.036-0.493,0.07-1.044,0.102-1.657c0.03-0.613,0.05-1.125,0.062-1.538c0.014-0.413,0.02-0.775,0.02-1.085v-2.215
			c0-0.281-0.009-0.681-0.026-1.2c-0.017-0.519-0.044-1.056-0.079-1.613c-0.033-0.557-0.085-1.113-0.147-1.67L256.693,176.8z
			 M259.365,177.055v12.182h0.606v-12.182H259.365z"/>
	</g>
	<g class="motjoie">
		<path fill="#FFFFFF" d="M204.187,124.075h3.975c1.459,0,2.566,0.362,3.325,1.086c0.761,0.724,1.14,1.688,1.14,2.896
			c0,0.199-0.018,0.457-0.048,0.773c-0.032,0.316-0.078,0.637-0.139,0.962c-0.059,0.325-0.141,0.64-0.246,0.945l-2.874,0.36v-0.132
			l2.206-0.896c0.375-0.568,0.563-1.151,0.563-1.749c0-0.632-0.244-1.204-0.733-1.713c-0.487-0.509-1.332-0.765-2.525-0.765h-4.3
			c-0.639,0-1.427,0.023-2.362,0.07c-0.938,0.047-1.649,0.105-2.138,0.176l-0.308,2.329h-0.088v-6.389h0.088l0.325,1.828
			C201.383,124.002,202.763,124.075,204.187,124.075z M199.977,125.604h9.193c0.422,0,0.872,0.079,1.35,0.237
			c0.479,0.158,0.891,0.436,1.234,0.831s0.521,0.921,0.525,1.577l0.099-0.035c-0.041-0.796-0.225-1.432-0.545-1.907
			c-0.322-0.475-0.759-0.813-1.312-1.015c-0.551-0.202-1.213-0.304-1.984-0.304h-8.563L199.977,125.604L199.977,125.604z"/>
		<path fill="#FFFFFF" d="M199.449,114.179c0-1.248,0.208-2.329,0.622-3.243c0.416-0.914,0.963-1.662,1.637-2.245
			s1.391-1.011,2.147-1.283c0.758-0.272,1.486-0.409,2.186-0.409c0.797,0,1.579,0.154,2.347,0.462s1.47,0.762,2.105,1.362
			c0.635,0.6,1.144,1.345,1.522,2.232c0.38,0.887,0.571,1.876,0.571,2.966c0,1.576-0.341,2.912-1.023,4.008
			c-0.682,1.096-1.526,1.904-2.536,2.426c-1.008,0.522-1.99,0.782-2.951,0.782c-0.852,0-1.675-0.165-2.472-0.496
			s-1.51-0.812-2.14-1.441c-0.63-0.629-1.124-1.385-1.481-2.264C199.628,116.157,199.449,115.204,199.449,114.179z M199.704,113.678
			h0.088c0.041-0.568,0.175-1.14,0.398-1.714c0.227-0.574,0.577-1.111,1.057-1.612c0.478-0.501,1.12-0.904,1.929-1.209
			s1.781-0.457,2.918-0.457c0.744,0,1.456,0.09,2.136,0.269c0.682,0.179,1.309,0.466,1.881,0.861
			c0.574,0.395,1.051,0.912,1.426,1.551c0.375,0.639,0.604,1.403,0.692,2.294h0.099c-0.035-0.75-0.196-1.462-0.483-2.136
			c-0.287-0.674-0.698-1.272-1.234-1.797c-0.535-0.525-1.189-0.939-1.965-1.244c-0.772-0.305-1.635-0.457-2.584-0.457
			c-1.037,0-1.952,0.158-2.746,0.475s-1.455,0.747-1.98,1.292c-0.527,0.545-0.927,1.15-1.195,1.815
			C199.871,112.274,199.722,112.963,199.704,113.678z M199.792,114.539h-0.088c0.006,0.82,0.182,1.62,0.525,2.399
			c0.347,0.779,0.814,1.465,1.406,2.057c0.592,0.592,1.266,1.054,2.021,1.385c0.755,0.331,1.55,0.496,2.382,0.496
			c1.02,0,2.012-0.276,2.976-0.83c0.964-0.554,1.747-1.32,2.353-2.299c0.604-0.979,0.923-2.054,0.958-3.226h-0.099
			c-0.1,1.137-0.454,2.142-1.063,3.015c-0.609,0.873-1.365,1.537-2.27,1.991c-0.901,0.454-1.837,0.681-2.804,0.681
			c-0.797,0-1.563-0.132-2.294-0.396c-0.732-0.264-1.386-0.645-1.96-1.143s-1.04-1.1-1.397-1.806
			C200.085,116.157,199.868,115.383,199.792,114.539z M200.064,114.126c0,0.908,0.237,1.748,0.712,2.519
			c0.477,0.771,1.16,1.383,2.059,1.837c0.896,0.454,1.954,0.681,3.173,0.681c1.313,0,2.422-0.247,3.327-0.742
			c0.903-0.495,1.576-1.131,2.013-1.907c0.438-0.776,0.654-1.578,0.654-2.404c0-0.674-0.129-1.313-0.389-1.916
			c-0.258-0.603-0.634-1.143-1.129-1.617c-0.493-0.474-1.104-0.845-1.826-1.111c-0.726-0.266-1.531-0.4-2.424-0.4
			c-1.219,0-2.189,0.141-2.918,0.422c-0.727,0.281-1.36,0.694-1.905,1.239c-0.465,0.463-0.805,0.989-1.021,1.578
			C200.172,112.894,200.064,113.499,200.064,114.126z"/>
		<path fill="#FFFFFF" d="M212.501,99.501v6.645h-0.088l-0.325-2.145c-0.732-0.1-1.615-0.174-2.649-0.224
			c-1.034-0.05-2.047-0.075-3.037-0.075h-1.477c-2.01,0-3.642,0.088-4.896,0.264l-0.308,2.18h-0.088v-6.645h0.088l0.308,2.197
			c0.568,0.064,1.083,0.111,1.543,0.141c0.462,0.03,1.019,0.056,1.672,0.079c0.651,0.023,1.267,0.035,1.841,0.035h1.94
			c0.357,0,0.942-0.013,1.754-0.039c0.813-0.026,1.498-0.062,2.063-0.105c0.563-0.043,0.984-0.087,1.266-0.128l0.31-2.18H212.501z
			 M199.977,103.465h12.184v-0.615h-12.184V103.465z"/>
		<path fill="#FFFFFF" d="M199.722,99.352h-0.088v-9.36l2.733-0.22v0.141l-2.146,0.633c-0.035,0.498-0.053,1.058-0.053,1.679
			c0,1.131,0.079,2.042,0.235,2.733c0.949,0.117,2.033,0.176,3.254,0.176c0.762,0,1.38-0.023,1.854-0.07
			c0.053-0.926,0.079-1.515,0.079-1.767c0-0.662-0.038-1.345-0.114-2.048l-1.494-0.396v-0.149h3.744v0.149l-1.582,0.413
			c-0.059,0.51-0.088,1.072-0.088,1.688c0,0.773,0.035,1.477,0.105,2.109c0.68,0.076,1.345,0.1,1.994,0.07
			c0.831-0.012,1.521-0.026,2.063-0.044c0.542-0.018,1.009-0.05,1.401-0.097c0.217-0.715,0.323-1.652,0.323-2.813
			c0-0.668-0.024-1.23-0.077-1.688l-2.118-0.703v-0.123l2.751,0.193v9.466h-0.088l-0.31-2.101c-0.24-0.047-0.604-0.089-1.099-0.127
			c-0.493-0.038-1.044-0.072-1.656-0.102c-0.612-0.03-1.125-0.05-1.538-0.062c-0.413-0.012-0.773-0.018-1.086-0.018h-2.215
			c-0.281,0-0.681,0.009-1.199,0.026c-0.518,0.017-1.057,0.044-1.613,0.079c-0.556,0.035-1.111,0.085-1.67,0.149L199.722,99.352z
			 M199.977,96.68h12.184v-0.606h-12.184V96.68z"/>
	</g>
	<g class="mottravail">
		<path fill="#FFFFFF" d="M176.133,129.437v-7.629c0-0.463-0.013-0.888-0.04-1.274c-0.027-0.386-0.069-0.885-0.127-1.494
			l2.848-0.202v0.105l-2.072,0.65c-0.096,0.533-0.143,1.09-0.143,1.67c0,0.498,0.026,0.952,0.079,1.362s0.141,0.853,0.264,1.327
			c0.545,0.047,1.071,0.082,1.578,0.105s0.978,0.041,1.406,0.053c0.43,0.012,0.725,0.018,0.883,0.018h2.918
			c0.77,0,1.627-0.026,2.58-0.079c0.953-0.053,1.712-0.117,2.281-0.193l0.325-2.171H189v6.636h-0.088l-0.325-2.136
			c-1.295-0.182-2.862-0.272-4.702-0.272h-3.182c-0.656,0-1.306,0.015-1.942,0.044c-0.638,0.029-1.245,0.079-1.819,0.149
			c-0.094,0.34-0.168,0.735-0.224,1.187s-0.089,0.879-0.101,1.283c0,0.639,0.053,1.269,0.156,1.89l2.094,0.633v0.123l-2.885-0.193
			c0.014-0.176,0.04-0.431,0.083-0.765S176.133,129.653,176.133,129.437z M176.458,125.64h12.199v-0.589h-12.199V125.64z"/>
		<path fill="#FFFFFF" d="M183.762,115.919h-2.716c-0.697,0-1.496,0.023-2.396,0.07c-0.897,0.047-1.605,0.104-2.123,0.176
			l-0.308,2.109h-0.088V112.5c0-1.096,0.218-1.97,0.655-2.624c0.437-0.654,0.935-1.106,1.492-1.358
			c0.561-0.252,1.042-0.378,1.446-0.378c0.559,0,1.053,0.126,1.49,0.378c0.437,0.252,0.784,0.582,1.042,0.989
			c0.258,0.407,0.41,0.822,0.457,1.244h0.035c0.158-0.398,0.369-0.729,0.633-0.993c0.205-0.205,0.494-0.439,0.866-0.703
			c0.372-0.264,0.88-0.612,1.523-1.046c0.646-0.434,1.148-0.782,1.514-1.046c0.362-0.264,0.657-0.507,0.888-0.729
			c0.492-0.492,0.738-0.979,0.738-1.459H189v1.529c0,0.855-0.258,1.535-0.773,2.039c-0.199,0.199-0.435,0.397-0.708,0.593
			c-0.271,0.196-0.719,0.507-1.34,0.932c-0.621,0.425-1.134,0.782-1.538,1.072s-0.689,0.52-0.861,0.69
			c-0.252,0.252-0.42,0.482-0.505,0.69s-0.127,0.514-0.127,0.918c0,0.369,0.021,0.656,0.063,0.861
			c0.314,0.035,0.668,0.053,1.055,0.053h1.626c0.688,0,1.591-0.073,2.716-0.22l0.31-2.188H189v6.53h-0.088l-0.31-2.065
			c-0.592-0.088-1.424-0.158-2.496-0.211C185.036,115.945,184.254,115.919,183.762,115.919z M176.327,113.291h0.088
			c0.018-0.803,0.212-1.475,0.584-2.017s0.828-0.936,1.367-1.182c0.537-0.246,1.07-0.369,1.6-0.369c1.172,0,2.019,0.51,2.54,1.529
			l0.035-0.053c-0.152-0.598-0.479-1.091-0.978-1.481c-0.498-0.39-1.093-0.584-1.784-0.584c-0.537,0-1.025,0.105-1.463,0.316
			c-0.436,0.211-0.801,0.497-1.094,0.857s-0.516,0.763-0.668,1.208c-0.152,0.445-0.229,0.894-0.229,1.345L176.327,113.291
			L176.327,113.291z M176.476,115.699h12.184v-0.633h-12.184V115.699z M179.746,114.17h1.439c0.51,0,0.984-0.018,1.424-0.053
			c0.035-0.229,0.055-0.56,0.055-0.993c0-0.75-0.129-1.355-0.389-1.815c-0.258-0.46-0.593-0.788-1.006-0.984
			c-0.413-0.196-0.866-0.294-1.356-0.294c-0.486,0-0.937,0.095-1.347,0.286c-0.408,0.191-0.757,0.437-1.042,0.738
			c-0.283,0.301-0.504,0.639-0.657,1.011c-0.155,0.372-0.233,0.737-0.233,1.094c0,0.34,0.021,0.606,0.07,0.8
			c0.34,0.053,0.824,0.101,1.459,0.145C178.796,114.149,179.324,114.17,179.746,114.17z M184.105,111.006l2.771-1.907
			c0.648-0.457,1.113-0.864,1.393-1.222s0.42-0.779,0.426-1.266h-0.088c-0.135,0.463-0.729,1.058-1.784,1.784l-2.195,1.529
			c-0.48,0.328-0.846,0.636-1.09,0.923c-0.246,0.287-0.41,0.639-0.492,1.055l0.068,0.035
			C183.323,111.609,183.654,111.299,184.105,111.006z"/>
		<path fill="#FFFFFF" d="M176.001,97.075l9.079-3.806c1.184-0.492,2.356-1.066,3.522-1.723l0.31-1.459H189v6.205h-0.088
			l-0.31-2.391c-0.58,0.088-1.211,0.25-1.894,0.488c-0.685,0.238-1.276,0.5-1.78,0.787v5.511c0.592,0.234,1.078,0.423,1.459,0.567
			s0.776,0.281,1.188,0.413c0.409,0.132,0.753,0.218,1.026,0.259l0.31-2.303H189v4.913h-0.088l-0.31-1.617
			c-0.68-0.393-1.43-0.753-2.25-1.081L176,97.769L176.001,97.075L176.001,97.075z M177.733,97.866l10.927-4.562v-0.589l-11.663,4.86
			L177.733,97.866z M178.471,98.007c0.313,0.158,0.765,0.368,1.362,0.628c0.597,0.26,1.155,0.497,1.679,0.708
			c0.522,0.211,1.077,0.431,1.666,0.659s0.977,0.381,1.165,0.457c0.047-0.346,0.079-0.749,0.097-1.208
			c0.02-0.459,0.026-0.898,0.026-1.314c0-1.025-0.041-1.866-0.123-2.522c-0.662,0.223-1.604,0.601-2.826,1.134
			C180.295,97.082,179.28,97.567,178.471,98.007z"/>
		<path fill="#FFFFFF" d="M176.221,86.739l0.325,2.303c1.16-0.328,2.558-0.844,4.19-1.547l2.85-1.222
			c0.648-0.27,1.48-0.671,2.496-1.204c-0.369-0.211-0.861-0.461-1.479-0.751s-1.188-0.543-1.723-0.76l-3.261-1.371
			c-1.309-0.533-2.332-0.905-3.076-1.116l-0.325,2.663h-0.088v-5.221h0.07l0.343,1.6c0.533,0.346,1.588,0.85,3.164,1.512
			l7.093,2.988c0.99,0.422,1.843,0.741,2.558,0.958v0.123c-0.967,0.34-1.884,0.7-2.751,1.081l-6.521,2.795
			c-1.227,0.521-2.411,1.107-3.562,1.758l-0.308,1.547h-0.088V86.74L176.221,86.739L176.221,86.739z M176.476,90.861l11.771-5.036
			l-0.723-0.308l-11.048,4.711V90.861z"/>
		<path fill="#FFFFFF" d="M176.001,73.477l9.079-3.806c1.184-0.492,2.356-1.066,3.522-1.723l0.31-1.459H189v6.205h-0.088
			l-0.31-2.391c-0.58,0.088-1.211,0.25-1.894,0.488c-0.685,0.238-1.276,0.5-1.78,0.787v5.511c0.592,0.234,1.078,0.423,1.459,0.567
			c0.381,0.144,0.776,0.281,1.188,0.413c0.409,0.132,0.753,0.218,1.026,0.259l0.31-2.303H189v4.913h-0.088l-0.31-1.617
			c-0.68-0.393-1.43-0.753-2.25-1.081L176,74.171L176.001,73.477L176.001,73.477z M177.733,74.268l10.927-4.562v-0.589l-11.663,4.86
			L177.733,74.268z M178.471,74.408c0.313,0.158,0.765,0.368,1.362,0.628c0.597,0.26,1.155,0.497,1.679,0.708
			s1.077,0.431,1.666,0.659s0.977,0.381,1.165,0.457c0.047-0.346,0.079-0.749,0.097-1.208c0.02-0.459,0.026-0.898,0.026-1.314
			c0-1.025-0.041-1.866-0.123-2.522c-0.662,0.223-1.604,0.601-2.826,1.134C180.295,73.483,179.28,73.969,178.471,74.408z"/>
		<path fill="#FFFFFF" d="M189,59.572v6.645h-0.088l-0.325-2.145c-0.732-0.1-1.616-0.174-2.65-0.224
			c-1.034-0.05-2.046-0.075-3.037-0.075h-1.477c-2.01,0-3.644,0.088-4.896,0.264l-0.308,2.18h-0.088v-6.645h0.088l0.308,2.197
			c0.568,0.064,1.083,0.111,1.542,0.141c0.459,0.03,1.019,0.056,1.67,0.079c0.653,0.023,1.269,0.035,1.843,0.035h1.94
			c0.357,0,0.942-0.013,1.753-0.04c0.813-0.027,1.499-0.062,2.063-0.105c0.562-0.043,0.982-0.086,1.266-0.127l0.31-2.18H189z
			 M176.476,63.536h12.184v-0.615h-12.184V63.536z"/>
		<path fill="#FFFFFF" d="M176.221,59.273h-0.088v-6.645h0.088l0.308,2.18c0.568,0.076,1.334,0.141,2.3,0.193
			c0.964,0.052,1.806,0.079,2.525,0.079h3.779c0.908,0,1.854-0.047,2.839-0.141c0.316-1.002,0.475-2.036,0.475-3.103
			c0-0.516-0.027-0.99-0.088-1.424c-0.059-0.434-0.112-0.738-0.167-0.914l-2.397-0.914v-0.132L189,48.867v10.424h-0.088l-0.31-2.101
			c-0.281-0.07-0.782-0.13-1.503-0.18c-0.721-0.05-1.465-0.089-2.23-0.119c-0.769-0.03-1.312-0.044-1.626-0.044h-2.217
			c-0.484,0-1.044,0.012-1.674,0.035c-0.63,0.023-1.182,0.051-1.657,0.083c-0.475,0.032-0.862,0.075-1.169,0.127L176.221,59.273z
			 M176.458,56.61h12.199v-0.615h-12.199V56.61z"/>
	</g>
	<g class="motprosperite">
		<path fill="#FFFFFF" d="M193.164,162.656v6.1c0,0.979-0.089,1.743-0.27,2.294c-0.179,0.551-0.445,1.005-0.804,1.362
			c-0.299,0.299-0.667,0.529-1.104,0.69c-0.436,0.161-0.886,0.242-1.349,0.242c-0.69,0-1.332-0.18-1.92-0.541
			c-0.588-0.361-1.061-0.867-1.415-1.521c-0.354-0.654-0.532-1.399-0.532-2.237c0-0.662,0.055-1.263,0.158-1.802h0.088
			c-0.012,0.123-0.018,0.311-0.018,0.563c0,0.656,0.111,1.264,0.338,1.824c0.225,0.56,0.577,1.009,1.055,1.349
			c0.479,0.34,1.077,0.51,1.797,0.51c0.838,0,1.626-0.261,2.364-0.782s1.107-1.292,1.107-2.312c0-0.492-0.049-0.929-0.143-1.31
			c-0.232-0.041-0.815-0.085-1.749-0.132c-0.932-0.047-1.585-0.07-1.96-0.07h-4.19c-0.178,0-0.573,0.013-1.191,0.04
			c-0.618,0.027-1.153,0.054-1.604,0.083c-0.45,0.029-0.828,0.073-1.135,0.132l-0.324,2.197l-0.104-0.097v-6.583l0.123,0.035
			l0.308,2.127c0.492,0.064,1.016,0.114,1.564,0.149c0.55,0.035,1.214,0.066,1.991,0.092c0.775,0.026,1.354,0.04,1.734,0.04h2.109
			c0.744,0,1.578-0.023,2.5-0.07c0.922-0.047,1.642-0.105,2.158-0.176l0.308-2.18L193.164,162.656z M192.83,165.336h-12.208v0.615
			h12.208V165.336L192.83,165.336z M192.953,168.861v-0.316h-0.088c-0.035,0.662-0.226,1.241-0.567,1.736
			c-0.343,0.495-0.787,0.869-1.332,1.121s-1.131,0.378-1.758,0.378c-0.715,0-1.309-0.152-1.775-0.457
			c-0.468-0.305-0.809-0.668-1.02-1.09c-0.211-0.422-0.337-0.841-0.378-1.257h-0.105v0.158c0,0.328,0.089,0.746,0.27,1.252
			c0.179,0.506,0.521,0.971,1.031,1.393c0.512,0.422,1.216,0.633,2.118,0.633c0.559,0,1.113-0.114,1.67-0.343
			c0.559-0.229,1.02-0.611,1.384-1.147C192.769,170.386,192.953,169.699,192.953,168.861z"/>
		<path fill="#FFFFFF" d="M193.313,200.879c0,1.248-0.208,2.33-0.624,3.244s-0.961,1.662-1.635,2.245s-1.39,1.011-2.149,1.282
			c-0.759,0.271-1.485,0.41-2.184,0.41c-0.797,0-1.579-0.154-2.347-0.463c-0.77-0.309-1.471-0.763-2.105-1.361
			c-0.636-0.602-1.144-1.346-1.523-2.232c-0.383-0.887-0.571-1.877-0.571-2.967c0-1.576,0.341-2.912,1.022-4.007
			c0.685-1.095,1.528-1.904,2.536-2.426c1.01-0.522,1.992-0.782,2.953-0.782c0.852,0,1.673,0.166,2.472,0.497
			c0.797,0.331,1.51,0.812,2.14,1.441c0.63,0.629,1.124,1.384,1.479,2.263C193.134,198.902,193.313,199.854,193.313,200.879z
			 M192.97,200.52h0.088c-0.006-0.819-0.182-1.621-0.527-2.398c-0.345-0.779-0.813-1.465-1.404-2.057
			c-0.592-0.592-1.268-1.053-2.021-1.384c-0.755-0.331-1.55-0.497-2.382-0.497c-1.02,0-2.011,0.277-2.975,0.831
			c-0.964,0.554-1.748,1.32-2.353,2.298c-0.603,0.978-0.923,2.054-0.958,3.226h0.099c0.1-1.137,0.452-2.142,1.063-3.015
			s1.365-1.537,2.27-1.991c0.901-0.454,1.837-0.681,2.804-0.681c0.797,0,1.562,0.132,2.294,0.396c0.73,0.264,1.386,0.645,1.96,1.143
			s1.04,1.1,1.396,1.806C192.678,198.901,192.894,199.675,192.97,200.52z M193.058,201.381h-0.088
			c-0.041,0.568-0.174,1.139-0.4,1.713c-0.226,0.574-0.575,1.112-1.055,1.613c-0.478,0.501-1.121,0.904-1.929,1.209
			c-0.81,0.305-1.781,0.457-2.918,0.457c-0.744,0-1.456-0.09-2.136-0.27c-0.682-0.18-1.309-0.465-1.883-0.86
			c-0.572-0.396-1.049-0.913-1.424-1.552c-0.375-0.641-0.604-1.402-0.692-2.293h-0.099c0.035,0.75,0.196,1.461,0.483,2.135
			s0.699,1.273,1.233,1.798c0.536,0.524,1.191,0.938,1.966,1.243c0.771,0.305,1.635,0.457,2.584,0.457
			c1.036,0,1.951-0.158,2.746-0.475c0.795-0.317,1.454-0.746,1.981-1.291c0.527-0.547,0.926-1.15,1.195-1.815
			C192.895,202.785,193.041,202.096,193.058,201.381z M192.698,200.932c0-0.908-0.235-1.748-0.712-2.518
			c-0.475-0.77-1.158-1.383-2.057-1.837s-1.954-0.681-3.173-0.681c-1.313,0-2.421,0.248-3.327,0.743
			c-0.906,0.495-1.576,1.131-2.013,1.907c-0.438,0.776-0.655,1.578-0.655,2.404c0,0.673,0.129,1.312,0.387,1.916
			c0.258,0.604,0.634,1.143,1.129,1.616c0.495,0.475,1.104,0.847,1.828,1.111c0.726,0.268,1.531,0.399,2.421,0.399
			c1.221,0,2.191-0.142,2.918-0.423c0.729-0.28,1.362-0.692,1.907-1.237c0.463-0.463,0.803-0.989,1.021-1.578
			C192.588,202.167,192.698,201.559,192.698,200.932z"/>
		<path fill="#FFFFFF" d="M183.337,209.326l-2.162,0.668c-0.152,0.334-0.275,0.725-0.369,1.173s-0.138,0.837-0.132,1.165
			c0,0.439,0.076,0.842,0.229,1.208c0.153,0.366,0.348,0.665,0.58,0.896c0.234,0.231,0.5,0.409,0.795,0.532s0.584,0.185,0.866,0.185
			c0.58,0,1.069-0.194,1.468-0.588c0.399-0.394,0.908-1.051,1.529-1.975c0.621-0.923,1.14-1.593,1.556-2.009
			c0.369-0.356,0.74-0.623,1.112-0.799c0.372-0.177,0.787-0.265,1.244-0.265c0.504,0,1.005,0.137,1.503,0.412
			c0.498,0.274,0.913,0.7,1.244,1.274c0.331,0.573,0.497,1.278,0.497,2.116c0,0.382-0.021,0.785-0.057,1.214
			c-0.038,0.428-0.059,0.725-0.059,0.889c0.006,0.142,0.01,0.271,0.013,0.396c0.005,0.125,0.011,0.223,0.02,0.296
			s0.019,0.149,0.031,0.231l-3.008,0.053v-0.112l2.03-0.556c0.357-0.813,0.536-1.522,0.536-2.127c0-0.504-0.095-0.955-0.286-1.356
			c-0.189-0.401-0.451-0.713-0.782-0.937c-0.33-0.224-0.703-0.334-1.119-0.334c-0.436,0-0.831,0.147-1.191,0.446
			c-0.36,0.3-0.713,0.708-1.059,1.228c-0.348,0.52-0.714,1.076-1.101,1.67c-0.387,0.596-0.759,1.07-1.116,1.429
			c-0.695,0.696-1.503,1.047-2.417,1.047c-0.516,0-1.047-0.135-1.595-0.403c-0.548-0.27-1.012-0.726-1.393-1.363
			c-0.383-0.639-0.571-1.465-0.571-2.479c0-0.355,0.021-0.792,0.062-1.305c0.041-0.514,0.063-0.891,0.063-1.129
			c0-0.111-0.003-0.198-0.009-0.262c-0.006-0.062-0.017-0.154-0.026-0.285c-0.011-0.129-0.018-0.203-0.018-0.229l3.094-0.141v0.125
			H183.337z M193.111,213.623v-0.281c0-0.645-0.129-1.238-0.387-1.783s-0.624-0.977-1.099-1.293
			c-0.477-0.314-1.013-0.475-1.608-0.475c-0.744,0-1.439,0.326-2.092,0.977c-0.275,0.287-0.507,0.557-0.694,0.806
			c-0.187,0.247-0.453,0.626-0.795,1.13s-0.624,0.904-0.844,1.208c-0.22,0.302-0.429,0.55-0.628,0.741
			c-0.527,0.527-1.116,0.791-1.769,0.791c-0.443,0-0.875-0.12-1.286-0.363c-0.413-0.243-0.75-0.596-1.013-1.057
			c-0.261-0.459-0.394-1-0.398-1.621H180.4c-0.021,0.717,0.104,1.354,0.378,1.912c0.275,0.56,0.641,0.986,1.092,1.283
			c0.449,0.295,0.917,0.443,1.396,0.443c0.416,0,0.794-0.068,1.134-0.203c0.342-0.135,0.688-0.381,1.046-0.738
			c0.205-0.205,0.491-0.574,0.857-1.105c0.366-0.533,0.735-1.072,1.107-1.617c0.371-0.545,0.678-0.941,0.918-1.193
			c0.607-0.615,1.278-0.924,2.013-0.924c0.645,0,1.245,0.279,1.802,0.84c0.559,0.561,0.852,1.4,0.879,2.525L193.111,213.623
			L193.111,213.623z"/>
		<path fill="#FFFFFF" d="M193.164,217.535v6.1c0,0.979-0.089,1.742-0.27,2.293c-0.179,0.551-0.445,1.006-0.804,1.363
			c-0.299,0.299-0.667,0.527-1.104,0.689c-0.436,0.16-0.886,0.242-1.349,0.242c-0.69,0-1.332-0.183-1.92-0.541
			c-0.588-0.361-1.061-0.867-1.415-1.521c-0.354-0.654-0.532-1.398-0.532-2.237c0-0.661,0.055-1.262,0.158-1.801h0.088
			c-0.012,0.123-0.018,0.312-0.018,0.563c0,0.654,0.111,1.264,0.338,1.821c0.225,0.56,0.577,1.011,1.055,1.351
			c0.479,0.34,1.077,0.51,1.797,0.51c0.838,0,1.626-0.26,2.364-0.781s1.107-1.293,1.107-2.313c0-0.492-0.049-0.928-0.143-1.311
			c-0.232-0.041-0.815-0.086-1.749-0.133c-0.932-0.047-1.585-0.07-1.96-0.07h-4.19c-0.178,0-0.573,0.016-1.191,0.04
			c-0.618,0.026-1.153,0.056-1.604,0.083c-0.45,0.029-0.828,0.074-1.135,0.135l-0.324,2.195l-0.104-0.098v-6.582l0.123,0.033
			l0.308,2.127c0.492,0.064,1.016,0.113,1.564,0.148s1.214,0.066,1.991,0.094c0.775,0.026,1.354,0.039,1.734,0.039h2.109
			c0.744,0,1.578-0.021,2.5-0.068c0.922-0.049,1.642-0.105,2.158-0.178l0.308-2.18L193.164,217.535z M192.83,220.215h-12.208v0.615
			h12.208V220.215L192.83,220.215z M192.953,223.74v-0.316h-0.088c-0.035,0.662-0.226,1.24-0.567,1.735s-0.787,0.868-1.332,1.12
			s-1.131,0.379-1.758,0.379c-0.715,0-1.309-0.152-1.775-0.457s-0.809-0.668-1.02-1.09s-0.337-0.842-0.378-1.258h-0.105v0.158
			c0,0.326,0.089,0.744,0.27,1.252c0.179,0.508,0.521,0.973,1.031,1.395c0.512,0.422,1.216,0.633,2.118,0.633
			c0.559,0,1.113-0.115,1.67-0.344c0.559-0.229,1.02-0.61,1.384-1.146C192.769,225.266,192.953,224.578,192.953,223.74z"/>
		<path fill="#FFFFFF" d="M193.041,228.652h0.088v9.361l-2.733,0.219v-0.143l2.146-0.633c0.035-0.498,0.053-1.059,0.053-1.68
			c0-1.131-0.079-2.043-0.237-2.732c-0.947-0.115-2.031-0.176-3.252-0.176c-0.762,0-1.38,0.021-1.854,0.068
			c-0.055,0.928-0.079,1.518-0.079,1.77c0,0.662,0.038,1.344,0.114,2.047l1.492,0.396v0.147h-3.742v-0.147l1.582-0.414
			c0.059-0.51,0.088-1.071,0.088-1.688c0-0.772-0.035-1.478-0.105-2.108c-0.68-0.075-1.345-0.101-1.995-0.069
			c-0.832,0.012-1.519,0.026-2.061,0.045s-1.009,0.049-1.402,0.096c-0.217,0.716-0.325,1.652-0.325,2.813
			c0,0.668,0.026,1.23,0.079,1.688l2.118,0.703v0.123l-2.751-0.193v-9.465h0.088l0.31,2.102c0.238,0.047,0.604,0.09,1.099,0.128
			s1.044,0.069,1.657,0.101c0.611,0.03,1.125,0.053,1.538,0.063s0.773,0.018,1.085,0.018h2.215c0.281,0,0.681-0.01,1.2-0.026
			c0.519-0.018,1.056-0.043,1.611-0.078c0.559-0.034,1.113-0.086,1.67-0.149L193.041,228.652z M192.786,231.324h-12.184v0.607
			h12.184V231.324z M195.528,234.023v1.836l-1.591-3.814v-0.219L195.528,234.023z"/>
		<path fill="#FFFFFF" d="M185.5,241.512h2.716c0.697,0,1.496-0.021,2.395-0.07c0.899-0.047,1.607-0.104,2.123-0.176l0.31-2.107
			h0.088v5.773c0,1.096-0.218,1.969-0.655,2.623c-0.437,0.652-0.935,1.105-1.494,1.357c-0.559,0.252-1.042,0.379-1.444,0.379
			c-0.559,0-1.055-0.127-1.49-0.379c-0.438-0.252-0.784-0.582-1.042-0.988c-0.258-0.408-0.41-0.822-0.457-1.244h-0.035
			c-0.158,0.398-0.369,0.73-0.633,0.994c-0.205,0.205-0.494,0.439-0.866,0.703s-0.88,0.611-1.525,1.045
			c-0.645,0.434-1.146,0.783-1.512,1.047s-0.659,0.506-0.888,0.729c-0.492,0.491-0.738,0.979-0.738,1.459h-0.088v-1.529
			c0-0.854,0.258-1.535,0.773-2.039c0.197-0.198,0.435-0.396,0.708-0.592c0.271-0.197,0.719-0.509,1.34-0.933
			c0.621-0.426,1.134-0.782,1.538-1.071c0.402-0.291,0.689-0.521,0.859-0.691c0.252-0.252,0.42-0.481,0.505-0.688
			c0.085-0.209,0.127-0.514,0.127-0.918c0-0.37-0.021-0.657-0.062-0.862c-0.316-0.035-0.668-0.054-1.055-0.054h-1.626
			c-0.688,0-1.593,0.074-2.718,0.222l-0.308,2.188h-0.088v-6.53h0.088l0.308,2.063c0.594,0.088,1.426,0.157,2.496,0.211
			C184.222,241.486,185.007,241.512,185.5,241.512z M185.157,246.426l-2.771,1.906c-0.65,0.457-1.115,0.865-1.393,1.223
			c-0.278,0.358-0.42,0.779-0.428,1.266h0.089c0.136-0.463,0.729-1.059,1.783-1.783l2.197-1.529c0.48-0.326,0.844-0.635,1.09-0.922
			s0.41-0.641,0.492-1.055l-0.07-0.035C185.939,245.822,185.608,246.133,185.157,246.426z M192.786,241.73h-12.184v0.633h12.184
			V241.73z M189.516,243.26h-1.439c-0.512,0-0.984,0.018-1.426,0.053c-0.033,0.229-0.053,0.563-0.053,0.994
			c0,0.75,0.129,1.355,0.387,1.816c0.26,0.459,0.595,0.787,1.008,0.984c0.411,0.193,0.864,0.293,1.356,0.293
			c0.486,0,0.937-0.096,1.345-0.285c0.41-0.191,0.759-0.438,1.042-0.738c0.284-0.303,0.506-0.639,0.659-1.01
			c0.155-0.373,0.233-0.738,0.233-1.096c0-0.34-0.023-0.607-0.07-0.803c-0.34-0.053-0.826-0.101-1.459-0.145
			C190.466,243.279,189.938,243.26,189.516,243.26z M192.935,244.141h-0.088c-0.018,0.803-0.212,1.477-0.584,2.02
			c-0.372,0.541-0.828,0.938-1.367,1.182c-0.539,0.246-1.07,0.369-1.6,0.369c-1.172,0-2.021-0.51-2.54-1.527l-0.035,0.053
			c0.152,0.598,0.479,1.09,0.976,1.479c0.498,0.391,1.095,0.584,1.784,0.584c0.539,0,1.027-0.104,1.463-0.314
			c0.438-0.211,0.803-0.496,1.096-0.855c0.293-0.361,0.516-0.764,0.668-1.209c0.15-0.445,0.229-0.895,0.229-1.346L192.935,244.141
			L192.935,244.141z"/>
		<path fill="#FFFFFF" d="M180.261,259.625v-6.645h0.088l0.325,2.145c0.73,0.1,1.616,0.174,2.65,0.225
			c1.032,0.049,2.046,0.074,3.035,0.074h1.479c2.01,0,3.642-0.088,4.896-0.264l0.31-2.18h0.088v6.645h-0.088l-0.31-2.197
			c-0.566-0.063-1.083-0.111-1.542-0.141c-0.459-0.03-1.017-0.055-1.67-0.078c-0.651-0.023-1.267-0.035-1.841-0.035h-1.942
			c-0.355,0-0.94,0.014-1.753,0.039c-0.812,0.027-1.499,0.063-2.061,0.105c-0.563,0.045-0.984,0.086-1.266,0.127l-0.31,2.18H180.261
			L180.261,259.625z M192.786,255.662h-12.184v0.615h12.184V255.662z"/>
		<path fill="#FFFFFF" d="M193.128,261.744v7.629c0,0.463,0.013,0.887,0.04,1.273c0.025,0.386,0.067,0.885,0.127,1.494l-2.85,0.201
			v-0.104l2.074-0.65c0.094-0.533,0.143-1.09,0.143-1.67c0-0.498-0.026-0.953-0.079-1.363c-0.055-0.41-0.143-0.852-0.266-1.326
			c-0.545-0.047-1.069-0.082-1.576-0.104c-0.509-0.021-0.978-0.041-1.406-0.055c-0.432-0.012-0.727-0.018-0.883-0.018h-2.918
			c-0.77,0-1.627,0.025-2.58,0.078s-1.712,0.117-2.281,0.193l-0.325,2.172h-0.088v-6.637h0.088l0.325,2.137
			c1.295,0.182,2.862,0.271,4.702,0.271h3.182c0.656,0,1.304-0.016,1.942-0.043c0.638-0.029,1.245-0.08,1.817-0.15
			c0.096-0.34,0.168-0.734,0.226-1.188c0.056-0.451,0.089-0.879,0.101-1.281c0-0.641-0.053-1.271-0.158-1.893l-2.092-0.633v-0.123
			l2.883,0.191c-0.012,0.178-0.04,0.434-0.083,0.768S193.128,261.527,193.128,261.744z M192.803,265.541h-12.199v0.588h12.199
			V265.541z"/>
		<path fill="#FFFFFF" d="M193.041,272.721h0.088v9.361l-2.733,0.219v-0.141l2.146-0.633c0.035-0.498,0.053-1.057,0.053-1.678
			c0-1.133-0.079-2.043-0.237-2.734c-0.947-0.117-2.031-0.176-3.252-0.176c-0.762,0-1.38,0.021-1.854,0.068
			c-0.055,0.928-0.079,1.518-0.079,1.77c0,0.662,0.038,1.344,0.114,2.047l1.492,0.396v0.146h-3.742v-0.146l1.582-0.414
			c0.059-0.512,0.088-1.072,0.088-1.688c0-0.772-0.035-1.478-0.105-2.109c-0.68-0.075-1.345-0.1-1.995-0.069
			c-0.832,0.013-1.519,0.026-2.061,0.045s-1.009,0.05-1.402,0.097c-0.217,0.715-0.325,1.651-0.325,2.813
			c0,0.668,0.026,1.229,0.079,1.688l2.118,0.703v0.123l-2.751-0.193v-9.465h0.088l0.31,2.102c0.238,0.047,0.604,0.09,1.099,0.127
			c0.492,0.039,1.044,0.07,1.657,0.102c0.611,0.029,1.125,0.051,1.538,0.063s0.773,0.02,1.085,0.02h2.215
			c0.281,0,0.681-0.012,1.2-0.027c0.519-0.017,1.056-0.043,1.611-0.076c0.559-0.035,1.113-0.088,1.67-0.15L193.041,272.721z
			 M192.786,275.393h-12.184V276h12.184V275.393z M195.528,278.092v1.836l-1.591-3.813v-0.221L195.528,278.092z"/>
	</g>
	<g class="motchance">
		<path fill="#FFFFFF" d="M113.384,114.05l-2.408-1.301c0.047-0.563,0.07-0.97,0.07-1.222c0-0.311-0.023-0.729-0.07-1.257
			s-0.07-0.938-0.07-1.23c0-1.184,0.185-2.231,0.551-3.142c0.364-0.911,0.859-1.663,1.483-2.254
			c0.624-0.591,1.313-1.031,2.065-1.318s1.516-0.431,2.29-0.431c0.99,0,1.903,0.168,2.738,0.505s1.553,0.813,2.151,1.428
			c0.602,0.615,1.063,1.333,1.38,2.153c0.319,0.82,0.479,1.702,0.479,2.646c0,0.246-0.001,0.401-0.004,0.466
			c-0.003,0.065-0.01,0.205-0.02,0.422c-0.009,0.217-0.019,0.437-0.029,0.659c-0.055,0.791-0.079,1.397-0.079,1.819
			c0,0.938,0.024,1.55,0.079,1.837l-2.953,0.105v-0.105l1.96-0.589c0.041-0.176,0.1-0.486,0.176-0.932
			c0.076-0.446,0.138-0.88,0.185-1.305c0.049-0.425,0.07-0.869,0.07-1.332c0-1.207-0.242-2.24-0.725-3.098
			c-0.483-0.858-1.169-1.504-2.059-1.938c-0.888-0.434-1.909-0.65-3.063-0.65c-0.896,0-1.723,0.155-2.476,0.466
			s-1.395,0.744-1.925,1.301s-0.933,1.191-1.208,1.903c-0.273,0.712-0.413,1.463-0.413,2.254c0,0.785,0.134,1.521,0.4,2.206
			c0.267,0.685,0.751,1.298,1.455,1.837L113.384,114.05z M123.843,110.068v-1.028c0-1.02-0.168-1.956-0.505-2.808
			s-0.806-1.573-1.406-2.162c-0.6-0.589-1.293-1.036-2.079-1.34s-1.626-0.457-2.521-0.457c-0.82,0-1.604,0.157-2.353,0.47
			s-1.412,0.776-1.995,1.389c-0.583,0.613-1.037,1.343-1.36,2.193c-0.325,0.85-0.488,1.799-0.488,2.848
			c0,0.469,0.006,0.768,0.018,0.896h0.114c-0.021-1.166,0.13-2.205,0.461-3.116s0.794-1.663,1.391-2.254
			c0.595-0.591,1.267-1.033,2.017-1.323s1.512-0.435,2.285-0.435c0.762,0,1.512,0.126,2.25,0.378c0.738,0.252,1.415,0.64,2.03,1.165
			c0.613,0.525,1.104,1.203,1.472,2.035s0.549,1.811,0.549,2.936v0.615h0.123v-0.002H123.843z"/>
		<path fill="#FFFFFF" d="M124.01,141.665l-9.079,3.806c-1.184,0.492-2.358,1.066-3.522,1.723l-0.31,1.459h-0.088v-6.205h0.088
			l0.31,2.391c0.578-0.088,1.211-0.25,1.894-0.488c0.683-0.238,1.276-0.5,1.78-0.787v-5.511c-0.594-0.234-1.078-0.423-1.459-0.567
			s-0.776-0.281-1.188-0.413c-0.411-0.132-0.753-0.218-1.026-0.259l-0.31,2.303h-0.088v-4.913h0.088l0.31,1.617
			c0.68,0.393,1.43,0.753,2.25,1.081l10.354,4.069L124.01,141.665L124.01,141.665z M122.279,140.874l-10.925,4.562v0.589
			l11.663-4.86L122.279,140.874z M121.541,140.733c-0.313-0.158-0.767-0.368-1.362-0.628s-1.157-0.497-1.679-0.708
			c-0.522-0.211-1.077-0.431-1.666-0.659c-0.589-0.229-0.979-0.381-1.165-0.457c-0.047,0.346-0.079,0.749-0.099,1.208
			c-0.018,0.459-0.024,0.896-0.024,1.313c0,1.025,0.041,1.866,0.123,2.522c0.662-0.223,1.604-0.601,2.826-1.134
			C119.717,141.658,120.732,141.173,121.541,140.733z"/>
		<path fill="#FFFFFF" d="M123.791,148.837h0.088v4.438c-0.398,0.293-0.879,0.672-1.441,1.138c-0.562,0.466-1.046,0.88-1.45,1.244
			l-4.377,3.938c-0.566,0.521-1.008,0.927-1.316,1.217c-0.312,0.29-0.688,0.667-1.134,1.129c0.402,0.035,0.78,0.059,1.134,0.07
			c0.352,0.011,0.683,0.02,0.993,0.02h3.797c1.363,0,2.493-0.067,3.384-0.202l0.325-2.136h0.088v5.229h-0.088l-0.343-2.136
			c-0.82-0.111-1.869-0.167-3.146-0.167h-9.633v-0.088c1.137-0.896,2.2-1.784,3.188-2.663l5.994-5.379
			c0.852-0.797,1.526-1.479,2.03-2.039c-0.797-0.082-1.541-0.123-2.232-0.123h-5.563c-0.744,0-1.632,0.059-2.663,0.176l-0.325,2.232
			h-0.088v-5.344h0.088l0.31,2.162c0.422,0.07,1.021,0.12,1.802,0.149c0.78,0.029,1.474,0.044,2.083,0.044h4.307
			c0.51,0,1.017-0.009,1.518-0.026c0.501-0.017,0.997-0.05,1.488-0.097l0.861-1.169L123.791,148.837z M123.553,151.465
			l-11.804,10.617h0.826l10.978-9.879V151.465z"/>
		<path fill="#FFFFFF" d="M113.384,178.298l-2.408-1.301c0.047-0.563,0.07-0.97,0.07-1.222c0-0.311-0.023-0.729-0.07-1.257
			s-0.07-0.938-0.07-1.23c0-1.184,0.185-2.231,0.551-3.142c0.364-0.911,0.859-1.663,1.483-2.254
			c0.624-0.591,1.313-1.031,2.065-1.318c0.752-0.287,1.516-0.431,2.29-0.431c0.99,0,1.903,0.168,2.738,0.505
			s1.553,0.813,2.151,1.428c0.602,0.615,1.063,1.333,1.38,2.153c0.319,0.82,0.479,1.702,0.479,2.646
			c0,0.246-0.001,0.401-0.004,0.466c-0.003,0.065-0.01,0.205-0.02,0.422c-0.009,0.217-0.019,0.437-0.029,0.659
			c-0.055,0.791-0.079,1.397-0.079,1.819c0,0.938,0.024,1.55,0.079,1.837l-2.953,0.105v-0.105l1.96-0.589
			c0.041-0.176,0.1-0.486,0.176-0.932c0.076-0.446,0.138-0.88,0.185-1.305c0.049-0.425,0.07-0.869,0.07-1.332
			c0-1.207-0.242-2.24-0.725-3.098c-0.483-0.858-1.169-1.504-2.059-1.938c-0.888-0.434-1.909-0.65-3.063-0.65
			c-0.896,0-1.723,0.155-2.476,0.466c-0.753,0.311-1.395,0.744-1.925,1.301s-0.933,1.191-1.208,1.903
			c-0.273,0.712-0.413,1.463-0.413,2.254c0,0.785,0.134,1.521,0.4,2.206c0.267,0.685,0.751,1.298,1.455,1.837L113.384,178.298z
			 M123.843,174.316v-1.028c0-1.02-0.168-1.956-0.505-2.808s-0.806-1.573-1.406-2.162c-0.6-0.589-1.293-1.036-2.079-1.34
			s-1.626-0.457-2.521-0.457c-0.82,0-1.604,0.157-2.353,0.47c-0.747,0.313-1.412,0.776-1.995,1.389
			c-0.583,0.613-1.037,1.343-1.36,2.193c-0.325,0.85-0.488,1.799-0.488,2.848c0,0.469,0.006,0.768,0.018,0.896h0.114
			c-0.021-1.166,0.13-2.205,0.461-3.116c0.331-0.911,0.794-1.663,1.391-2.254c0.595-0.591,1.267-1.033,2.017-1.323
			s1.512-0.435,2.285-0.435c0.762,0,1.512,0.126,2.25,0.378s1.415,0.64,2.03,1.165c0.613,0.525,1.104,1.203,1.472,2.035
			s0.549,1.811,0.549,2.936v0.615h0.123v-0.002H123.843z"/>
		<path fill="#FFFFFF" d="M123.791,178.975h0.088v9.36l-2.733,0.22v-0.141l2.146-0.633c0.035-0.498,0.053-1.058,0.053-1.679
			c0-1.131-0.079-2.042-0.237-2.733c-0.947-0.117-2.031-0.176-3.252-0.176c-0.762,0-1.38,0.023-1.854,0.07
			c-0.055,0.926-0.079,1.515-0.079,1.767c0,0.662,0.038,1.345,0.114,2.048l1.492,0.396v0.149h-3.742v-0.149l1.582-0.413
			c0.059-0.51,0.088-1.072,0.088-1.688c0-0.773-0.035-1.477-0.105-2.109c-0.68-0.076-1.345-0.1-1.995-0.07
			c-0.832,0.012-1.519,0.026-2.061,0.044c-0.542,0.018-1.009,0.05-1.402,0.097c-0.217,0.715-0.325,1.652-0.325,2.813
			c0,0.668,0.026,1.23,0.079,1.688l2.118,0.703v0.123l-2.751-0.193v-9.466h0.088l0.31,2.101c0.238,0.047,0.604,0.089,1.099,0.127
			s1.044,0.072,1.657,0.101c0.611,0.029,1.125,0.05,1.538,0.062s0.773,0.018,1.085,0.018H119c0.279,0,0.681-0.009,1.2-0.026
			c0.519-0.017,1.056-0.044,1.611-0.079c0.559-0.035,1.113-0.085,1.67-0.149L123.791,178.975z M123.536,181.646h-12.184v0.606
			h12.184V181.646z"/>
	</g>
	<g class="motbonheur">
		<path fill="#FFFFFF" d="M65.077,131.532l2.206-0.325c0.1-0.48,0.179-1.305,0.235-2.474c0.06-1.169,0.088-2.079,0.088-2.729v-2.83
			c0-0.797-0.021-1.56-0.062-2.29c-0.041-0.73-0.097-1.308-0.167-1.736l-2.285-0.308v-0.088h6.53c0.938,0,1.682,0.151,2.23,0.453
			c0.55,0.302,0.938,0.678,1.16,1.129s0.334,0.926,0.334,1.424c0,0.891-0.297,1.595-0.892,2.114
			c-0.597,0.519-1.317,0.816-2.167,0.892v0.035c0.879,0.041,1.627,0.223,2.246,0.545c0.618,0.322,1.085,0.737,1.4,1.244
			c0.317,0.507,0.477,1.05,0.477,1.63c0,0.492-0.122,0.996-0.365,1.512s-0.688,0.959-1.327,1.332s-1.501,0.558-2.58,0.558h-7.064
			L65.077,131.532L65.077,131.532z M67.863,119.078v12.199h0.615v-12.199H67.863z M70.649,125.107c-0.572,0-0.976,0.041-1.204,0.123
			c-0.047,0.428-0.068,1.125-0.068,2.092c0,1.146,0.041,2.25,0.123,3.305c0.334,0.188,0.634,0.316,0.899,0.387
			c0.269,0.071,0.598,0.105,0.989,0.105c0.621,0,1.163-0.107,1.626-0.321s0.825-0.535,1.085-0.962
			c0.26-0.427,0.393-0.949,0.393-1.564s-0.148-1.16-0.444-1.635c-0.296-0.475-0.732-0.848-1.312-1.121
			C72.158,125.243,71.464,125.107,70.649,125.107z M70.632,119.236c-0.451,0-0.791,0.035-1.021,0.105
			c-0.146,0.938-0.22,2.048-0.22,3.331c0,0.938,0.02,1.538,0.053,1.802c0.26,0.105,0.606,0.158,1.048,0.158
			c0.586,0,1.105-0.107,1.563-0.321s0.817-0.53,1.081-0.949c0.264-0.419,0.396-0.936,0.396-1.551c0-0.475-0.101-0.907-0.3-1.296
			c-0.197-0.389-0.516-0.7-0.947-0.932C71.851,119.351,71.3,119.236,70.632,119.236z M70.869,118.964v0.07
			c0.639,0.018,1.182,0.148,1.63,0.391c0.446,0.243,0.784,0.574,1.006,0.993s0.334,0.901,0.334,1.446
			c0,0.516-0.098,0.968-0.294,1.358c-0.196,0.39-0.447,0.696-0.751,0.918c-0.304,0.222-0.621,0.375-0.949,0.457v0.097
			c0.814-0.111,1.449-0.435,1.903-0.971c0.454-0.536,0.681-1.173,0.681-1.912c0-0.457-0.075-0.864-0.224-1.222
			c-0.149-0.358-0.363-0.661-0.644-0.91c-0.277-0.249-0.596-0.437-0.954-0.563c-0.356-0.126-0.765-0.189-1.222-0.189
			C71.276,118.929,71.104,118.94,70.869,118.964z M71.845,124.94v0.07c0.516,0.094,0.999,0.277,1.45,0.549s0.813,0.639,1.085,1.099
			c0.271,0.46,0.409,1.009,0.409,1.648c0,0.521-0.113,1.009-0.338,1.463c-0.227,0.454-0.594,0.828-1.101,1.121
			s-1.141,0.439-1.901,0.439v0.07c0.094,0.029,0.267,0.044,0.519,0.044c0.738,0,1.371-0.148,1.898-0.444
			c0.525-0.296,0.921-0.684,1.182-1.165s0.391-0.99,0.391-1.529c0-0.645-0.138-1.216-0.413-1.714
			c-0.273-0.498-0.684-0.892-1.226-1.182S72.606,124.964,71.845,124.94z"/>
		<path fill="#FFFFFF" d="M84.729,118.568c1.248,0,2.329,0.208,3.243,0.624s1.663,0.961,2.246,1.635
			c0.583,0.674,1.011,1.39,1.283,2.149c0.271,0.759,0.409,1.487,0.409,2.184c0,0.797-0.154,1.579-0.461,2.347
			c-0.309,0.768-0.764,1.469-1.362,2.105c-0.602,0.636-1.345,1.144-2.232,1.525c-0.887,0.381-1.876,0.571-2.966,0.571
			c-1.576,0-2.912-0.341-4.008-1.024s-1.904-1.528-2.426-2.536c-0.522-1.008-0.782-1.992-0.782-2.953c0-0.85,0.166-1.673,0.497-2.47
			c0.331-0.797,0.812-1.51,1.439-2.14c0.63-0.63,1.386-1.124,2.265-1.481S83.704,118.568,84.729,118.568z M84.369,118.911v-0.088
			c-0.82,0.006-1.62,0.182-2.399,0.527c-0.779,0.345-1.465,0.814-2.057,1.406c-0.594,0.592-1.055,1.266-1.386,2.021
			c-0.331,0.755-0.495,1.55-0.495,2.382c0,1.02,0.275,2.011,0.829,2.975c0.556,0.964,1.32,1.748,2.3,2.351
			c0.978,0.603,2.054,0.923,3.226,0.958v-0.097c-1.137-0.1-2.142-0.454-3.015-1.063c-0.873-0.609-1.537-1.365-1.991-2.268
			c-0.454-0.903-0.681-1.837-0.681-2.804c0-0.797,0.132-1.562,0.396-2.294s0.646-1.386,1.143-1.96
			c0.498-0.574,1.102-1.04,1.808-1.397S83.525,118.987,84.369,118.911z M84.782,119.184c-0.908,0-1.748,0.237-2.52,0.712
			c-0.77,0.475-1.383,1.16-1.837,2.057s-0.681,1.954-0.681,3.173c0,1.313,0.248,2.421,0.741,3.327
			c0.495,0.906,1.133,1.576,1.907,2.013c0.776,0.437,1.578,0.655,2.404,0.655c0.674,0,1.313-0.129,1.916-0.387
			c0.603-0.258,1.143-0.634,1.617-1.129c0.474-0.495,0.845-1.104,1.11-1.828c0.269-0.724,0.4-1.531,0.4-2.421
			c0-1.219-0.141-2.191-0.422-2.918s-0.694-1.362-1.239-1.907c-0.463-0.463-0.989-0.803-1.578-1.021
			C86.017,119.294,85.409,119.184,84.782,119.184z M85.23,118.823v0.088c0.568,0.041,1.142,0.174,1.714,0.4
			c0.574,0.226,1.112,0.577,1.613,1.055c0.501,0.478,0.904,1.121,1.208,1.929s0.457,1.781,0.457,2.918
			c0,0.744-0.089,1.456-0.268,2.136c-0.181,0.68-0.468,1.307-0.861,1.881s-0.913,1.049-1.551,1.424
			c-0.64,0.375-1.403,0.606-2.294,0.694v0.097c0.75-0.035,1.462-0.196,2.136-0.483s1.273-0.699,1.797-1.235
			c0.524-0.536,0.939-1.191,1.244-1.964s0.457-1.635,0.457-2.584c0-1.037-0.158-1.953-0.475-2.747
			c-0.317-0.794-0.747-1.455-1.292-1.982c-0.547-0.527-1.15-0.926-1.815-1.195S85.945,118.841,85.23,118.823z"/>
		<path fill="#FFFFFF" d="M92.675,118.841v-0.088h4.438c0.293,0.398,0.674,0.879,1.14,1.441s0.88,1.046,1.244,1.45l3.938,4.377
			c0.521,0.568,0.927,1.008,1.217,1.318s0.667,0.688,1.129,1.134c0.035-0.404,0.061-0.782,0.07-1.134s0.02-0.683,0.02-0.993v-3.797
			c0-1.365-0.067-2.493-0.202-3.384l-2.138-0.325v-0.088h5.229v0.088l-2.136,0.343c-0.111,0.82-0.167,1.869-0.167,3.146v9.633
			h-0.088c-0.896-1.137-1.784-2.2-2.663-3.19l-5.379-5.994c-0.799-0.85-1.479-1.526-2.039-2.03
			c-0.082,0.797-0.123,1.541-0.123,2.232v5.563c0,0.744,0.059,1.632,0.176,2.663l2.23,0.325v0.088h-5.344v-0.088l2.162-0.308
			c0.07-0.422,0.12-1.022,0.149-1.802c0.027-0.78,0.044-1.474,0.044-2.083v-4.307c0-0.51-0.009-1.015-0.026-1.516
			c-0.017-0.501-0.05-0.998-0.097-1.49l-1.169-0.861L92.675,118.841z M95.303,119.078l10.617,11.804v-0.826l-9.879-10.978H95.303z"
			/>
		<path fill="#FFFFFF" d="M108.996,118.753h6.39v0.088l-2.329,0.308c-0.063,0.322-0.119,0.891-0.163,1.705s-0.064,1.506-0.064,2.074
			c0,0.492,0.018,1.099,0.053,1.819c0.854,0.164,2.139,0.246,3.85,0.246c0.852,0,1.646-0.018,2.393-0.053s1.424-0.1,2.039-0.193
			c0.047-0.568,0.068-1.248,0.068-2.039c0-0.469-0.013-0.939-0.04-1.411c-0.025-0.472-0.054-0.851-0.083-1.138
			c-0.027-0.287-0.068-0.63-0.123-1.028l-2.328-0.29v-0.088h6.391v0.088l-1.793,0.29c-0.094,0.434-0.163,1.165-0.207,2.193
			c-0.044,1.028-0.066,2.026-0.066,2.993v2.944c0,1.764,0.091,3.085,0.272,3.964l1.811,0.308v0.088h-6.406v-0.088l2.284-0.308
			c0.164-0.996,0.263-2.089,0.29-3.278c0.014-0.305,0.014-0.675,0-1.112c-0.012-0.437-0.035-0.892-0.068-1.367h-8.298
			c-0.022,0.439-0.034,1.128-0.034,2.065c0,0.557,0.019,1.206,0.057,1.947c0.038,0.741,0.104,1.323,0.198,1.745l2.303,0.308v0.088
			h-6.407v-0.088l1.775-0.308c0.041-0.234,0.085-0.655,0.132-1.261s0.085-1.289,0.114-2.048c0.028-0.759,0.044-1.396,0.044-1.912
			v-3.243c0-0.094-0.009-0.403-0.026-0.927c-0.017-0.524-0.048-1.046-0.092-1.564s-0.089-0.898-0.136-1.138l-1.793-0.29v-0.089
			H108.996z M111.299,119.096v12.182h0.604v-12.182H111.299z M121.468,119.078v12.199h0.615v-12.199H121.468z"/>
		<path fill="#FFFFFF" d="M125.238,118.841v-0.088h9.36l0.22,2.733h-0.141l-0.633-2.145c-0.498-0.035-1.06-0.053-1.681-0.053
			c-1.131,0-2.042,0.079-2.731,0.237c-0.117,0.949-0.176,2.033-0.176,3.252c0,0.762,0.021,1.38,0.068,1.854
			c0.928,0.053,1.517,0.079,1.769,0.079c0.662,0,1.345-0.038,2.048-0.114l0.396-1.494h0.149v3.744h-0.149l-0.411-1.582
			c-0.512-0.059-1.072-0.088-1.688-0.088c-0.773,0-1.477,0.035-2.109,0.105c-0.074,0.68-0.1,1.345-0.068,1.995
			c0.012,0.832,0.024,1.519,0.044,2.061c0.018,0.542,0.05,1.009,0.097,1.402c0.715,0.217,1.652,0.325,2.813,0.325
			c0.668,0,1.229-0.026,1.688-0.079l0.703-2.118h0.123l-0.193,2.751h-9.466v-0.088l2.103-0.308c0.047-0.24,0.089-0.606,0.127-1.099
			s0.07-1.044,0.101-1.657c0.029-0.613,0.05-1.125,0.063-1.538c0.012-0.413,0.018-0.775,0.018-1.085v-2.215
			c0-0.281-0.009-0.681-0.026-1.2c-0.017-0.519-0.044-1.056-0.078-1.613s-0.085-1.113-0.148-1.67L125.238,118.841z M127.91,119.096
			v12.182h0.604v-12.182H127.91z"/>
		<path fill="#FFFFFF" d="M137.754,127.894v-4.896c0-1.09-0.07-2.379-0.211-3.867l-1.837-0.29v-0.088h6.405v0.088l-2.318,0.29
			c-0.061,0.41-0.105,0.902-0.143,1.477c-0.035,0.575-0.064,1.187-0.092,1.837c-0.024,0.65-0.04,1.172-0.04,1.564v3.612
			c0,0.861,0.174,1.554,0.523,2.079c0.349,0.525,0.809,0.895,1.38,1.112c0.571,0.217,1.203,0.325,1.894,0.325
			c1.18,0,2.104-0.299,2.773-0.896c0.671-0.597,1.006-1.564,1.006-2.9v-3.762c0-0.668-0.023-1.458-0.07-2.369
			s-0.104-1.604-0.176-2.079l-2.312-0.29v-0.088h6.372v0.088l-1.793,0.29c-0.082,0.381-0.146,1.015-0.189,1.903
			c-0.044,0.888-0.066,1.633-0.066,2.237v4.263c0,0.662-0.077,1.225-0.235,1.688c-0.158,0.463-0.404,0.861-0.738,1.195
			c-0.229,0.229-0.469,0.422-0.721,0.58s-0.571,0.296-0.958,0.413c-0.389,0.117-0.811,0.202-1.268,0.255
			c-0.457,0.053-1.021,0.079-1.694,0.079c-1.104,0-2.062-0.123-2.874-0.369c-0.814-0.246-1.455-0.656-1.92-1.23
			C137.987,129.571,137.754,128.819,137.754,127.894z M142.764,131.515V131.4c-0.826-0.047-1.548-0.212-2.167-0.497
			c-0.619-0.285-1.102-0.706-1.45-1.266c-0.348-0.56-0.521-1.244-0.521-2.052v-8.508h-0.615v8.815c0,1.084,0.379,1.941,1.138,2.571
			C139.907,131.093,141.111,131.444,142.764,131.515z M143.915,131.4v0.114c0.689-0.041,1.289-0.154,1.793-0.338
			c0.504-0.184,0.921-0.442,1.252-0.773c0.331-0.331,0.579-0.746,0.743-1.244s0.246-1.075,0.246-1.731v-8.35h-0.615v8.332
			c0,1.172-0.271,2.098-0.811,2.777S145.116,131.271,143.915,131.4z"/>
		<path fill="#FFFFFF" d="M153.671,126.382v-2.716c0-0.697-0.023-1.496-0.07-2.395s-0.104-1.607-0.176-2.123l-2.109-0.308v-0.088
			h5.774c1.096,0,1.97,0.218,2.624,0.655c0.654,0.437,1.104,0.935,1.356,1.494c0.254,0.559,0.38,1.042,0.38,1.446
			c0,0.557-0.126,1.053-0.38,1.49c-0.252,0.437-0.58,0.784-0.987,1.042c-0.407,0.258-0.822,0.41-1.244,0.457v0.035
			c0.396,0.158,0.729,0.369,0.993,0.633c0.205,0.205,0.438,0.494,0.703,0.866c0.264,0.372,0.61,0.88,1.046,1.525
			c0.434,0.645,0.78,1.148,1.046,1.512c0.264,0.364,0.507,0.659,0.729,0.888c0.492,0.492,0.979,0.738,1.459,0.738v0.088h-1.527
			c-0.855,0-1.535-0.258-2.039-0.773c-0.199-0.199-0.397-0.435-0.595-0.708c-0.194-0.273-0.507-0.719-0.932-1.34
			c-0.425-0.621-0.782-1.134-1.072-1.538c-0.29-0.404-0.52-0.691-0.688-0.861c-0.252-0.252-0.482-0.42-0.69-0.505
			s-0.514-0.127-0.918-0.127c-0.369,0-0.656,0.021-0.859,0.062c-0.035,0.316-0.055,0.668-0.055,1.055v1.626
			c0,0.686,0.073,1.591,0.222,2.716l2.188,0.308v0.088h-6.53v-0.088l2.065-0.308c0.088-0.592,0.158-1.424,0.211-2.496
			C153.645,127.66,153.671,126.874,153.671,126.382z M153.891,119.096v12.182h0.633v-12.182H153.891z M155.42,122.365v1.441
			c0,0.51,0.018,0.984,0.053,1.424c0.229,0.035,0.562,0.053,0.993,0.053c0.75,0,1.354-0.129,1.813-0.387
			c0.462-0.258,0.788-0.593,0.984-1.006c0.196-0.413,0.294-0.866,0.294-1.358c0-0.486-0.095-0.935-0.286-1.345
			c-0.189-0.41-0.437-0.757-0.736-1.042c-0.303-0.285-0.641-0.504-1.013-0.659c-0.372-0.155-0.735-0.233-1.094-0.233
			c-0.34,0-0.604,0.023-0.8,0.07c-0.053,0.34-0.103,0.826-0.146,1.459C155.441,121.415,155.42,121.943,155.42,122.365z
			 M156.299,118.946v0.088c0.803,0.018,1.475,0.212,2.017,0.584s0.938,0.828,1.184,1.367s0.369,1.072,0.369,1.6
			c0,1.172-0.512,2.019-1.529,2.54l0.053,0.035c0.598-0.152,1.091-0.478,1.481-0.976c0.39-0.498,0.584-1.093,0.584-1.784
			c0-0.539-0.105-1.027-0.316-1.463s-0.497-0.801-0.855-1.094c-0.36-0.293-0.765-0.516-1.208-0.668
			c-0.445-0.152-0.896-0.229-1.347-0.229H156.299z M158.584,126.725l1.907,2.769c0.455,0.65,0.862,1.115,1.222,1.393
			c0.356,0.278,0.779,0.42,1.266,0.426v-0.088c-0.463-0.135-1.058-0.729-1.784-1.784l-1.527-2.197
			c-0.328-0.48-0.638-0.844-0.923-1.09c-0.287-0.246-0.641-0.41-1.057-0.492l-0.035,0.07
			C157.98,125.942,158.291,126.273,158.584,126.725z"/>
	</g>
	<g class="motamitie">
		<path fill="#FFFFFF" d="M171.259,170.03l-9.079,3.806c-1.184,0.492-2.358,1.066-3.524,1.723l-0.308,1.459h-0.088v-6.205h0.088
			l0.308,2.391c0.58-0.088,1.213-0.25,1.896-0.488c0.683-0.238,1.276-0.5,1.78-0.787v-5.511c-0.594-0.234-1.078-0.423-1.459-0.567
			s-0.776-0.281-1.188-0.413s-0.753-0.218-1.028-0.259l-0.308,2.303h-0.088v-4.913h0.088l0.308,1.617
			c0.682,0.393,1.432,0.753,2.25,1.081l10.354,4.069L171.259,170.03L171.259,170.03z M169.528,169.239l-10.925,4.562v0.589
			l11.663-4.86L169.528,169.239z M168.79,169.099c-0.313-0.158-0.767-0.368-1.362-0.628c-0.597-0.26-1.157-0.497-1.679-0.708
			c-0.522-0.211-1.077-0.431-1.666-0.659s-0.979-0.381-1.165-0.457c-0.047,0.346-0.079,0.749-0.099,1.208
			c-0.018,0.459-0.024,0.898-0.024,1.314c0,1.025,0.041,1.866,0.123,2.522c0.662-0.223,1.604-0.601,2.826-1.134
			C166.966,170.024,167.981,169.538,168.79,169.099z"/>
		<path fill="#FFFFFF" d="M171.127,177.22v3.779c-0.703,0.316-1.277,0.586-1.725,0.809c-0.444,0.223-0.967,0.492-1.563,0.809
			l-4.579,2.47c-1.102,0.609-1.928,1.119-2.479,1.529c0.551,0.34,1.533,0.879,2.951,1.617l4.229,2.25
			c1.225,0.645,2.279,1.137,3.164,1.477v3.762h-0.088l-0.325-2.338c-0.518-0.035-1.031-0.053-1.547-0.053
			c-0.539,0-1.644,0.051-3.311,0.154s-3.22,0.227-4.656,0.374c-1.438,0.147-2.287,0.281-2.546,0.404l-0.308,1.617h-0.088v-6.029
			h0.088l0.308,2.092c0.445,0.047,1.048,0.07,1.804,0.07c0.416,0,0.959-0.015,1.63-0.044c0.671-0.029,1.439-0.075,2.312-0.136
			s1.676-0.136,2.413-0.224c0.739-0.088,1.236-0.17,1.494-0.246c-0.438-0.275-0.943-0.563-1.512-0.861l-6.407-3.419
			c-1.049-0.539-1.799-0.899-2.25-1.081v-0.123c0.271-0.123,0.7-0.334,1.292-0.633s1.055-0.539,1.389-0.721l5.311-2.865
			c0.9-0.486,1.623-0.888,2.162-1.204c-0.234-0.041-0.77-0.103-1.602-0.185s-1.732-0.16-2.707-0.233
			c-0.973-0.073-1.802-0.129-2.485-0.167c-0.687-0.038-1.227-0.057-1.617-0.057c-0.275,0-0.677,0.012-1.204,0.035l-0.325,1.67
			h-0.088v-4.315h0.088l0.325,1.67c0.246,0.082,1.058,0.193,2.435,0.334s2.793,0.264,4.25,0.369s2.511,0.158,3.16,0.158
			c0.229,0,0.583-0.012,1.063-0.035c0.352-0.17,0.729-0.498,1.134-0.984l0.325-1.494h0.085L171.127,177.22L171.127,177.22z
			 M170.213,192.214l-1.028-0.51l-10.582,0.773v0.633l11.61-0.861V192.214z M170.785,179.408l-11.733,6.354l0.598,0.308
			l11.138-6.047L170.785,179.408L170.785,179.408z"/>
		<path fill="#FFFFFF" d="M158.26,202.866v-6.645h0.088l0.325,2.145c0.73,0.1,1.616,0.174,2.648,0.224
			c1.034,0.05,2.048,0.075,3.037,0.075h1.479c2.01,0,3.642-0.088,4.896-0.264l0.31-2.18h0.088v6.645h-0.088l-0.31-2.197
			c-0.566-0.063-1.083-0.11-1.542-0.142c-0.459-0.029-1.017-0.055-1.67-0.078c-0.651-0.023-1.267-0.035-1.841-0.035h-1.942
			c-0.355,0-0.94,0.013-1.753,0.04c-0.811,0.027-1.499,0.062-2.061,0.104c-0.563,0.043-0.984,0.086-1.268,0.127l-0.308,2.181H158.26
			z M170.785,198.902h-12.184v0.615h12.184V198.902z"/>
		<path fill="#FFFFFF" d="M171.127,204.984v7.629c0,0.463,0.013,0.888,0.04,1.272c0.025,0.388,0.067,0.886,0.127,1.494l-2.85,0.202
			v-0.104l2.074-0.65c0.094-0.533,0.143-1.09,0.143-1.67c0-0.498-0.026-0.952-0.079-1.362c-0.055-0.41-0.143-0.853-0.266-1.327
			c-0.545-0.047-1.069-0.082-1.578-0.104c-0.507-0.023-0.976-0.041-1.404-0.055c-0.432-0.012-0.727-0.018-0.883-0.018h-2.918
			c-0.77,0-1.629,0.025-2.58,0.079c-0.953,0.053-1.712,0.116-2.281,0.192l-0.325,2.172h-0.088V206.1h0.088l0.325,2.137
			c1.295,0.183,2.862,0.271,4.702,0.271h3.182c0.656,0,1.304-0.015,1.942-0.044c0.638-0.028,1.245-0.079,1.817-0.149
			c0.096-0.34,0.168-0.733,0.226-1.187c0.056-0.452,0.089-0.879,0.101-1.283c0-0.639-0.053-1.269-0.158-1.89l-2.092-0.633V203.2
			l2.883,0.192c-0.012,0.176-0.04,0.432-0.083,0.766S171.127,204.768,171.127,204.984z M170.802,208.781h-12.199v0.589h12.199
			V208.781z"/>
		<path fill="#FFFFFF" d="M158.26,222.738v-6.646h0.088l0.325,2.146c0.73,0.1,1.616,0.174,2.648,0.225
			c1.034,0.049,2.048,0.074,3.037,0.074h1.479c2.01,0,3.642-0.088,4.896-0.264l0.31-2.182h0.088v6.646h-0.088l-0.31-2.197
			c-0.566-0.064-1.083-0.111-1.542-0.141c-0.459-0.03-1.017-0.058-1.67-0.08c-0.651-0.022-1.267-0.034-1.841-0.034h-1.942
			c-0.355,0-0.94,0.013-1.753,0.04c-0.812,0.025-1.499,0.061-2.061,0.105c-0.563,0.043-0.984,0.086-1.268,0.127l-0.308,2.18H158.26
			L158.26,222.738z M170.785,218.773h-12.184v0.615h12.184V218.773z"/>
		<path fill="#FFFFFF" d="M171.04,222.889h0.088v9.359l-2.733,0.22v-0.141l2.146-0.634c0.035-0.498,0.053-1.059,0.053-1.678
			c0-1.133-0.079-2.043-0.237-2.733c-0.948-0.117-2.033-0.177-3.252-0.177c-0.762,0-1.38,0.022-1.854,0.069
			c-0.055,0.927-0.079,1.517-0.079,1.769c0,0.662,0.038,1.345,0.114,2.048l1.492,0.396v0.149h-3.742v-0.149l1.582-0.412
			c0.059-0.511,0.088-1.072,0.088-1.688c0-0.771-0.035-1.479-0.105-2.109c-0.68-0.074-1.345-0.1-1.995-0.068
			c-0.832,0.012-1.519,0.024-2.061,0.043s-1.009,0.051-1.402,0.098c-0.217,0.715-0.325,1.652-0.325,2.813
			c0,0.668,0.026,1.23,0.079,1.688l2.118,0.703v0.123l-2.751-0.193v-9.466h0.088l0.31,2.102c0.238,0.047,0.604,0.088,1.099,0.127
			c0.492,0.037,1.044,0.071,1.657,0.103c0.611,0.028,1.125,0.05,1.538,0.063c0.412,0.012,0.773,0.018,1.085,0.018h2.215
			c0.281,0,0.681-0.01,1.2-0.025c0.519-0.018,1.056-0.045,1.611-0.08c0.559-0.035,1.113-0.084,1.67-0.147L171.04,222.889z
			 M170.785,225.561h-12.184v0.605h12.184V225.561z M173.527,228.258v1.838l-1.591-3.813v-0.222L173.527,228.258z"/>
	</g>
	<g class="motsucces">
		<path fill="#FFFFFF" d="M70.477,174.875l0.668,2.162c0.334,0.152,0.727,0.275,1.173,0.369c0.448,0.094,0.836,0.138,1.165,0.132
			c0.439,0,0.844-0.076,1.208-0.229c0.366-0.153,0.665-0.346,0.896-0.58c0.229-0.234,0.409-0.499,0.532-0.796
			c0.123-0.295,0.185-0.584,0.185-0.865c0-0.58-0.196-1.069-0.589-1.468c-0.395-0.399-1.05-0.908-1.973-1.529
			c-0.925-0.621-1.594-1.14-2.01-1.556c-0.355-0.369-0.624-0.739-0.8-1.111c-0.176-0.372-0.264-0.787-0.264-1.244
			c0-0.504,0.138-1.005,0.413-1.503c0.273-0.498,0.7-0.912,1.272-1.243c0.574-0.331,1.28-0.497,2.118-0.497
			c0.381,0,0.785,0.02,1.213,0.058c0.429,0.038,0.726,0.057,0.89,0.057c0.141-0.006,0.271-0.01,0.396-0.014
			c0.123-0.002,0.221-0.008,0.294-0.018c0.073-0.008,0.151-0.019,0.233-0.03l0.053,3.006h-0.114l-0.554-2.03
			c-0.814-0.357-1.523-0.536-2.127-0.536c-0.504,0-0.957,0.096-1.358,0.286c-0.399,0.19-0.713,0.451-0.936,0.781
			c-0.224,0.332-0.334,0.705-0.334,1.121c0,0.434,0.147,0.83,0.448,1.191c0.299,0.359,0.708,0.713,1.226,1.059
			c0.518,0.346,1.075,0.712,1.67,1.099c0.595,0.387,1.071,0.759,1.428,1.116c0.697,0.697,1.046,1.503,1.046,2.417
			c0,0.516-0.135,1.048-0.402,1.595c-0.271,0.549-0.726,1.013-1.362,1.394c-0.638,0.381-1.465,0.571-2.479,0.571
			c-0.357,0-0.792-0.021-1.307-0.062c-0.513-0.041-0.889-0.062-1.129-0.062c-0.109,0-0.198,0.003-0.259,0.009
			c-0.063,0.006-0.157,0.015-0.286,0.026c-0.129,0.011-0.205,0.018-0.229,0.018l-0.143-3.094H70.477z M74.774,165.102h-0.279
			c-0.646,0-1.239,0.129-1.784,0.387c-0.545,0.258-0.978,0.624-1.292,1.099c-0.316,0.475-0.477,1.011-0.477,1.608
			c0,0.744,0.325,1.441,0.978,2.092c0.287,0.275,0.555,0.507,0.804,0.694s0.625,0.452,1.129,0.796
			c0.504,0.342,0.907,0.623,1.208,0.844c0.302,0.219,0.549,0.429,0.743,0.628c0.527,0.527,0.791,1.116,0.791,1.767
			c0,0.445-0.122,0.875-0.365,1.287c-0.243,0.414-0.595,0.751-1.055,1.012c-0.46,0.261-1,0.394-1.622,0.399v0.097
			c0.715,0.023,1.352-0.103,1.912-0.378c0.56-0.275,0.987-0.639,1.283-1.09c0.296-0.451,0.442-0.917,0.442-1.396
			c0-0.416-0.065-0.794-0.202-1.134c-0.135-0.34-0.381-0.688-0.736-1.046c-0.205-0.205-0.574-0.49-1.107-0.857
			c-0.533-0.365-1.072-0.734-1.617-1.107c-0.545-0.371-0.941-0.678-1.193-0.918c-0.615-0.609-0.923-1.28-0.923-2.013
			c0-0.645,0.278-1.245,0.839-1.802c0.559-0.557,1.4-0.85,2.525-0.879L74.774,165.102L74.774,165.102z"/>
		<path fill="#FFFFFF" d="M80.751,174.225v-4.896c0-1.09-0.07-2.379-0.211-3.867l-1.837-0.29v-0.088h6.405v0.088l-2.318,0.29
			c-0.061,0.41-0.105,0.902-0.143,1.477c-0.036,0.575-0.064,1.187-0.092,1.837s-0.04,1.172-0.04,1.564v3.612
			c0,0.861,0.174,1.555,0.523,2.079c0.349,0.524,0.809,0.895,1.38,1.111c0.571,0.216,1.203,0.325,1.894,0.325
			c1.18,0,2.104-0.299,2.773-0.896c0.671-0.597,1.006-1.564,1.006-2.9v-3.762c0-0.668-0.023-1.457-0.07-2.368
			s-0.104-1.604-0.176-2.079l-2.312-0.29v-0.088h6.371v0.088l-1.794,0.29c-0.081,0.381-0.145,1.015-0.188,1.903
			c-0.044,0.887-0.066,1.633-0.066,2.236v4.263c0,0.662-0.079,1.225-0.235,1.688c-0.158,0.463-0.404,0.861-0.738,1.195
			c-0.229,0.229-0.469,0.422-0.721,0.58c-0.252,0.158-0.571,0.296-0.958,0.413c-0.389,0.117-0.811,0.202-1.268,0.255
			c-0.457,0.053-1.021,0.079-1.694,0.079c-1.104,0-2.062-0.123-2.874-0.369c-0.814-0.246-1.455-0.656-1.92-1.23
			C80.984,175.901,80.751,175.15,80.751,174.225z M85.761,177.846v-0.114c-0.826-0.047-1.548-0.212-2.167-0.497
			c-0.618-0.283-1.102-0.705-1.45-1.266c-0.349-0.559-0.521-1.243-0.521-2.052v-8.508h-0.615v8.815c0,1.084,0.379,1.941,1.138,2.57
			C82.903,177.426,84.108,177.775,85.761,177.846z M86.912,177.731v0.114c0.689-0.041,1.289-0.154,1.793-0.338
			c0.504-0.186,0.921-0.442,1.252-0.773s0.579-0.746,0.743-1.244c0.162-0.498,0.244-1.075,0.244-1.731v-8.35h-0.613v8.332
			c0,1.172-0.271,2.098-0.811,2.777C88.983,177.197,88.113,177.603,86.912,177.731z"/>
		<path fill="#FFFFFF" d="M107.329,175.578l-1.303,2.408c-0.563-0.047-0.97-0.07-1.222-0.07c-0.311,0-0.729,0.023-1.257,0.07
			c-0.528,0.047-0.938,0.07-1.23,0.07c-1.184,0-2.229-0.183-3.142-0.549c-0.911-0.366-1.663-0.861-2.254-1.486
			c-0.592-0.623-1.031-1.312-1.318-2.064s-0.431-1.517-0.431-2.29c0-0.99,0.168-1.903,0.505-2.737
			c0.337-0.836,0.813-1.553,1.428-2.154c0.615-0.6,1.333-1.06,2.153-1.379s1.702-0.479,2.646-0.479c0.246,0,0.401,0.002,0.468,0.005
			c0.063,0.003,0.205,0.008,0.422,0.018c0.217,0.008,0.437,0.019,0.659,0.03c0.791,0.053,1.396,0.079,1.817,0.079
			c0.938,0,1.55-0.026,1.837-0.079l0.105,2.953h-0.105l-0.589-1.96c-0.176-0.041-0.484-0.1-0.932-0.176s-0.88-0.138-1.305-0.185
			c-0.427-0.047-0.869-0.07-1.332-0.07c-1.207,0-2.24,0.241-3.1,0.726c-0.856,0.482-1.504,1.168-1.938,2.057
			c-0.436,0.887-0.65,1.908-0.65,3.063c0,0.896,0.155,1.722,0.466,2.475c0.313,0.753,0.744,1.395,1.302,1.924
			c0.558,0.531,1.19,0.934,1.902,1.209c0.712,0.275,1.463,0.413,2.254,0.413c0.785,0,1.521-0.133,2.206-0.399
			c0.687-0.266,1.298-0.752,1.837-1.455L107.329,175.578z M103.348,165.119h-1.028c-1.02,0-1.956,0.169-2.808,0.506
			s-1.573,0.806-2.162,1.406c-0.589,0.6-1.036,1.293-1.34,2.078c-0.304,0.785-0.457,1.626-0.457,2.522
			c0,0.82,0.157,1.604,0.47,2.351c0.313,0.748,0.776,1.413,1.391,1.996c0.611,0.583,1.343,1.037,2.191,1.361
			c0.852,0.326,1.799,0.488,2.85,0.488c0.469,0,0.768-0.006,0.896-0.018v-0.114c-1.166,0.023-2.205-0.13-3.116-0.462
			c-0.91-0.33-1.663-0.793-2.254-1.389c-0.592-0.594-1.033-1.267-1.321-2.017c-0.29-0.75-0.437-1.512-0.437-2.285
			c0-0.762,0.126-1.512,0.378-2.25s0.641-1.415,1.165-2.03c0.525-0.615,1.203-1.104,2.035-1.473
			c0.832-0.365,1.811-0.549,2.936-0.549h0.615v-0.121H103.348z"/>
		<path fill="#FFFFFF" d="M127.438,165.172v-0.088h9.36l0.22,2.733h-0.141l-0.633-2.145c-0.498-0.035-1.06-0.053-1.681-0.053
			c-1.131,0-2.042,0.079-2.731,0.237c-0.117,0.949-0.178,2.033-0.178,3.252c0,0.762,0.023,1.38,0.07,1.854
			c0.926,0.053,1.517,0.079,1.769,0.079c0.66,0,1.345-0.038,2.048-0.114l0.396-1.494h0.149v3.744h-0.149l-0.413-1.582
			c-0.51-0.059-1.07-0.088-1.688-0.088c-0.773,0-1.479,0.035-2.109,0.105c-0.076,0.68-0.1,1.345-0.068,1.995
			c0.012,0.832,0.024,1.52,0.044,2.061c0.018,0.543,0.05,1.01,0.097,1.402c0.715,0.217,1.652,0.325,2.813,0.325
			c0.669,0,1.23-0.026,1.688-0.079l0.703-2.118h0.123l-0.193,2.751h-9.466v-0.088l2.101-0.308c0.049-0.24,0.091-0.604,0.127-1.099
			c0.038-0.493,0.072-1.044,0.103-1.656c0.029-0.612,0.05-1.125,0.062-1.539c0.014-0.412,0.02-0.774,0.02-1.085v-2.215
			c0-0.281-0.009-0.681-0.026-1.2c-0.018-0.518-0.044-1.056-0.079-1.612c-0.034-0.556-0.085-1.113-0.147-1.67L127.438,165.172z
			 M130.11,165.427v12.182h0.606v-12.182H130.11z M130.4,162.685h1.76l2.23,1.591h-0.193L130.4,162.685z"/>
		<path fill="#FFFFFF" d="M138.302,174.875l0.668,2.162c0.334,0.152,0.725,0.275,1.173,0.369c0.448,0.094,0.836,0.138,1.165,0.132
			c0.439,0,0.842-0.076,1.208-0.229s0.665-0.346,0.896-0.58c0.229-0.234,0.407-0.499,0.53-0.796
			c0.123-0.295,0.187-0.584,0.187-0.865c0-0.58-0.196-1.069-0.589-1.468c-0.395-0.399-1.052-0.908-1.975-1.529
			c-0.923-0.621-1.592-1.14-2.008-1.556c-0.355-0.369-0.624-0.739-0.8-1.111c-0.176-0.372-0.264-0.787-0.264-1.244
			c0-0.504,0.138-1.005,0.411-1.503c0.275-0.498,0.7-0.912,1.274-1.243s1.28-0.497,2.118-0.497c0.381,0,0.785,0.02,1.213,0.058
			s0.724,0.057,0.888,0.057c0.143-0.006,0.272-0.01,0.396-0.014c0.123-0.002,0.221-0.008,0.294-0.018
			c0.073-0.008,0.15-0.019,0.231-0.03l0.055,3.006h-0.114l-0.554-2.03c-0.814-0.357-1.523-0.536-2.127-0.536
			c-0.504,0-0.957,0.096-1.358,0.286s-0.713,0.451-0.936,0.781c-0.225,0.332-0.334,0.705-0.334,1.121
			c0,0.434,0.147,0.83,0.446,1.191c0.301,0.359,0.708,0.713,1.228,1.059c0.518,0.346,1.075,0.712,1.67,1.099
			c0.595,0.387,1.071,0.759,1.428,1.116c0.697,0.697,1.046,1.503,1.046,2.417c0,0.516-0.135,1.048-0.402,1.595
			c-0.271,0.549-0.726,1.013-1.362,1.394c-0.638,0.381-1.465,0.571-2.479,0.571c-0.355,0-0.792-0.021-1.305-0.062
			s-0.889-0.062-1.129-0.062c-0.111,0-0.198,0.003-0.259,0.009c-0.063,0.006-0.157,0.015-0.286,0.026
			c-0.129,0.011-0.205,0.018-0.229,0.018l-0.141-3.094H138.302z M142.6,165.102h-0.281c-0.645,0-1.237,0.129-1.782,0.387
			c-0.545,0.258-0.978,0.624-1.292,1.099c-0.316,0.475-0.477,1.011-0.477,1.608c0,0.744,0.325,1.441,0.978,2.092
			c0.285,0.275,0.555,0.507,0.804,0.694s0.625,0.452,1.129,0.796c0.504,0.342,0.907,0.623,1.208,0.844
			c0.302,0.219,0.549,0.429,0.743,0.628c0.525,0.527,0.791,1.116,0.791,1.767c0,0.445-0.122,0.875-0.365,1.287
			c-0.243,0.414-0.595,0.751-1.055,1.012c-0.46,0.261-1,0.394-1.622,0.399v0.097c0.715,0.023,1.352-0.103,1.912-0.378
			c0.56-0.275,0.985-0.639,1.281-1.09c0.298-0.451,0.444-0.917,0.444-1.396c0-0.416-0.065-0.794-0.202-1.134
			c-0.135-0.34-0.381-0.688-0.736-1.046c-0.205-0.205-0.574-0.49-1.107-0.857c-0.533-0.365-1.072-0.734-1.617-1.107
			c-0.545-0.371-0.941-0.678-1.194-0.918c-0.614-0.609-0.924-1.28-0.924-2.013c0-0.645,0.28-1.245,0.84-1.802
			c0.56-0.557,1.401-0.85,2.526-0.879L142.6,165.102L142.6,165.102z"/>
	</g>
	<g class="motpaix">
		<path fill="#FFFFFF" d="M148.664,184.138v6.1c0,0.979-0.089,1.743-0.27,2.294c-0.179,0.551-0.445,1.005-0.804,1.362
			c-0.299,0.299-0.667,0.529-1.104,0.69c-0.436,0.161-0.886,0.242-1.349,0.242c-0.69,0-1.332-0.18-1.92-0.541
			c-0.588-0.361-1.061-0.867-1.415-1.521c-0.354-0.654-0.532-1.399-0.532-2.237c0-0.662,0.055-1.263,0.158-1.802h0.088
			c-0.012,0.123-0.018,0.311-0.018,0.563c0,0.656,0.111,1.264,0.338,1.824c0.225,0.56,0.577,1.009,1.055,1.349
			c0.479,0.34,1.077,0.51,1.797,0.51c0.838,0,1.626-0.261,2.364-0.782s1.107-1.292,1.107-2.312c0-0.492-0.049-0.929-0.143-1.31
			c-0.232-0.041-0.815-0.085-1.749-0.132c-0.932-0.047-1.585-0.07-1.96-0.07h-4.19c-0.178,0-0.573,0.013-1.191,0.04
			c-0.618,0.027-1.153,0.054-1.604,0.083c-0.45,0.029-0.828,0.073-1.135,0.132l-0.324,2.197l-0.104-0.097v-6.583l0.123,0.035
			l0.308,2.127c0.492,0.064,1.016,0.114,1.564,0.149c0.55,0.035,1.214,0.066,1.991,0.092c0.775,0.026,1.354,0.04,1.734,0.04h2.109
			c0.744,0,1.578-0.023,2.5-0.07c0.922-0.047,1.642-0.104,2.158-0.176l0.308-2.18L148.664,184.138z M148.33,186.819h-12.208v0.615
			h12.208V186.819L148.33,186.819z M148.453,190.343v-0.316h-0.088c-0.035,0.662-0.226,1.241-0.567,1.736
			c-0.343,0.495-0.787,0.869-1.332,1.121s-1.131,0.378-1.758,0.378c-0.715,0-1.309-0.152-1.775-0.457
			c-0.468-0.305-0.809-0.668-1.02-1.09c-0.211-0.422-0.337-0.841-0.378-1.257h-0.105v0.158c0,0.328,0.089,0.746,0.27,1.252
			c0.179,0.506,0.521,0.971,1.031,1.393c0.512,0.422,1.216,0.633,2.118,0.633c0.559,0,1.113-0.114,1.67-0.343
			c0.559-0.229,1.02-0.611,1.384-1.147C148.269,191.868,148.453,191.181,148.453,190.343z"/>
		<path fill="#FFFFFF" d="M148.76,201.338l-9.079,3.807c-1.184,0.492-2.358,1.066-3.522,1.725l-0.31,1.459h-0.088v-6.205h0.088
			l0.31,2.393c0.578-0.09,1.211-0.252,1.894-0.488c0.683-0.237,1.276-0.5,1.78-0.787v-5.51c-0.594-0.234-1.078-0.423-1.459-0.567
			s-0.776-0.281-1.188-0.413s-0.753-0.218-1.026-0.259l-0.31,2.303h-0.088v-4.913h0.088l0.31,1.617
			c0.68,0.393,1.43,0.753,2.25,1.081l10.354,4.069L148.76,201.338L148.76,201.338z M147.029,200.547l-10.925,4.563v0.589
			l11.663-4.86L147.029,200.547z M146.291,200.407c-0.313-0.158-0.767-0.368-1.362-0.628c-0.597-0.26-1.157-0.497-1.679-0.708
			c-0.522-0.211-1.077-0.431-1.666-0.659s-0.979-0.381-1.165-0.457c-0.047,0.346-0.079,0.749-0.099,1.208
			c-0.018,0.459-0.024,0.898-0.024,1.314c0,1.025,0.041,1.867,0.123,2.523c0.662-0.223,1.604-0.602,2.826-1.135
			C144.467,201.332,145.482,200.846,146.291,200.407z"/>
		<path fill="#FFFFFF" d="M135.761,215.242v-6.645h0.088l0.325,2.145c0.73,0.1,1.616,0.175,2.65,0.225
			c1.032,0.051,2.046,0.074,3.035,0.074h1.479c2.01,0,3.642-0.088,4.896-0.264l0.31-2.18h0.088v6.645h-0.088l-0.31-2.197
			c-0.566-0.064-1.083-0.111-1.542-0.141c-0.459-0.03-1.017-0.055-1.67-0.078c-0.651-0.023-1.267-0.035-1.841-0.035h-1.942
			c-0.355,0-0.94,0.014-1.753,0.039c-0.811,0.025-1.499,0.063-2.061,0.105c-0.563,0.043-0.984,0.086-1.266,0.127l-0.31,2.18H135.761
			z M148.286,211.279h-12.184v0.615h12.184V211.279z"/>
		<path fill="#FFFFFF" d="M148.628,215.418v7.357h-0.088l-0.29-2.805c-0.492,0.314-0.934,0.609-1.318,0.883
			c-0.386,0.272-0.784,0.57-1.189,0.896c-0.407,0.325-0.838,0.683-1.288,1.065c-0.452,0.388-0.914,0.785-1.391,1.195
			c0.471,0.457,1.044,0.986,1.729,1.588c0.683,0.602,1.323,1.135,1.92,1.604c0.597,0.468,1.108,0.834,1.538,1.098l0.29-2.68h0.088
			v5.879h-0.088l-0.272-2.063c-0.34-0.369-0.771-0.789-1.296-1.263c-0.524-0.472-1.104-0.971-1.74-1.498
			c-0.636-0.526-1.204-0.983-1.705-1.37c-0.501-0.388-0.861-0.647-1.085-0.783c-0.469,0.353-1.062,0.813-1.778,1.381
			c-0.72,0.568-1.353,1.08-1.898,1.537s-1.052,0.896-1.512,1.312s-0.831,0.781-1.112,1.099l-0.29,1.635h-0.088v-7.146h0.088
			l0.31,2.795c0.813-0.479,1.711-1.112,2.688-1.895c0.979-0.783,1.869-1.544,2.672-2.281c-0.615-0.599-1.254-1.181-1.916-1.748
			s-1.296-1.088-1.901-1.558c-0.607-0.469-1.121-0.844-1.542-1.125l-0.31,2.683h-0.088v-5.836h0.088l0.31,2.021
			c0.818,0.838,1.816,1.744,2.991,2.722c1.177,0.976,2.177,1.759,3.001,2.351c0.758-0.566,1.509-1.148,2.255-1.742
			c0.746-0.597,1.48-1.199,2.201-1.814c0.723-0.615,1.271-1.125,1.646-1.529l0.29-1.961h0.084V215.418z M148.33,217.844
			l-12.228,9.959v0.711l12.228-9.932V217.844z"/>
	</g>
	<g class="motsatisfaction">
		<path fill="#FFFFFF" d="M220.613,141.154l0.668,2.162c0.336,0.152,0.727,0.275,1.176,0.369c0.445,0.094,0.836,0.138,1.164,0.132
			c0.438,0,0.842-0.076,1.209-0.229c0.363-0.152,0.664-0.346,0.896-0.58c0.23-0.234,0.408-0.499,0.531-0.796
			c0.123-0.295,0.185-0.584,0.185-0.865c0-0.58-0.194-1.069-0.589-1.468c-0.393-0.399-1.051-0.908-1.973-1.529
			c-0.924-0.621-1.593-1.14-2.009-1.556c-0.357-0.369-0.624-0.739-0.802-1.111c-0.176-0.372-0.264-0.787-0.264-1.244
			c0-0.504,0.138-1.005,0.413-1.503s0.7-0.912,1.274-1.243c0.572-0.331,1.278-0.497,2.116-0.497c0.381,0,0.785,0.02,1.213,0.058
			c0.43,0.038,0.726,0.057,0.89,0.057c0.141-0.006,0.271-0.01,0.396-0.014c0.123-0.002,0.224-0.008,0.294-0.018
			c0.074-0.008,0.151-0.019,0.233-0.03l0.053,3.006h-0.114l-0.554-2.03c-0.813-0.357-1.521-0.536-2.127-0.536
			c-0.504,0-0.956,0.096-1.356,0.286s-0.715,0.451-0.938,0.781c-0.223,0.332-0.334,0.705-0.334,1.121
			c0,0.434,0.149,0.83,0.448,1.191c0.299,0.359,0.708,0.713,1.226,1.059c0.521,0.346,1.076,0.712,1.67,1.099
			c0.598,0.387,1.071,0.759,1.431,1.116c0.695,0.697,1.046,1.503,1.046,2.417c0,0.516-0.137,1.048-0.404,1.595
			c-0.27,0.549-0.724,1.013-1.362,1.394c-0.638,0.381-1.465,0.571-2.479,0.571c-0.357,0-0.792-0.021-1.308-0.062
			c-0.512-0.041-0.889-0.062-1.129-0.062c-0.109,0-0.195,0.003-0.26,0.009c-0.061,0.006-0.156,0.015-0.285,0.026
			s-0.205,0.018-0.229,0.018l-0.143-3.094L220.613,141.154L220.613,141.154z M224.911,131.381h-0.281
			c-0.646,0-1.239,0.129-1.784,0.387c-0.545,0.258-0.976,0.624-1.292,1.099c-0.316,0.475-0.475,1.011-0.475,1.608
			c0,0.744,0.323,1.441,0.976,2.092c0.287,0.275,0.555,0.507,0.805,0.694c0.248,0.188,0.625,0.452,1.129,0.796
			c0.506,0.342,0.906,0.623,1.209,0.844c0.303,0.219,0.551,0.429,0.742,0.628c0.527,0.527,0.791,1.116,0.791,1.767
			c0,0.445-0.121,0.875-0.365,1.287c-0.24,0.414-0.594,0.751-1.055,1.012c-0.459,0.261-1,0.396-1.621,0.399v0.097
			c0.715,0.023,1.354-0.103,1.912-0.378c0.56-0.275,0.986-0.639,1.283-1.09c0.295-0.451,0.443-0.917,0.443-1.397
			c0-0.416-0.067-0.794-0.202-1.134c-0.135-0.34-0.381-0.688-0.738-1.046c-0.205-0.205-0.574-0.49-1.107-0.857
			c-0.531-0.365-1.07-0.734-1.615-1.107c-0.545-0.371-0.943-0.678-1.195-0.918c-0.615-0.609-0.923-1.28-0.923-2.013
			c0-0.645,0.279-1.245,0.84-1.802c0.559-0.557,1.401-0.85,2.526-0.879L224.911,131.381L224.911,131.381z"/>
		<path fill="#FFFFFF" d="M236.196,131.231l3.808,9.079c0.492,1.184,1.064,2.358,1.723,3.524l1.459,0.308v0.088h-6.205v-0.088
			l2.393-0.308c-0.088-0.58-0.25-1.211-0.488-1.894c-0.236-0.683-0.499-1.276-0.786-1.78h-5.511
			c-0.234,0.592-0.424,1.078-0.566,1.459c-0.145,0.381-0.28,0.776-0.414,1.187c-0.131,0.41-0.218,0.753-0.259,1.028l2.303,0.308
			v0.088h-4.913v-0.088l1.617-0.308c0.395-0.68,0.753-1.43,1.081-2.25l4.069-10.354L236.196,131.231L236.196,131.231z
			 M235.265,133.701c-0.158,0.311-0.368,0.765-0.628,1.362c-0.262,0.598-0.497,1.157-0.708,1.679
			c-0.211,0.522-0.431,1.076-0.659,1.666c-0.229,0.588-0.381,0.977-0.457,1.164c0.348,0.047,0.748,0.079,1.209,0.097
			c0.459,0.018,0.897,0.026,1.313,0.026c1.023,0,1.866-0.041,2.521-0.123c-0.223-0.662-0.601-1.604-1.134-2.826
			C236.19,135.525,235.704,134.51,235.265,133.701z M235.405,132.963l4.563,10.925h0.589l-4.86-11.663L235.405,132.963z"/>
		<path fill="#FFFFFF" d="M244.142,131.363h7.629c0.463,0,0.89-0.014,1.274-0.039c0.387-0.027,0.885-0.069,1.494-0.128l0.202,2.848
			h-0.105l-0.65-2.074c-0.531-0.094-1.09-0.141-1.67-0.141c-0.498,0-0.952,0.026-1.36,0.079c-0.41,0.053-0.854,0.141-1.327,0.264
			c-0.047,0.545-0.082,1.071-0.105,1.578c-0.021,0.507-0.041,0.975-0.053,1.406c-0.012,0.43-0.018,0.725-0.018,0.883v2.918
			c0,0.768,0.024,1.628,0.077,2.58c0.055,0.952,0.117,1.712,0.193,2.28l2.171,0.325v0.088h-6.636v-0.088l2.136-0.325
			c0.184-1.295,0.272-2.862,0.272-4.702v-3.182c0-0.656-0.017-1.304-0.044-1.942c-0.029-0.638-0.079-1.245-0.149-1.819
			c-0.34-0.094-0.735-0.168-1.187-0.225c-0.451-0.055-0.879-0.089-1.283-0.101c-0.641,0-1.271,0.053-1.892,0.158l-0.633,2.092
			h-0.123l0.193-2.883c0.176,0.012,0.431,0.04,0.765,0.083C243.649,131.342,243.925,131.363,244.142,131.363z M247.938,131.688
			v12.199h0.589v-12.199H247.938z"/>
		<path fill="#FFFFFF" d="M261.896,144.23h-6.645v-0.088l2.145-0.325c0.102-0.732,0.175-1.615,0.226-2.649s0.073-2.047,0.073-3.037
			v-1.477c0-2.01-0.088-3.642-0.264-4.896l-2.18-0.308v-0.088h6.645v0.088l-2.195,0.308c-0.064,0.568-0.111,1.083-0.143,1.542
			c-0.029,0.461-0.056,1.018-0.079,1.67c-0.021,0.654-0.035,1.27-0.035,1.842v1.942c0,0.357,0.016,0.942,0.039,1.753
			c0.027,0.813,0.063,1.499,0.105,2.062c0.045,0.563,0.087,0.984,0.128,1.266l2.18,0.308V144.23L261.896,144.23z M257.932,131.706
			v12.182h0.615v-12.182H257.932z"/>
		<path fill="#FFFFFF" d="M262.59,141.154l0.668,2.162c0.334,0.152,0.725,0.275,1.174,0.369c0.447,0.094,0.836,0.138,1.164,0.132
			c0.439,0,0.842-0.076,1.209-0.229c0.365-0.152,0.664-0.346,0.896-0.58c0.229-0.234,0.406-0.499,0.529-0.796
			c0.123-0.295,0.187-0.584,0.187-0.865c0-0.58-0.196-1.069-0.589-1.468c-0.395-0.399-1.053-0.908-1.975-1.529
			c-0.924-0.621-1.593-1.14-2.009-1.556c-0.355-0.369-0.624-0.739-0.8-1.111s-0.264-0.787-0.264-1.244
			c0-0.504,0.138-1.005,0.411-1.503c0.275-0.498,0.7-0.912,1.274-1.243s1.28-0.497,2.118-0.497c0.381,0,0.785,0.02,1.213,0.058
			s0.724,0.057,0.888,0.057c0.143-0.006,0.272-0.01,0.396-0.014c0.123-0.002,0.222-0.008,0.294-0.018
			c0.074-0.008,0.149-0.019,0.231-0.03l0.055,3.006h-0.114l-0.554-2.03c-0.814-0.357-1.523-0.536-2.127-0.536
			c-0.505,0-0.956,0.096-1.358,0.286c-0.4,0.19-0.713,0.451-0.937,0.781c-0.224,0.332-0.334,0.705-0.334,1.121
			c0,0.434,0.148,0.83,0.447,1.191c0.299,0.359,0.708,0.713,1.228,1.059c0.52,0.346,1.075,0.712,1.67,1.099
			c0.596,0.387,1.07,0.759,1.429,1.116c0.697,0.697,1.046,1.503,1.046,2.417c0,0.516-0.135,1.048-0.403,1.595
			c-0.271,0.549-0.725,1.013-1.361,1.394c-0.638,0.381-1.465,0.571-2.479,0.571c-0.355,0-0.792-0.021-1.306-0.062
			c-0.512-0.041-0.889-0.062-1.129-0.062c-0.111,0-0.197,0.003-0.26,0.009s-0.156,0.015-0.285,0.026s-0.205,0.018-0.229,0.018
			l-0.141-3.094L262.59,141.154L262.59,141.154z M266.888,131.381h-0.281c-0.645,0-1.237,0.129-1.784,0.387
			c-0.545,0.258-0.976,0.624-1.292,1.099c-0.314,0.475-0.475,1.011-0.475,1.608c0,0.744,0.325,1.441,0.978,2.092
			c0.285,0.275,0.555,0.507,0.805,0.694c0.248,0.188,0.625,0.452,1.129,0.796c0.504,0.342,0.906,0.623,1.209,0.844
			c0.301,0.219,0.549,0.429,0.742,0.628c0.525,0.527,0.791,1.116,0.791,1.767c0,0.445-0.121,0.875-0.365,1.287
			c-0.242,0.414-0.594,0.751-1.055,1.012c-0.459,0.261-1,0.396-1.621,0.399v0.097c0.715,0.023,1.352-0.103,1.912-0.378
			c0.559-0.275,0.984-0.639,1.281-1.09s0.443-0.917,0.443-1.397c0-0.416-0.067-0.794-0.202-1.134
			c-0.135-0.34-0.381-0.688-0.738-1.046c-0.203-0.205-0.572-0.49-1.105-0.857c-0.533-0.365-1.072-0.734-1.617-1.107
			c-0.545-0.371-0.942-0.678-1.195-0.918c-0.613-0.609-0.923-1.28-0.923-2.013c0-0.645,0.279-1.245,0.84-1.802
			s1.401-0.85,2.526-0.879L266.888,131.381L266.888,131.381z"/>
		<path fill="#FFFFFF" d="M270.693,131.363h9.396l0.176,2.786h-0.123l-0.633-2.215c-0.65-0.035-1.195-0.053-1.635-0.053
			c-1.107,0-2.039,0.085-2.795,0.255c-0.049,0.404-0.093,0.961-0.134,1.67s-0.062,1.251-0.062,1.626c0,0.41,0.022,1.008,0.07,1.793
			c0.545,0.064,1.181,0.097,1.905,0.097c0.77,0,1.403-0.032,1.907-0.097l0.433-1.512h0.112v3.762H279.2l-0.433-1.6
			c-0.334-0.035-0.655-0.059-0.962-0.07c-0.309-0.012-0.629-0.018-0.963-0.018c-0.316,0-0.952,0.029-1.907,0.088
			c-0.035,0.615-0.053,1.245-0.053,1.89c0,0.451,0.021,1.121,0.07,2.008c0.047,0.889,0.104,1.575,0.176,2.062l2.197,0.308v0.088
			h-6.638v-0.088l2.118-0.308c0.088-0.615,0.158-1.444,0.211-2.487s0.079-1.919,0.079-2.628v-2.443c0-0.305-0.01-0.754-0.031-1.349
			c-0.02-0.595-0.047-1.175-0.078-1.74s-0.079-1.036-0.146-1.411l-2.153-0.325v-0.089L270.693,131.363L270.693,131.363z
			 M273.356,131.706v12.199h0.606v-12.199H273.356z"/>
		<path fill="#FFFFFF" d="M287.595,131.231l3.806,9.079c0.492,1.184,1.066,2.358,1.725,3.524l1.459,0.308v0.088h-6.205v-0.088
			l2.391-0.308c-0.088-0.58-0.25-1.211-0.487-1.894c-0.235-0.683-0.498-1.276-0.785-1.78h-5.513
			c-0.232,0.592-0.424,1.078-0.564,1.459c-0.146,0.381-0.281,0.776-0.414,1.187c-0.131,0.41-0.218,0.753-0.259,1.028l2.303,0.308
			v0.088h-4.913v-0.088l1.617-0.308c0.393-0.68,0.753-1.43,1.081-2.25l4.067-10.354L287.595,131.231L287.595,131.231z
			 M286.663,133.701c-0.158,0.311-0.368,0.765-0.628,1.362c-0.264,0.598-0.497,1.157-0.708,1.679
			c-0.211,0.522-0.433,1.076-0.659,1.666c-0.229,0.588-0.381,0.977-0.457,1.164c0.346,0.047,0.748,0.079,1.209,0.097
			c0.459,0.018,0.896,0.026,1.313,0.026c1.025,0,1.866-0.041,2.522-0.123c-0.223-0.662-0.603-1.604-1.134-2.826
			C287.589,135.525,287.103,134.51,286.663,133.701z M286.804,132.963l4.563,10.925h0.589l-4.86-11.663L286.804,132.963z"/>
		<path fill="#FFFFFF" d="M307.924,141.857l-1.303,2.408c-0.563-0.047-0.97-0.07-1.222-0.07c-0.311,0-0.729,0.023-1.257,0.07
			c-0.528,0.047-0.938,0.07-1.23,0.07c-1.184,0-2.229-0.183-3.143-0.549c-0.91-0.366-1.662-0.861-2.254-1.486
			c-0.592-0.623-1.031-1.312-1.316-2.064c-0.287-0.752-0.433-1.517-0.433-2.29c0-0.99,0.169-1.903,0.505-2.737
			c0.338-0.836,0.813-1.553,1.429-2.154c0.615-0.6,1.333-1.06,2.153-1.379c0.82-0.319,1.702-0.479,2.646-0.479
			c0.244,0,0.399,0.002,0.466,0.005c0.063,0.003,0.205,0.008,0.422,0.018c0.217,0.008,0.437,0.019,0.659,0.03
			c0.791,0.053,1.396,0.079,1.817,0.079c0.938,0,1.552-0.026,1.837-0.079l0.105,2.953h-0.105l-0.589-1.96
			c-0.176-0.041-0.484-0.1-0.932-0.176c-0.446-0.076-0.881-0.138-1.305-0.185c-0.428-0.047-0.869-0.07-1.332-0.07
			c-1.207,0-2.24,0.241-3.1,0.726c-0.857,0.482-1.505,1.168-1.938,2.057c-0.436,0.887-0.65,1.908-0.65,3.063
			c0,0.896,0.155,1.722,0.466,2.475c0.313,0.753,0.744,1.396,1.303,1.924c0.557,0.531,1.189,0.934,1.9,1.209
			c0.713,0.275,1.464,0.413,2.255,0.413c0.785,0,1.521-0.133,2.206-0.399c0.687-0.266,1.298-0.752,1.837-1.455L307.924,141.857z
			 M303.942,131.398h-1.028c-1.02,0-1.954,0.169-2.809,0.506c-0.852,0.337-1.572,0.806-2.162,1.406
			c-0.588,0.601-1.033,1.293-1.34,2.078c-0.305,0.785-0.457,1.626-0.457,2.522c0,0.82,0.156,1.604,0.473,2.351
			c0.313,0.748,0.773,1.413,1.389,1.996c0.609,0.583,1.343,1.037,2.19,1.361c0.852,0.326,1.799,0.488,2.85,0.488
			c0.469,0,0.768-0.006,0.896-0.018v-0.114c-1.166,0.023-2.204-0.13-3.116-0.462c-0.91-0.33-1.662-0.793-2.254-1.389
			c-0.592-0.594-1.031-1.267-1.32-2.017c-0.291-0.75-0.438-1.512-0.438-2.285c0-0.762,0.126-1.512,0.378-2.25
			c0.252-0.738,0.64-1.415,1.165-2.03c0.523-0.615,1.202-1.105,2.034-1.473c0.832-0.365,1.811-0.549,2.936-0.549h0.615
			L303.942,131.398L303.942,131.398z"/>
		<path fill="#FFFFFF" d="M310.569,131.363h7.629c0.463,0,0.89-0.014,1.274-0.039c0.387-0.027,0.885-0.069,1.494-0.128l0.202,2.848
			h-0.105l-0.65-2.074c-0.531-0.094-1.09-0.141-1.67-0.141c-0.498,0-0.952,0.026-1.36,0.079c-0.41,0.053-0.854,0.141-1.327,0.264
			c-0.047,0.545-0.082,1.071-0.105,1.578c-0.021,0.507-0.041,0.975-0.053,1.406c-0.012,0.43-0.02,0.725-0.02,0.883v2.918
			c0,0.768,0.026,1.628,0.079,2.58c0.055,0.952,0.117,1.712,0.193,2.28l2.171,0.325v0.088h-6.636v-0.088l2.136-0.325
			c0.182-1.295,0.272-2.862,0.272-4.702v-3.182c0-0.656-0.017-1.304-0.044-1.942c-0.029-0.638-0.079-1.245-0.149-1.819
			c-0.34-0.094-0.735-0.168-1.187-0.225c-0.451-0.055-0.881-0.089-1.283-0.101c-0.641,0-1.271,0.053-1.892,0.158l-0.633,2.092
			h-0.123l0.193-2.883c0.176,0.012,0.431,0.04,0.765,0.083C310.075,131.342,310.353,131.363,310.569,131.363z M314.365,131.688
			v12.199h0.589v-12.199H314.365z"/>
		<path fill="#FFFFFF" d="M328.323,144.23h-6.645v-0.088l2.145-0.325c0.102-0.732,0.175-1.615,0.226-2.649s0.073-2.047,0.073-3.037
			v-1.477c0-2.01-0.088-3.642-0.264-4.896l-2.18-0.308v-0.088h6.645v0.088l-2.195,0.308c-0.064,0.568-0.111,1.083-0.143,1.542
			c-0.029,0.461-0.056,1.018-0.079,1.67c-0.021,0.654-0.035,1.27-0.035,1.842v1.942c0,0.357,0.016,0.942,0.039,1.753
			c0.027,0.813,0.063,1.499,0.105,2.062c0.045,0.563,0.087,0.984,0.128,1.266l2.18,0.308V144.23L328.323,144.23z M324.359,131.706
			v12.182h0.615v-12.182H324.359z"/>
		<path fill="#FFFFFF" d="M336.146,131.179c1.248,0,2.329,0.208,3.243,0.624s1.662,0.961,2.246,1.635
			c0.582,0.674,1.01,1.391,1.283,2.148c0.271,0.76,0.406,1.487,0.406,2.185c0,0.797-0.152,1.579-0.461,2.347
			c-0.309,0.768-0.762,1.47-1.361,2.105c-0.602,0.636-1.346,1.144-2.232,1.524c-0.887,0.381-1.876,0.571-2.966,0.571
			c-1.576,0-2.912-0.341-4.008-1.023c-1.098-0.682-1.904-1.528-2.428-2.536c-0.521-1.008-0.78-1.992-0.78-2.953
			c0-0.85,0.166-1.673,0.496-2.47s0.813-1.51,1.439-2.141c0.631-0.629,1.385-1.123,2.264-1.48
			C334.168,131.358,335.118,131.179,336.146,131.179z M335.783,131.521v-0.088c-0.818,0.006-1.62,0.182-2.397,0.527
			c-0.779,0.345-1.465,0.814-2.059,1.406c-0.592,0.592-1.054,1.266-1.384,2.021c-0.332,0.756-0.497,1.55-0.497,2.382
			c0,1.02,0.276,2.012,0.831,2.976c0.553,0.964,1.319,1.747,2.298,2.351c0.979,0.604,2.056,0.923,3.228,0.958v-0.097
			c-1.138-0.1-2.144-0.454-3.017-1.063s-1.534-1.365-1.989-2.268c-0.453-0.902-0.683-1.837-0.683-2.804
			c0-0.797,0.132-1.562,0.396-2.294c0.264-0.732,0.645-1.386,1.143-1.96c0.498-0.574,1.102-1.04,1.809-1.397
			C334.164,131.814,334.941,131.598,335.783,131.521z M336.198,131.794c-0.908,0-1.747,0.237-2.519,0.712
			c-0.771,0.475-1.383,1.16-1.836,2.057c-0.455,0.896-0.684,1.954-0.684,3.173c0,1.313,0.248,2.421,0.742,3.327
			c0.496,0.904,1.131,1.576,1.908,2.012c0.774,0.438,1.577,0.655,2.403,0.655c0.674,0,1.313-0.129,1.916-0.387
			c0.603-0.258,1.143-0.634,1.615-1.13c0.477-0.494,0.847-1.104,1.112-1.828c0.266-0.723,0.399-1.53,0.399-2.421
			c0-1.219-0.143-2.191-0.423-2.918s-0.693-1.362-1.238-1.907c-0.463-0.463-0.988-0.803-1.578-1.02
			C337.434,131.902,336.823,131.794,336.198,131.794z M336.646,131.434v0.088c0.568,0.041,1.14,0.175,1.714,0.4
			c0.574,0.225,1.112,0.577,1.612,1.055c0.502,0.478,0.903,1.12,1.209,1.929c0.305,0.809,0.457,1.781,0.457,2.918
			c0,0.744-0.09,1.456-0.27,2.136s-0.467,1.307-0.859,1.881c-0.396,0.574-0.913,1.049-1.554,1.424
			c-0.639,0.375-1.401,0.606-2.294,0.694v0.097c0.75-0.035,1.464-0.196,2.138-0.483c0.674-0.287,1.271-0.698,1.798-1.235
			c0.521-0.535,0.938-1.19,1.243-1.964c0.305-0.774,0.457-1.635,0.457-2.584c0-1.037-0.158-1.952-0.477-2.747
			c-0.314-0.793-0.747-1.454-1.292-1.981s-1.148-0.926-1.813-1.195C338.051,131.595,337.361,131.451,336.646,131.434z"/>
		<path fill="#FFFFFF" d="M344.091,131.451v-0.088h4.438c0.293,0.396,0.672,0.879,1.141,1.441c0.465,0.563,0.88,1.046,1.241,1.45
			l3.938,4.377c0.521,0.568,0.927,1.008,1.218,1.318c0.289,0.311,0.666,0.688,1.129,1.134c0.035-0.404,0.061-0.782,0.07-1.134
			c0.011-0.352,0.018-0.683,0.018-0.993v-3.797c0-1.365-0.065-2.493-0.202-3.384l-2.136-0.325v-0.088h5.229v0.088l-2.138,0.343
			c-0.109,0.82-0.167,1.869-0.167,3.146v9.633h-0.088c-0.896-1.137-1.782-2.2-2.663-3.19l-5.379-5.994
			c-0.797-0.85-1.477-1.526-2.039-2.03c-0.082,0.797-0.123,1.541-0.123,2.232v5.563c0,0.744,0.061,1.632,0.178,2.663l2.23,0.325
			v0.088h-5.344v-0.088l2.162-0.308c0.07-0.422,0.12-1.022,0.147-1.802c0.029-0.78,0.046-1.471,0.046-2.081v-4.307
			c0-0.51-0.01-1.015-0.025-1.517c-0.02-0.5-0.05-0.997-0.097-1.489l-1.171-0.861L344.091,131.451z M346.719,131.688l10.617,11.804
			v-0.826l-9.881-10.978H346.719z"/>
	</g>
	<g>
		<path class="annee1" fill="#FFAC3A" d="M146.332,149.726c-0.108,0.999-0.378,2.861-0.596,4.508c-0.188,1.511-0.16,1.269-0.322,3.374l-0.596-0.189
			c-0.054-1.377,0-0.702-0.135-1.917c-2.94-0.081-4.75-0.081-6.532-0.081h-5.774c3.455-2.429,4.857-3.725,5.884-4.724
			c2.727-2.672,3.968-5.264,3.968-7.639c0-4.265-2.563-5.776-4.398-5.776c-1.433,0-2.105,0.351-2.512,0.702
			c-0.188,0.81-0.54,2.808-0.619,3.293l-0.648,0.135c0.297-1.862,0.567-4.481,0.567-6.856l0.619,0.189
			c0.056,0.647,0.081,1.025,0.189,1.728c0.378-0.108,0.837-0.216,1.323-0.27c0.513-0.081,1.053-0.108,1.646-0.108
			c4.454,0,6.964,2.159,6.964,5.479c0,3.104-2.051,5.938-4.856,8.665c-0.729,0.729-2.672,2.294-4.022,3.266v0.054l2.809-0.081
			c2.16-0.054,5.048-0.459,5.693-0.999c0.218-0.647,0.567-1.835,0.702-2.618L146.332,149.726z"/>
		<path class="annee2" fill="#FFAC3A" d="M158.403,153.37c-2.076-2.619-1.998-6.074-1.998-6.775c0-5.912,3.482-10.5,7.855-10.5
			c2.538,0,4.292,0.972,5.561,2.672c1.323,1.782,1.863,4.13,1.863,6.56c0,5.911-3.48,10.527-7.882,10.527
			C162.398,155.853,160.049,155.448,158.403,153.37z M163.721,137.12c-3.185,0-4.265,4.508-4.265,7.99
			c0,3.752,1.134,9.717,4.913,9.717c3.186,0,4.265-4.535,4.265-7.99C168.633,143.059,167.526,137.12,163.721,137.12z"/>
		<path class="annee3" fill="#FFAC3A" d="M188.048,145.866c0,3.536,0.054,8.152,0.135,8.692c0.54,0.108,3.239,0.351,3.806,0.405l0.137,0.567
			c-0.702-0.054-4.373-0.108-5.644-0.108c-1.32,0-5.234,0.054-5.965,0.108l0.108-0.567c0.403-0.027,3.617-0.351,4.317-0.405
			c0.108-1.161,0.137-5.506,0.137-8.179v-1.809c0-0.891-0.027-5.075-0.137-6.29c-1.159,0.054-3.156,0.405-4.265,0.567l-0.188-0.567
			c0.998-0.243,4.993-1.539,7.883-2.456c-0.137,1.35-0.324,5.479-0.324,8.88V145.866L188.048,145.866z"/>
		<path class="annee4" fill="#FFAC3A" d="M204.491,156.555c2.294-2.483,6.56-7.558,6.56-13.442c0-4.157-1.971-5.993-3.807-5.993
			c-1.972,0-3.563,1.431-3.563,4.508c0,3.023,2.159,5.021,5.209,4.832l-0.377,0.621c-3.482,0.891-7.801-0.351-7.801-4.697
			c0-2.672,2.401-6.289,7.288-6.289c3.48,0,6.344,1.97,6.344,6.262c0,4.858-4.076,10.338-8.367,14.144L204.491,156.555z"/>
	</g>
</g>
</svg>