<?xml version="1.0" encoding="utf-8"?>
<!-- Generator: Adobe Illustrator 16.0.0, SVG Export Plug-In . SVG Version: 6.00 Build 0)  -->
<!DOCTYPE svg PUBLIC "-//W3C//DTD SVG 1.1//EN" "http://www.w3.org/Graphics/SVG/1.1/DTD/svg11.dtd">
<svg version="1.1" id="imgsapin" xmlns="http://www.w3.org/2000/svg" xmlns:xlink="http://www.w3.org/1999/xlink" x="0px" y="0px"
	 width="700px" height="600px" viewBox="0 0 25 22" enable-background="new 0 0 20 20" xml:space="preserve">

<style type="text/css">
  <![CDATA[
 
.etoilehaut {opacity: 0; animation: fadeIn 2s; animation-delay: 4000ms; animation-fill-mode: forwards;}
.etoile1 {opacity: 0; animation: fadeIn 1s; animation-fill-mode: forwards;}
.etoile2 {opacity: 0; animation: fadeIn 1s; animation-delay: 200ms; animation-fill-mode: forwards;}
.etoile3 {opacity: 0; animation: fadeIn 1s; animation-delay: 400ms; animation-fill-mode: forwards;}
.etoile4 {opacity: 0; animation: fadeIn 1s; animation-delay: 600ms; animation-fill-mode: forwards;}
.etoile5 {opacity: 0; animation: fadeIn 1s; animation-delay: 800ms; animation-fill-mode: forwards;}
.etoile6 {opacity: 0; animation: fadeIn 1s; animation-delay: 1000ms; animation-fill-mode: forwards;}
.etoile7 {opacity: 0; animation: fadeIn 1s; animation-delay: 1200ms; animation-fill-mode: forwards;}
.etoile8 {opacity: 0; animation: fadeIn 1s; animation-delay: 1400ms; animation-fill-mode: forwards;}
.etoile9 {opacity: 0; animation: fadeIn 1s; animation-delay: 1800ms; animation-fill-mode: forwards;}
.etoile10 {opacity: 0; animation: fadeIn 1s; animation-delay: 2000ms; animation-fill-mode: forwards;}
.etoile11 {opacity: 0; animation: fadeIn 1s; animation-delay: 2200ms; animation-fill-mode: forwards;}
.etoile12 {opacity: 0; animation: fadeIn 1s; animation-delay: 2400ms; animation-fill-mode: forwards;}
.etoile13 {opacity: 0; animation: fadeIn 1s; animation-delay: 2600ms; animation-fill-mode: forwards;}
.etoile14 {opacity: 0; animation: fadeIn 1s; animation-delay: 2800ms; animation-fill-mode: forwards;}
.etoile15 {opacity: 0; animation: fadeIn 1s; animation-delay: 3000ms; animation-fill-mode: forwards;}
.etoile16 {opacity: 0; animation: fadeIn 1s; animation-delay: 3200ms; animation-fill-mode: forwards;}
.etoile17 {opacity: 0; animation: fadeIn 1s; animation-delay: 3400ms; animation-fill-mode: forwards;}
.etoile18 {opacity: 0; animation: fadeIn 1s; animation-delay: 3600ms; animation-fill-mode: forwards;}
.etoile19 {opacity: 0; animation: fadeIn 1s; animation-delay: 3800ms; animation-fill-mode: forwards;}
.etoile20 {opacity: 0; animation: fadeIn 1s; animation-delay: 4000ms; animation-fill-mode: forwards;}
.tracesapin {opacity: 0; animation: fadeIn 4200ms; animation-fill-mode: forwards;}

@keyframes fadeIn {
    from { opacity: 0; }
    to { opacity: 1; }
}
]]>
</style>

<g>
	<linearGradient id="SVGID_1_" gradientUnits="userSpaceOnUse" x1="12.9634" y1="4.5415" x2="12.9634" y2="18.564">
		<stop  offset="0.0641" style="stop-color:#FFD076"/>
		<stop  offset="0.3051" style="stop-color:#FFAC3A"/>
		<stop  offset="1" style="stop-color:#B06C2F"/>
	</linearGradient>
	<path class="tracesapin" fill="url(#SVGID_1_)" d="M19.261,12.922c-0.012-0.036-0.032-0.063-0.053-0.084c-0.042-0.042-0.087-0.069-0.132-0.093
		c-0.045-0.023-0.091-0.042-0.136-0.06c-0.184-0.067-0.369-0.109-0.555-0.145c-0.187-0.035-0.373-0.063-0.561-0.086
		c-0.374-0.046-0.75-0.074-1.126-0.092c-0.752-0.034-1.505-0.033-2.257,0.006c-0.751,0.037-1.501,0.106-2.247,0.219
		c-0.187,0.027-0.372,0.059-0.556,0.087c-0.185,0.028-0.37,0.055-0.555,0.078c-0.37,0.046-0.742,0.082-1.113,0.097
		c-0.185,0.008-0.371,0.01-0.555,0.005c-0.184-0.006-0.367-0.019-0.544-0.048c-0.089-0.015-0.176-0.033-0.258-0.059
		c-0.082-0.025-0.16-0.058-0.22-0.099c-0.028-0.021-0.054-0.043-0.067-0.064c-0.014-0.022-0.02-0.041-0.02-0.062
		c-0.003-0.042,0.029-0.106,0.077-0.167c0.1-0.122,0.249-0.228,0.399-0.321c0.154-0.093,0.316-0.176,0.483-0.251
		c0.334-0.151,0.684-0.274,1.036-0.387c0.354-0.111,0.712-0.208,1.074-0.293c0.364-0.084,0.73-0.172,1.095-0.261
		c0.365-0.089,0.73-0.181,1.094-0.278c0.183-0.048,0.364-0.1,0.547-0.156c0.183-0.057,0.363-0.114,0.549-0.194
		c0.048-0.021,0.094-0.042,0.145-0.073c0.025-0.015,0.052-0.032,0.08-0.056c0.007-0.005,0.017-0.014,0.023-0.021
		c0.009-0.009,0.015-0.013,0.024-0.026c0.009-0.012,0.018-0.024,0.025-0.037c0.01-0.018,0.018-0.038,0.023-0.057
		c0.006-0.023,0.008-0.052,0.006-0.078c-0.003-0.025-0.011-0.052-0.021-0.075c-0.01-0.018-0.021-0.035-0.034-0.051
		C14.922,9.729,14.911,9.72,14.9,9.71c-0.012-0.011-0.02-0.015-0.029-0.021c-0.009-0.005-0.02-0.012-0.027-0.016
		c-0.016-0.008-0.033-0.017-0.047-0.022c-0.06-0.024-0.11-0.037-0.161-0.049c-0.201-0.044-0.39-0.062-0.58-0.081
		c-0.379-0.034-0.755-0.053-1.131-0.07c-0.188-0.009-0.376-0.015-0.563-0.021c-0.188-0.006-0.375-0.011-0.56-0.021
		c-0.185-0.01-0.369-0.024-0.549-0.046c-0.09-0.012-0.18-0.025-0.265-0.044c-0.085-0.018-0.169-0.042-0.233-0.072
		C10.73,9.235,10.709,9.221,10.7,9.213c0.006-0.013,0.023-0.038,0.046-0.062c0.027-0.026,0.057-0.053,0.091-0.079
		c0.136-0.103,0.297-0.193,0.459-0.28c0.326-0.172,0.667-0.328,1.007-0.485s0.683-0.313,1.021-0.481
		c0.169-0.085,0.337-0.173,0.502-0.268c0.166-0.095,0.328-0.2,0.482-0.313c0.077-0.059,0.153-0.114,0.229-0.194
		c0.019-0.021,0.038-0.042,0.058-0.081c0.005-0.009,0.01-0.02,0.013-0.036c0.004-0.013,0.006-0.033,0.003-0.054
		c-0.002-0.02-0.014-0.046-0.025-0.061c-0.014-0.017-0.028-0.028-0.04-0.035c-0.014-0.009-0.023-0.012-0.034-0.016
		c-0.011-0.004-0.019-0.005-0.027-0.007c-0.019-0.004-0.032-0.005-0.047-0.007c-0.029-0.002-0.056-0.002-0.081-0.001
		c-0.102,0.004-0.195,0.016-0.29,0.029l-0.279,0.041c-0.185,0.027-0.369,0.052-0.553,0.064c-0.183,0.012-0.368,0.015-0.538-0.026
		c-0.084-0.02-0.162-0.055-0.214-0.11c-0.025-0.026-0.046-0.064-0.064-0.102c-0.017-0.038-0.03-0.078-0.037-0.12
		c-0.029-0.168,0.025-0.349,0.105-0.511c0.082-0.163,0.189-0.315,0.308-0.458c0.119-0.142,0.25-0.277,0.388-0.401l0.001,0
		c0.008-0.007,0.009-0.018,0.002-0.026s-0.019-0.009-0.026-0.003c-0.148,0.119-0.285,0.249-0.414,0.388
		c-0.128,0.14-0.247,0.29-0.339,0.459c-0.046,0.085-0.086,0.174-0.112,0.27c-0.026,0.095-0.038,0.197-0.024,0.299
		c0.006,0.051,0.02,0.102,0.04,0.15c0.008,0.025,0.023,0.046,0.034,0.07c0.005,0.012,0.013,0.023,0.021,0.035
		c0.008,0.012,0.016,0.023,0.026,0.033c0.075,0.085,0.176,0.13,0.272,0.157c0.195,0.053,0.39,0.054,0.581,0.049
		c0.191-0.006,0.38-0.025,0.567-0.046l0.279-0.031c0.092-0.01,0.185-0.019,0.271-0.02c0.003,0,0.005,0,0.008,0
		c-0.052,0.046-0.115,0.093-0.178,0.137c-0.3,0.211-0.63,0.376-0.968,0.536c-0.337,0.159-0.68,0.307-1.024,0.458
		c-0.344,0.15-0.689,0.3-1.031,0.471c-0.17,0.087-0.34,0.176-0.505,0.298c-0.041,0.03-0.082,0.065-0.123,0.104
		c-0.04,0.042-0.082,0.087-0.114,0.163l-0.011,0.029c-0.003,0.011-0.005,0.023-0.007,0.034c-0.005,0.022-0.005,0.048-0.003,0.075
		c0.001,0.026,0.011,0.05,0.019,0.075c0.009,0.023,0.022,0.042,0.035,0.063c0.055,0.071,0.111,0.1,0.164,0.129
		c0.105,0.051,0.203,0.077,0.301,0.1c0.098,0.022,0.194,0.038,0.29,0.052c0.192,0.026,0.382,0.042,0.571,0.055
		c0.19,0.013,0.379,0.02,0.565,0.029l0.561,0.027c0.374,0.019,0.747,0.041,1.115,0.076c0.159,0.016,0.32,0.035,0.469,0.064
		c-0.15,0.062-0.316,0.114-0.48,0.164c-0.178,0.053-0.356,0.103-0.536,0.151c-0.36,0.097-0.724,0.189-1.087,0.279l-1.093,0.269
		c-0.367,0.092-0.732,0.195-1.093,0.314c-0.361,0.119-0.717,0.256-1.064,0.421c-0.173,0.083-0.344,0.174-0.509,0.279
		c-0.164,0.108-0.327,0.223-0.462,0.396c-0.033,0.045-0.065,0.092-0.089,0.149c-0.024,0.057-0.043,0.123-0.038,0.196
		c0.003,0.073,0.032,0.145,0.072,0.2c0.04,0.057,0.088,0.094,0.136,0.127c0.097,0.062,0.196,0.098,0.294,0.125
		s0.195,0.045,0.292,0.059c0.194,0.026,0.386,0.035,0.577,0.036s0.381-0.006,0.57-0.019c0.378-0.025,0.754-0.071,1.126-0.127
		c0.187-0.027,0.373-0.059,0.558-0.092c0.186-0.034,0.369-0.07,0.553-0.102c0.737-0.125,1.481-0.206,2.229-0.25
		c0.747-0.041,1.497-0.051,2.244-0.013c0.373,0.019,0.746,0.048,1.117,0.095c0.185,0.024,0.369,0.051,0.551,0.088
		c0.182,0.037,0.363,0.08,0.532,0.145c0.082,0.032,0.168,0.072,0.218,0.124c0.012,0.012,0.02,0.024,0.021,0.033
		c0.003,0.009,0.003,0.014-0.001,0.023c-0.008,0.02-0.036,0.048-0.07,0.07c-0.068,0.046-0.153,0.08-0.238,0.11
		c-0.086,0.03-0.175,0.055-0.264,0.078c-0.359,0.089-0.729,0.145-1.1,0.193c-0.37,0.048-0.742,0.084-1.116,0.118l-1.121,0.108
		c-0.747,0.074-1.494,0.154-2.24,0.241c-0.747,0.086-1.492,0.181-2.236,0.29c-0.373,0.055-0.745,0.113-1.116,0.18
		c-0.372,0.068-0.742,0.138-1.116,0.241c-0.095,0.027-0.188,0.056-0.288,0.099c-0.025,0.012-0.052,0.024-0.08,0.04
		c-0.028,0.018-0.059,0.033-0.1,0.078c-0.01,0.011-0.021,0.027-0.032,0.046c-0.011,0.021-0.021,0.046-0.025,0.08
		c-0.004,0.03,0.001,0.07,0.013,0.097c0.012,0.032,0.025,0.048,0.041,0.067c0.026,0.028,0.051,0.045,0.069,0.056
		c0.021,0.013,0.037,0.02,0.053,0.026c0.063,0.025,0.115,0.038,0.166,0.049s0.101,0.02,0.15,0.026
		c0.098,0.015,0.194,0.024,0.29,0.032c0.382,0.032,0.759,0.042,1.136,0.049c1.503,0.015,3,0.035,4.5,0.076
		c0.749,0.022,1.498,0.043,2.244,0.079c0.066,0.004,0.132,0.007,0.197,0.011c-0.468,0.043-0.939,0.076-1.411,0.117
		c-0.749,0.063-1.498,0.131-2.247,0.22c-0.374,0.045-0.748,0.093-1.124,0.156c-0.188,0.033-0.375,0.065-0.571,0.122
		c-0.051,0.016-0.099,0.03-0.162,0.063c-0.015,0.007-0.035,0.019-0.054,0.032c-0.013,0.011-0.024,0.021-0.037,0.033
		c-0.018,0.024-0.029,0.03-0.046,0.075c-0.014,0.035-0.016,0.089,0,0.133c0.012,0.033,0.038,0.068,0.051,0.078
		c0.018,0.018,0.032,0.027,0.042,0.034c0.013,0.009,0.024,0.014,0.033,0.018c0.04,0.02,0.067,0.027,0.096,0.035
		c0.028,0.008,0.055,0.014,0.081,0.02c0.051,0.01,0.101,0.017,0.15,0.023c0.195,0.025,0.385,0.036,0.575,0.044l0.281,0.011
		c0.091,0.004,0.183,0.01,0.274,0.018c0.364,0.031,0.729,0.09,1.077,0.189c0.173,0.05,0.345,0.11,0.488,0.192
		c0.035,0.021,0.067,0.043,0.094,0.065c0.026,0.021,0.045,0.046,0.049,0.056c0.001,0.002,0.001,0.003,0.001,0.003
		c0,0.001,0,0.001,0,0.002c-0.005,0.01-0.027,0.033-0.058,0.052c-0.061,0.039-0.141,0.072-0.223,0.099
		c-0.084,0.027-0.171,0.05-0.26,0.068c-0.177,0.039-0.359,0.067-0.543,0.091c-0.367,0.047-0.741,0.066-1.114,0.093l-0.56,0.03
		l-0.561,0.02c-1.497,0.039-2.998,0.002-4.493-0.11h0c-0.01,0-0.019,0.007-0.02,0.018c-0.001,0.01,0.006,0.02,0.017,0.021
		c0.746,0.092,1.495,0.151,2.245,0.196c0.75,0.045,1.502,0.072,2.254,0.071l0.564-0.005l0.565-0.014
		c0.376-0.018,0.752-0.029,1.131-0.068c0.189-0.02,0.379-0.044,0.569-0.081c0.095-0.019,0.19-0.04,0.286-0.069
		s0.192-0.063,0.292-0.123c0.049-0.031,0.103-0.068,0.147-0.139c0.022-0.034,0.039-0.08,0.045-0.128
		c0.004-0.049-0.005-0.097-0.021-0.136c-0.032-0.077-0.079-0.124-0.123-0.164c-0.044-0.039-0.09-0.07-0.135-0.098
		c-0.181-0.107-0.365-0.174-0.552-0.231c-0.372-0.113-0.751-0.181-1.132-0.222c-0.096-0.01-0.191-0.018-0.288-0.023L12.243,16.4
		c-0.065-0.004-0.129-0.009-0.194-0.014c0.025-0.004,0.051-0.009,0.077-0.013c0.365-0.057,0.736-0.1,1.108-0.139
		c0.743-0.076,1.489-0.14,2.236-0.197c0.746-0.06,1.496-0.1,2.252-0.191c0.096-0.012,0.19-0.024,0.287-0.041
		c0.049-0.009,0.098-0.018,0.149-0.029c0.025-0.006,0.052-0.013,0.08-0.021c0.029-0.009,0.057-0.017,0.101-0.037
		c0.012-0.007,0.021-0.012,0.04-0.023c0.014-0.01,0.037-0.026,0.064-0.063c0.029-0.032,0.059-0.137,0.026-0.207
		c-0.028-0.066-0.061-0.088-0.078-0.103c-0.022-0.017-0.033-0.022-0.048-0.03c-0.011-0.005-0.024-0.012-0.033-0.015
		c-0.02-0.008-0.035-0.013-0.051-0.017c-0.061-0.018-0.111-0.026-0.161-0.035c-0.101-0.017-0.196-0.027-0.292-0.038
		c-0.382-0.038-0.758-0.059-1.134-0.077c-0.753-0.036-1.504-0.057-2.256-0.07c-1.501-0.028-3.005-0.035-4.504-0.037
		C9.54,14.999,9.167,14.992,8.8,14.965c-0.066-0.005-0.132-0.012-0.196-0.02c0.001,0,0.003-0.001,0.005-0.001
		c0.348-0.102,0.715-0.176,1.081-0.247c0.366-0.069,0.735-0.135,1.104-0.195c1.478-0.241,2.963-0.445,4.453-0.627l1.117-0.131
		c0.372-0.042,0.747-0.085,1.12-0.142c0.372-0.057,0.744-0.12,1.112-0.218c0.092-0.025,0.184-0.053,0.274-0.085
		c0.091-0.034,0.182-0.07,0.27-0.13c0.042-0.031,0.089-0.065,0.118-0.133C19.271,13.003,19.273,12.958,19.261,12.922z M10.695,9.208
		L10.695,9.208C10.696,9.207,10.696,9.208,10.695,9.208z M10.696,9.22l0.001-0.001C10.697,9.22,10.697,9.221,10.696,9.22
		L10.696,9.22z"/>
	<g>
		<linearGradient id="SVGID_2_" gradientUnits="userSpaceOnUse" x1="13.2363" y1="3.2349" x2="13.2363" y2="16.5891">
			<stop  offset="0.0641" style="stop-color:#FFD076"/>
			<stop  offset="0.3051" style="stop-color:#FFAC3A"/>
			<stop  offset="1" style="stop-color:#B06C2F"/>
		</linearGradient>
		<polygon class="etoilehaut" fill="url(#SVGID_2_)" points="13.235,4.07 13.451,4.734 14.149,4.734 13.585,5.145 13.801,5.809 13.235,5.398 
			12.671,5.809 12.887,5.145 12.322,4.734 13.02,4.734 		"/>
		<linearGradient id="SVGID_3_" gradientUnits="userSpaceOnUse" x1="10.6782" y1="6.0024" x2="10.6782" y2="19.3491">
			<stop  offset="0.0641" style="stop-color:#FFD076"/>
			<stop  offset="0.3051" style="stop-color:#FFAC3A"/>
			<stop  offset="1" style="stop-color:#B06C2F"/>
		</linearGradient>
		<polygon class="etoile1" fill="url(#SVGID_3_)" points="10.678,9.845 10.752,10.074 10.994,10.074 10.799,10.216 10.873,10.445 10.678,10.304 
			10.483,10.445 10.557,10.216 10.362,10.074 10.604,10.074 		"/>
		<linearGradient id="SVGID_4_" gradientUnits="userSpaceOnUse" x1="12.8232" y1="3.7329" x2="12.8232" y2="17.0905">
			<stop  offset="0.0641" style="stop-color:#FFD076"/>
			<stop  offset="0.3051" style="stop-color:#FFAC3A"/>
			<stop  offset="1" style="stop-color:#B06C2F"/>
		</linearGradient>
		<polygon class="etoile2" fill="url(#SVGID_4_)" points="12.823,8.4 12.898,8.63 13.14,8.63 12.944,8.772 13.019,9.001 12.823,8.86 12.628,9.001 
			12.703,8.772 12.507,8.63 12.749,8.63 		"/>
		<linearGradient id="SVGID_5_" gradientUnits="userSpaceOnUse" x1="15.3965" y1="2.9854" x2="15.3965" y2="16.3429">
			<stop  offset="0.0641" style="stop-color:#FFD076"/>
			<stop  offset="0.3051" style="stop-color:#FFAC3A"/>
			<stop  offset="1" style="stop-color:#B06C2F"/>
		</linearGradient>
		<polygon class="etoile3" fill="url(#SVGID_5_)" points="15.396,9.388 15.471,9.618 15.712,9.618 15.517,9.759 15.591,9.989 15.396,9.847 
			15.201,9.989 15.275,9.759 15.08,9.618 15.321,9.618 		"/>
		<linearGradient id="SVGID_6_" gradientUnits="userSpaceOnUse" x1="13.0195" y1="2.7944" x2="13.0195" y2="16.1523">
			<stop  offset="0.0641" style="stop-color:#FFD076"/>
			<stop  offset="0.3051" style="stop-color:#FFAC3A"/>
			<stop  offset="1" style="stop-color:#B06C2F"/>
		</linearGradient>
		<polygon class="etoile4" fill="url(#SVGID_6_)" points="13.02,11.404 13.094,11.633 13.335,11.633 13.14,11.775 13.215,12.005 13.02,11.863 
			12.824,12.005 12.898,11.775 12.703,11.633 12.945,11.633 		"/>
		<linearGradient id="SVGID_7_" gradientUnits="userSpaceOnUse" x1="11.54" y1="-1.3306" x2="11.54" y2="12.0273">
			<stop  offset="0.0641" style="stop-color:#FFD076"/>
			<stop  offset="0.3051" style="stop-color:#FFAC3A"/>
			<stop  offset="1" style="stop-color:#B06C2F"/>
		</linearGradient>
		<polygon class="etoile5" fill="url(#SVGID_7_)" points="11.54,7.279 11.615,7.508 11.856,7.508 11.661,7.65 11.735,7.88 11.54,7.738 11.345,7.88 
			11.419,7.65 11.224,7.508 11.465,7.508 		"/>
		<linearGradient id="SVGID_8_" gradientUnits="userSpaceOnUse" x1="10.105" y1="3.2798" x2="10.105" y2="16.6358">
			<stop  offset="0.0641" style="stop-color:#FFD076"/>
			<stop  offset="0.3051" style="stop-color:#FFAC3A"/>
			<stop  offset="1" style="stop-color:#B06C2F"/>
		</linearGradient>
		<polygon class="etoile6" fill="url(#SVGID_8_)" points="10.105,12.086 10.18,12.315 10.421,12.315 10.226,12.458 10.3,12.687 10.105,12.545 
			9.91,12.687 9.984,12.458 9.789,12.315 10.031,12.315 		"/>
		<linearGradient id="SVGID_9_" gradientUnits="userSpaceOnUse" x1="13.4277" y1="3.1157" x2="13.4277" y2="16.4628">
			<stop  offset="0.0641" style="stop-color:#FFD076"/>
			<stop  offset="0.3051" style="stop-color:#FFAC3A"/>
			<stop  offset="1" style="stop-color:#B06C2F"/>
		</linearGradient>
		<polygon class="etoile7" fill="url(#SVGID_9_)" points="13.427,14.264 13.502,14.493 13.743,14.493 13.548,14.635 13.622,14.864 13.427,14.723 
			13.232,14.864 13.307,14.635 13.111,14.493 13.353,14.493 		"/>
		<linearGradient id="SVGID_10_" gradientUnits="userSpaceOnUse" x1="15.9844" y1="3.417" x2="15.9844" y2="16.7605">
			<stop  offset="0.0641" style="stop-color:#FFD076"/>
			<stop  offset="0.3051" style="stop-color:#FFAC3A"/>
			<stop  offset="1" style="stop-color:#B06C2F"/>
		</linearGradient>
		<polygon class="etoile8" fill="url(#SVGID_10_)" points="15.984,16.362 16.08,16.656 16.39,16.656 16.14,16.839 16.235,17.133 15.984,16.951 
			15.734,17.133 15.83,16.839 15.579,16.656 15.89,16.656 		"/>
		<linearGradient id="SVGID_11_" gradientUnits="userSpaceOnUse" x1="17.3906" y1="-4.0967" x2="17.3906" y2="14.4219">
			<stop  offset="0.0641" style="stop-color:#FFD076"/>
			<stop  offset="0.3051" style="stop-color:#FFAC3A"/>
			<stop  offset="1" style="stop-color:#B06C2F"/>
		</linearGradient>
		<polygon class="etoile9" fill="url(#SVGID_11_)" points="17.391,13.869 17.523,14.277 17.953,14.277 17.605,14.53 17.738,14.938 17.391,14.686 
			17.044,14.938 17.177,14.53 16.829,14.277 17.259,14.277 		"/>
		<linearGradient id="SVGID_12_" gradientUnits="userSpaceOnUse" x1="6.6099" y1="3.8223" x2="6.6099" y2="17.1672">
			<stop  offset="0.0641" style="stop-color:#FFD076"/>
			<stop  offset="0.3051" style="stop-color:#FFAC3A"/>
			<stop  offset="1" style="stop-color:#B06C2F"/>
		</linearGradient>
		<polygon class="etoile10" fill="url(#SVGID_12_)" points="6.61,17.194 6.706,17.489 7.015,17.489 6.765,17.671 6.86,17.965 6.61,17.783 
			6.359,17.965 6.455,17.671 6.205,17.489 6.514,17.489 		"/>
		<linearGradient id="SVGID_13_" gradientUnits="userSpaceOnUse" x1="15.9766" y1="3.5522" x2="15.9766" y2="16.9057">
			<stop  offset="0.0641" style="stop-color:#FFD076"/>
			<stop  offset="0.3051" style="stop-color:#FFAC3A"/>
			<stop  offset="1" style="stop-color:#B06C2F"/>
		</linearGradient>
		<polygon class="etoile11" fill="url(#SVGID_13_)" points="15.977,11.061 16.072,11.355 16.382,11.355 16.132,11.537 16.228,11.832 15.977,11.649 
			15.727,11.832 15.822,11.537 15.571,11.355 15.881,11.355 		"/>
		<linearGradient id="SVGID_14_" gradientUnits="userSpaceOnUse" x1="8.8887" y1="2.7437" x2="8.8887" y2="16.1124">
			<stop  offset="0.0641" style="stop-color:#FFD076"/>
			<stop  offset="0.3051" style="stop-color:#FFAC3A"/>
			<stop  offset="1" style="stop-color:#B06C2F"/>
		</linearGradient>
		<polygon class="etoile12" fill="url(#SVGID_14_)" points="8.889,13.678 8.963,13.907 9.205,13.907 9.009,14.05 9.084,14.279 8.889,14.137 
			8.693,14.279 8.768,14.05 8.573,13.907 8.814,13.907 		"/>
		<linearGradient id="SVGID_15_" gradientUnits="userSpaceOnUse" x1="10.5796" y1="3.2725" x2="10.5796" y2="16.6384">
			<stop  offset="0.0641" style="stop-color:#FFD076"/>
			<stop  offset="0.3051" style="stop-color:#FFAC3A"/>
			<stop  offset="1" style="stop-color:#B06C2F"/>
		</linearGradient>
		<polygon class="etoile13" fill="url(#SVGID_15_)" points="10.58,13.674 10.624,13.809 10.765,13.809 10.65,13.892 10.694,14.026 10.58,13.942 
			10.465,14.026 10.509,13.892 10.395,13.809 10.536,13.809 		"/>
		<linearGradient id="SVGID_16_" gradientUnits="userSpaceOnUse" x1="12.0757" y1="2.9038" x2="12.0757" y2="16.2697">
			<stop  offset="0.0641" style="stop-color:#FFD076"/>
			<stop  offset="0.3051" style="stop-color:#FFAC3A"/>
			<stop  offset="1" style="stop-color:#B06C2F"/>
		</linearGradient>
		<polygon class="etoile14" fill="url(#SVGID_16_)" points="12.076,13.295 12.12,13.43 12.261,13.43 12.146,13.513 12.19,13.647 12.076,13.564 
			11.961,13.647 12.005,13.513 11.891,13.43 12.032,13.43 		"/>
		<linearGradient id="SVGID_17_" gradientUnits="userSpaceOnUse" x1="14.1377" y1="3.2915" x2="14.1377" y2="16.6337">
			<stop  offset="0.0641" style="stop-color:#FFD076"/>
			<stop  offset="0.3051" style="stop-color:#FFAC3A"/>
			<stop  offset="1" style="stop-color:#B06C2F"/>
		</linearGradient>
		<polygon class="etoile15" fill="url(#SVGID_17_)" points="14.138,13.753 14.161,13.825 14.237,13.825 14.176,13.87 14.199,13.942 14.138,13.897 
			14.076,13.942 14.1,13.87 14.038,13.825 14.114,13.825 		"/>
		<linearGradient id="SVGID_18_" gradientUnits="userSpaceOnUse" x1="13.4375" y1="2.6978" x2="13.4375" y2="16.0668">
			<stop  offset="0.0641" style="stop-color:#FFD076"/>
			<stop  offset="0.3051" style="stop-color:#FFAC3A"/>
			<stop  offset="1" style="stop-color:#B06C2F"/>
		</linearGradient>
		<polygon class="etoile16" fill="url(#SVGID_18_)" points="13.438,13.083 13.481,13.218 13.623,13.218 13.509,13.301 13.553,13.436 13.438,13.352 
			13.323,13.436 13.367,13.301 13.253,13.218 13.395,13.218 		"/>
		<linearGradient id="SVGID_19_" gradientUnits="userSpaceOnUse" x1="14.1914" y1="3.2832" x2="14.1914" y2="16.6338">
			<stop  offset="0.0641" style="stop-color:#FFD076"/>
			<stop  offset="0.3051" style="stop-color:#FFAC3A"/>
			<stop  offset="1" style="stop-color:#B06C2F"/>
		</linearGradient>
		<polygon class="etoile17" fill="url(#SVGID_19_)" points="14.191,11.183 14.235,11.317 14.377,11.317 14.262,11.401 14.306,11.535 14.191,11.452 
			14.077,11.535 14.121,11.401 14.007,11.317 14.147,11.317 		"/>
		<linearGradient id="SVGID_20_" gradientUnits="userSpaceOnUse" x1="16.7207" y1="3.2676" x2="16.7207" y2="16.6367">
			<stop  offset="0.0641" style="stop-color:#FFD076"/>
			<stop  offset="0.3051" style="stop-color:#FFAC3A"/>
			<stop  offset="1" style="stop-color:#B06C2F"/>
		</linearGradient>
		<polygon class="etoile18" fill="url(#SVGID_20_)" points="16.721,15.423 16.765,15.558 16.906,15.558 16.792,15.641 16.836,15.775 16.721,15.692 
			16.606,15.775 16.65,15.641 16.536,15.558 16.678,15.558 		"/>
		<linearGradient id="SVGID_21_" gradientUnits="userSpaceOnUse" x1="12.77" y1="3.4038" x2="12.77" y2="16.7697">
			<stop  offset="0.0641" style="stop-color:#FFD076"/>
			<stop  offset="0.3051" style="stop-color:#FFAC3A"/>
			<stop  offset="1" style="stop-color:#B06C2F"/>
		</linearGradient>
		<polygon class="etoile19" fill="url(#SVGID_21_)" points="12.771,15.495 12.814,15.63 12.956,15.63 12.841,15.713 12.885,15.848 12.771,15.765 
			12.656,15.848 12.7,15.713 12.585,15.63 12.727,15.63 		"/>
		<linearGradient id="SVGID_22_" gradientUnits="userSpaceOnUse" x1="12.5073" y1="3.2837" x2="12.5073" y2="16.633">
			<stop  offset="0.0641" style="stop-color:#FFD076"/>
			<stop  offset="0.3051" style="stop-color:#FFAC3A"/>
			<stop  offset="1" style="stop-color:#B06C2F"/>
		</linearGradient>
		<polygon class="etoile20" fill="url(#SVGID_22_)" points="12.508,9.337 12.551,9.471 12.693,9.471 12.578,9.555 12.622,9.689 12.508,9.606 
			12.393,9.689 12.437,9.555 12.322,9.471 12.464,9.471 		"/>
	</g>
</g>
</svg>