<?xml version="1.0" encoding="utf-8"?>
<!-- Generator: Adobe Illustrator 16.0.0, SVG Export Plug-In . SVG Version: 6.00 Build 0)  -->
<!DOCTYPE svg PUBLIC "-//W3C//DTD SVG 1.1//EN" "http://www.w3.org/Graphics/SVG/1.1/DTD/svg11.dtd">
<svg version="1.1" id="titre" xmlns="http://www.w3.org/2000/svg" xmlns:xlink="http://www.w3.org/1999/xlink" x="0px" y="0px"
	 width="413.043px" height="66.087px" viewBox="0 0 413.043 66.087" enable-background="new 0 0 413.043 66.087"
	 xml:space="preserve">
<style type="text/css">
  <![CDATA[

.titre1 {animation-fill-mode: forwards; opacity:0; -webkit-animation: scale-in-center 0.5s cubic-bezier(0.250, 0.460, 0.450, 0.940) both; animation: scale-in-center 0.5s cubic-bezier(0.250, 0.460, 0.450, 0.940) both; }
.titre2 {animation-fill-mode: forwards; opacity:0; -webkit-animation: scale-in-center 0.5s cubic-bezier(0.250, 0.460, 0.450, 0.940) both; animation: scale-in-center 0.5s cubic-bezier(0.250, 0.460, 0.450, 0.940) both; animation-delay: 200ms; }
.titre3 {animation-fill-mode: forwards; opacity:0; -webkit-animation: scale-in-center 0.5s cubic-bezier(0.250, 0.460, 0.450, 0.940) both; animation: scale-in-center 0.5s cubic-bezier(0.250, 0.460, 0.450, 0.940) both; animation-delay: 400ms; }
.titre4 {animation-fill-mode: forwards; opacity:0; -webkit-animation: scale-in-center 0.5s cubic-bezier(0.250, 0.460, 0.450, 0.940) both; animation: scale-in-center 0.5s cubic-bezier(0.250, 0.460, 0.450, 0.940) both; animation-delay: 600ms; }
.titre5 {animation-fill-mode: forwards; opacity:0; -webkit-animation: scale-in-center 0.5s cubic-bezier(0.250, 0.460, 0.450, 0.940) both; animation: scale-in-center 0.5s cubic-bezier(0.250, 0.460, 0.450, 0.940) both; animation-delay: 800ms; }
.titre6 {animation-fill-mode: forwards; opacity:0; -webkit-animation: scale-in-center 0.5s cubic-bezier(0.250, 0.460, 0.450, 0.940) both; animation: scale-in-center 0.5s cubic-bezier(0.250, 0.460, 0.450, 0.940) both; animation-delay: 1000ms; }
.titre7 {animation-fill-mode: forwards; opacity:0; -webkit-animation: scale-in-center 0.5s cubic-bezier(0.250, 0.460, 0.450, 0.940) both; animation: scale-in-center 0.5s cubic-bezier(0.250, 0.460, 0.450, 0.940) both; animation-delay: 1200ms; }
.titre8 {animation-fill-mode: forwards; opacity:0; -webkit-animation: scale-in-center 0.5s cubic-bezier(0.250, 0.460, 0.450, 0.940) both; animation: scale-in-center 0.5s cubic-bezier(0.250, 0.460, 0.450, 0.940) both; animation-delay: 1400ms; }
.titre9 {animation-fill-mode: forwards; opacity:0; -webkit-animation: scale-in-center 0.5s cubic-bezier(0.250, 0.460, 0.450, 0.940) both; animation: scale-in-center 0.5s cubic-bezier(0.250, 0.460, 0.450, 0.940) both; animation-delay: 1600ms; }
.titre10 {animation-fill-mode: forwards; opacity:0; -webkit-animation: scale-in-center 0.5s cubic-bezier(0.250, 0.460, 0.450, 0.940) both; animation: scale-in-center 0.5s cubic-bezier(0.250, 0.460, 0.450, 0.940) both; animation-delay: 1800ms; }
.titre11 {animation-fill-mode: forwards; opacity:0; -webkit-animation: scale-in-center 0.5s cubic-bezier(0.250, 0.460, 0.450, 0.940) both; animation: scale-in-center 0.5s cubic-bezier(0.250, 0.460, 0.450, 0.940) both; animation-delay: 2000ms; }
.titre12 {animation-fill-mode: forwards; opacity:0; -webkit-animation: scale-in-center 0.5s cubic-bezier(0.250, 0.460, 0.450, 0.940) both; animation: scale-in-center 0.5s cubic-bezier(0.250, 0.460, 0.450, 0.940) both; animation-delay: 2200ms; }
.titre13 {animation-fill-mode: forwards; opacity:0; -webkit-animation: scale-in-center 0.5s cubic-bezier(0.250, 0.460, 0.450, 0.940) both; animation: scale-in-center 0.5s cubic-bezier(0.250, 0.460, 0.450, 0.940) both; animation-delay: 2400ms; }


@-webkit-keyframes scale-in-center {
    0% {
      -webkit-transform: scale(0);
              transform: scale(0);
      opacity: 1;
    }
    100% {
      -webkit-transform: scale(1);
              transform: scale(1);
      opacity: 1;
    }
  }
  @keyframes scale-in-center {
    0% {
      -webkit-transform: scale(0);
              transform: scale(0);
      opacity: 1;
    }
    100% {
      -webkit-transform: scale(1);
              transform: scale(1);
      opacity: 1;
    }
  }
]]>
</style>
<g>
	<path class="titre1" fill="#FFAC3A" d="M16.466,43.465c7.14-15.493,11.923-25.9,14.35-31.22c0.42-0.933,0.63-1.703,0.63-2.31
		c0-1.026-0.677-1.54-2.03-1.54c-1.82,0-3.36,0.572-4.62,1.715c-1.26,1.145-2.205,2.579-2.835,4.305
		c-0.63,1.727-0.945,3.477-0.945,5.25c0,0.98,0.093,2.1,0.28,3.36c-1.54,0-2.754-0.665-3.64-1.995
		c-0.887-1.33-1.33-2.788-1.33-4.375c0-1.913,0.723-3.791,2.17-5.635c1.446-1.843,3.301-3.336,5.565-4.48
		c2.263-1.143,4.491-1.715,6.685-1.715c1.82,0,3.325,0.502,4.515,1.505c1.19,1.004,2.1,2.765,2.73,5.285s0.945,6.044,0.945,10.57
		c0,3.267-0.257,8.33-0.77,15.19c-0.375,5.04-0.56,8.26-0.56,9.66c1.4-4.2,3.383-8.89,5.95-14.07
		c2.566-5.18,5.121-9.975,7.665-14.385c2.543-4.41,4.538-7.688,5.985-9.835c0.746-1.166,1.376-1.971,1.89-2.415
		c0.513-0.443,1.166-0.665,1.96-0.665c0.653,0,1.68,0.257,3.08,0.77c-0.934,2.007-2.147,6.09-3.64,12.25
		c-1.494,6.16-2.789,12.635-3.885,19.425c-1.097,6.79-1.645,12.262-1.645,16.415c0,1.446,0.07,2.52,0.21,3.22
		s0.338,1.388,0.595,2.065c0.256,0.676,0.455,1.179,0.595,1.505c-2.007,0-3.524-0.292-4.55-0.875c-1.027-0.584-1.727-1.518-2.1-2.8
		c-0.374-1.284-0.56-3.091-0.56-5.425c0-4.666,0.501-9.613,1.505-14.84c1.003-5.226,2.485-11.62,4.445-19.18
		c-2.94,4.2-6.16,10.15-9.66,17.85c-3.5,7.7-6.09,14.024-7.77,18.97l-0.49,0.14c-0.327,0.14-0.654,0.21-0.98,0.21
		c-1.54,0-2.555-0.886-3.045-2.66c-0.49-1.773-0.735-4.596-0.735-8.47c0-2.38,0.093-6.37,0.28-11.97
		c0.186-5.88,0.28-10.173,0.28-12.88l-0.07-4.13l-7.21,16.94c-3.454,8.214-6.032,14.175-7.735,17.885
		c-1.704,3.71-3.314,6.51-4.83,8.4c-1.517,1.89-3.115,2.835-4.795,2.835C8.906,59.635,11.612,53.685,16.466,43.465z"/>
	<path class="titre2" fill="#FFAC3A" d="M64.766,55.925c-1.633-1.586-2.45-3.616-2.45-6.09c0-2.706,0.91-5.635,2.73-8.785
		c1.82-3.15,4.153-5.786,7-7.91c2.846-2.123,5.646-3.185,8.4-3.185c1.446,0,2.66,0.362,3.64,1.085c0.98,0.724,1.47,1.925,1.47,3.605
		c0,2.24-0.864,4.352-2.59,6.335c-1.727,1.984-3.955,3.605-6.685,4.865c-2.73,1.26-5.519,2.054-8.365,2.38
		c-0.094,0.467-0.14,1.004-0.14,1.61c0,1.214,0.338,2.427,1.015,3.64c0.676,1.214,2.135,1.82,4.375,1.82
		c2.846,0,5.751-1.155,8.715-3.465c2.963-2.31,5.355-5.191,7.175-8.645l1.4,1.12c-1.867,4.2-4.539,7.584-8.015,10.15
		c-3.477,2.566-7.082,3.85-10.815,3.85C68.686,58.305,66.399,57.511,64.766,55.925z M74.321,43.605
		c2.076-1.166,3.838-2.601,5.285-4.305c1.446-1.703,2.17-3.371,2.17-5.005c0-0.513-0.094-0.863-0.28-1.05
		c-0.188-0.186-0.49-0.28-0.91-0.28c-1.354,0-2.835,0.642-4.445,1.925c-1.61,1.284-3.092,2.905-4.445,4.865
		c-1.354,1.96-2.357,3.92-3.01,5.88C70.366,45.449,72.244,44.772,74.321,43.605z"/>
	<path class="titre3" fill="#FFAC3A" d="M88.425,55.575c-1.073-1.166-1.61-2.66-1.61-4.48c0-1.866,0.525-4.398,1.575-7.595
		c1.05-3.196,2.38-6.008,3.99-8.435c1.61-2.426,3.231-3.64,4.865-3.64c0.606,0,1.108,0.175,1.505,0.525
		c0.396,0.35,0.595,0.852,0.595,1.505c0,0.42-0.187,0.992-0.56,1.715c-0.374,0.724-0.98,1.762-1.82,3.115
		c-1.494,2.474-2.672,4.655-3.535,6.545c-0.864,1.89-1.295,3.675-1.295,5.355c0,1.447,0.256,2.427,0.77,2.94
		c0.513,0.514,1.306,0.77,2.38,0.77c3.686,0,7.35-3.57,10.99-10.71l1.05,1.12c-1.634,4.107-3.71,7.304-6.23,9.59
		c-2.52,2.286-5.227,3.43-8.12,3.43C91.015,57.325,89.498,56.741,88.425,55.575z M98.75,25.055c-0.677-0.466-1.015-1.143-1.015-2.03
		c0-1.073,0.595-2.018,1.785-2.835c1.19-0.816,2.461-1.225,3.815-1.225c2.006,0,3.01,0.864,3.01,2.59c0,0.98-0.537,1.925-1.61,2.835
		c-1.074,0.91-2.24,1.365-3.5,1.365C100.255,25.755,99.426,25.522,98.75,25.055z"/>
	<path class="titre4" fill="#FFAC3A" d="M106.204,55.225c-1.074-1.4-1.61-3.29-1.61-5.67c0-4.153,1.458-9.8,4.375-16.94
		c2.916-7.14,6.195-13.556,9.835-19.25c3.64-5.693,6.323-8.54,8.05-8.54c0.793,0,1.481,0.63,2.065,1.89
		c0.583,1.26,0.875,2.544,0.875,3.85c0,2.1-0.864,5.169-2.59,9.205c-1.727,4.037-4.049,8.144-6.965,12.32
		c-2.917,4.177-6.032,7.572-9.345,10.185c-0.514,2.894-0.77,5.227-0.77,7c0,3.22,1.003,4.83,3.01,4.83
		c1.493,0,3.056-0.886,4.69-2.66c1.633-1.773,3.126-4.013,4.48-6.72c0.84-4.573,2.578-9.8,5.215-15.68
		c2.636-5.88,5.39-10.931,8.26-15.155c2.87-4.223,5.051-6.335,6.545-6.335c0.84,0,1.551,0.642,2.135,1.925
		c0.583,1.284,0.875,2.602,0.875,3.955c0,2.007-0.724,4.795-2.17,8.365c-1.447,3.57-3.465,7.222-6.055,10.955
		c-2.59,3.734-5.542,6.907-8.855,9.52c-0.514,2.287-0.77,4.504-0.77,6.65c0,3.454,0.956,5.18,2.87,5.18
		c1.68,0,3.453-1.096,5.32-3.29c1.866-2.193,3.476-4.806,4.83-7.84l1.75,0.91c-4.2,8.96-8.867,13.44-14,13.44
		c-2.054,0-3.617-0.677-4.69-2.03c-1.074-1.353-1.634-3.196-1.68-5.53c-3.407,5.04-7.024,7.56-10.85,7.56
		C108.887,57.325,107.277,56.625,106.204,55.225z M119.154,29.185c2.24-3.546,4.048-6.906,5.425-10.08
		c1.376-3.173,2.065-5.506,2.065-7c0-0.466-0.047-0.746-0.14-0.84c-0.607,0-1.82,1.424-3.64,4.27
		c-1.82,2.847-3.745,6.37-5.775,10.57c-2.03,4.2-3.675,8.284-4.935,12.25C114.58,35.789,116.914,32.732,119.154,29.185z
		 M135.884,30.06c1.96-3.103,3.5-6.031,4.62-8.785c1.12-2.753,1.68-4.876,1.68-6.37c0-0.42-0.024-0.7-0.07-0.84
		c-0.607,0-1.692,1.202-3.255,3.605c-1.564,2.404-3.232,5.484-5.005,9.24c-1.774,3.757-3.267,7.595-4.48,11.515
		C131.754,35.952,133.924,33.164,135.884,30.06z"/>
	<path class="titre5" fill="#FFAC3A" d="M140.013,55.925c-1.633-1.586-2.45-3.616-2.45-6.09c0-2.706,0.91-5.635,2.73-8.785
		c1.82-3.15,4.153-5.786,7-7.91c2.846-2.123,5.646-3.185,8.4-3.185c1.446,0,2.66,0.362,3.64,1.085c0.98,0.724,1.47,1.925,1.47,3.605
		c0,2.24-0.864,4.352-2.59,6.335c-1.727,1.984-3.955,3.605-6.685,4.865c-2.73,1.26-5.519,2.054-8.365,2.38
		c-0.094,0.467-0.14,1.004-0.14,1.61c0,1.214,0.338,2.427,1.015,3.64c0.676,1.214,2.135,1.82,4.375,1.82
		c2.846,0,5.751-1.155,8.715-3.465c2.963-2.31,5.355-5.191,7.175-8.645l1.4,1.12c-1.867,4.2-4.539,7.584-8.015,10.15
		c-3.477,2.566-7.082,3.85-10.815,3.85C143.934,58.305,141.646,57.511,140.013,55.925z M149.568,43.605
		c2.076-1.166,3.838-2.601,5.285-4.305c1.446-1.703,2.17-3.371,2.17-5.005c0-0.513-0.094-0.863-0.28-1.05
		c-0.188-0.186-0.49-0.28-0.91-0.28c-1.354,0-2.835,0.642-4.445,1.925c-1.61,1.284-3.092,2.905-4.445,4.865
		c-1.354,1.96-2.357,3.92-3.01,5.88C145.613,45.449,147.491,44.772,149.568,43.605z"/>
	<path class="titre6" fill="#FFAC3A" d="M164.093,55.155c-1.027-1.446-1.54-3.15-1.54-5.11c0-1.68,0.373-3.78,1.12-6.3
		c0.746-2.52,1.621-4.713,2.625-6.58c1.003-1.866,1.878-2.8,2.625-2.8c0.326,0,0.828,0.175,1.505,0.525
		c0.676,0.35,1.271,0.782,1.785,1.295c-0.98,1.447-1.995,3.524-3.045,6.23c-1.05,2.707-1.575,5.04-1.575,7
		c0,0.887,0.128,1.809,0.385,2.765c0.256,0.957,0.828,1.435,1.715,1.435c1.726,0,3.791-1.925,6.195-5.775
		c2.403-3.85,4.468-7.758,6.195-11.725c2.8,0.467,4.2,1.26,4.2,2.38c0,0.094-0.28,0.77-0.84,2.03c-0.98,2.287-1.82,4.41-2.52,6.37
		c-0.7,1.96-1.05,3.664-1.05,5.11c0,1.634,0.63,2.45,1.89,2.45c0.98,0,2.158-0.455,3.535-1.365c1.376-0.91,2.788-2.216,4.235-3.92
		c1.446-1.703,2.706-3.675,3.78-5.915l1.05,0.84c-1.027,2.52-2.357,4.784-3.99,6.79c-1.634,2.007-3.395,3.582-5.285,4.725
		c-1.89,1.143-3.699,1.715-5.425,1.715c-2.054,0-3.372-0.712-3.955-2.135c-0.584-1.423-0.875-3.325-0.875-5.705
		c-1.587,2.427-3.08,4.34-4.48,5.74s-2.87,2.1-4.41,2.1S165.119,56.601,164.093,55.155z"/>
	<path class="titre7" fill="#FFAC3A" d="M202.242,55.68c-1.074-0.91-1.61-2.135-1.61-3.675c0-0.886,0.175-1.855,0.525-2.905
		s0.875-2.321,1.575-3.815c0.605-1.306,1.073-2.415,1.4-3.325c0.326-0.91,0.49-1.715,0.49-2.415c0-1.773-1.167-3.266-3.5-4.48
		c-0.934,2.334-2.019,4.69-3.255,7.07c-1.237,2.38-2.345,4.387-3.325,6.02l-1.05-2.03c2.146-3.826,4.036-8.05,5.67-12.67
		c-0.467-0.466-0.7-1.096-0.7-1.89c0-1.213,0.373-2.356,1.12-3.43c0.746-1.073,1.47-1.61,2.17-1.61c0.466,0,0.851,0.28,1.155,0.84
		c0.303,0.56,0.455,1.027,0.455,1.4c0,0.187-0.105,0.595-0.315,1.225c-0.21,0.63-0.362,1.085-0.455,1.365
		c0.046,0.327,0.233,0.642,0.56,0.945c0.326,0.304,0.933,0.735,1.82,1.295c1.633,1.074,2.905,2.112,3.815,3.115
		c0.91,1.004,1.365,2.345,1.365,4.025c0,1.027-0.175,2.054-0.525,3.08c-0.35,1.027-0.875,2.264-1.575,3.71
		c-1.027,2.054-1.54,3.524-1.54,4.41c0,1.074,0.583,1.61,1.75,1.61c1.4,0,2.928-0.56,4.585-1.68c1.656-1.12,3.173-2.485,4.55-4.095
		c1.376-1.61,2.392-3.115,3.046-4.515l1.68,1.26c-0.935,2.1-2.24,4.107-3.92,6.02c-1.681,1.914-3.56,3.477-5.635,4.69
		c-2.077,1.213-4.119,1.82-6.125,1.82C204.715,57.045,203.315,56.59,202.242,55.68z"/>
	<path class="titre8" fill="#FFAC3A" d="M219.846,55.96c-1.563-1.89-2.345-4.141-2.345-6.755c0-1.82,0.327-3.091,0.98-3.815
		c0.652-0.723,1.387-1.271,2.205-1.645c0.815-0.373,1.295-0.63,1.435-0.77c2.985-3.08,5.25-6.276,6.79-9.59v-0.7
		c0-1.726,0.291-3.01,0.875-3.85c0.582-0.84,1.341-1.26,2.275-1.26c1.025,0,1.586,0.467,1.68,1.4c0,0.234-0.06,0.584-0.176,1.05
		c-0.117,0.467-0.174,0.957-0.174,1.47c0,0.887,0.139,1.82,0.42,2.8c0.279,0.98,0.723,2.31,1.33,3.99
		c0.745,2.054,1.317,3.827,1.715,5.32c0.396,1.494,0.594,3.01,0.594,4.55c0,0.794-0.094,1.75-0.279,2.87
		c3.173-0.793,5.927-3.43,8.261-7.91l0.84,0.63c-0.936,2.66-2.23,4.807-3.885,6.44c-1.657,1.634-3.606,2.614-5.846,2.94
		c-0.747,1.867-1.96,3.278-3.64,4.235c-1.681,0.956-3.617,1.435-5.811,1.435C223.824,58.795,221.41,57.85,219.846,55.96z
		 M229.226,55.015c0.816-0.466,1.436-1.143,1.855-2.03c-1.82-0.373-3.5-1.085-5.04-2.135s-2.777-2.181-3.71-3.395
		c-0.654,0.14-0.98,0.77-0.98,1.89c0,1.68,0.467,3.162,1.4,4.445c0.934,1.284,2.216,1.925,3.85,1.925
		C227.535,55.715,228.41,55.481,229.226,55.015z M231.851,48.715c-0.047-1.493-0.209-2.963-0.49-4.41
		c-0.279-1.446-0.699-3.313-1.26-5.6l-0.63-2.52c-2.286,3.967-4.317,6.884-6.09,8.75c0.793,1.354,1.913,2.579,3.36,3.675
		c1.445,1.097,3.08,1.855,4.9,2.275C231.781,50.465,231.851,49.742,231.851,48.715z"/>
	<path class="titre9" fill="#FFAC3A" d="M263.282,55.75c-0.7-1.47-1.051-3.535-1.051-6.195c0-1.306,0.094-4.083,0.28-8.33
		c0.046-1.493,0.21-2.473,0.49-2.94c0.28-0.466,1.003-0.7,2.17-0.7c1.073,0,1.726,0.199,1.96,0.595
		c0.233,0.397,0.35,1.319,0.35,2.765c0,0.887-0.047,2.357-0.14,4.41c-0.14,1.54-0.21,3.104-0.21,4.69
		c0,1.587,0.081,2.684,0.245,3.29c0.163,0.607,0.501,0.91,1.015,0.91c1.493,0,3.301-1.481,5.425-4.445
		c2.123-2.963,3.979-6.241,5.565-9.835c0.093-2.986,0.443-5.063,1.05-6.23c0.606-1.166,1.471-1.75,2.59-1.75
		c1.026,0,1.785,0.327,2.275,0.98c0.49,0.654,0.735,1.354,0.735,2.1c0,0.467-0.105,0.91-0.315,1.33s-0.339,0.7-0.385,0.84
		c-0.467,0.794-0.84,1.669-1.12,2.625c-0.28,0.957-0.42,2.252-0.42,3.885c0,3.267,1.003,4.9,3.01,4.9c0.933,0,1.843-0.396,2.73-1.19
		c0.886-0.793,1.796-2.123,2.729-3.99l0.771,0.63c-1.027,2.427-2.183,4.189-3.466,5.285c-1.283,1.097-2.602,1.645-3.954,1.645
		c-1.447,0-2.673-0.583-3.676-1.75c-1.004-1.166-1.762-2.753-2.274-4.76c-2.055,3.827-4.189,7.024-6.405,9.59
		c-2.217,2.566-4.352,3.85-6.405,3.85C265.171,57.955,263.981,57.22,263.282,55.75z"/>
	<path class="titre10" fill="#FFAC3A" d="M290.826,55.575c-0.863-1.26-1.295-2.823-1.295-4.69c0-1.96,0.409-3.99,1.225-6.09
		c0.816-2.1,1.878-3.85,3.186-5.25c1.306-1.4,2.636-2.1,3.989-2.1c0.561,0,1.283,0.187,2.171,0.56
		c0.279-2.146,1.037-3.92,2.274-5.32c1.236-1.4,2.976-2.1,5.215-2.1c1.866,0,3.243,0.525,4.13,1.575
		c0.887,1.05,1.33,2.415,1.33,4.095c0,1.634-0.432,3.5-1.295,5.6c-0.864,2.1-1.972,4.2-3.325,6.3c0.561,0.28,1.214,0.42,1.96,0.42
		c1.307,0,2.706-0.431,4.2-1.295c1.493-0.863,2.636-2.181,3.431-3.955l1.26,0.91c-0.98,2.24-2.299,3.944-3.955,5.11
		c-1.657,1.167-3.372,1.75-5.146,1.75c-1.073,0-2.239-0.21-3.5-0.63c-1.727,2.054-3.616,3.734-5.67,5.04
		c-2.054,1.306-4.06,1.96-6.02,1.96C293.077,57.465,291.689,56.835,290.826,55.575z M300.59,52.495
		c1.213-0.933,2.426-2.123,3.641-3.57c-2.66-2.333-4.061-5.763-4.2-10.29c-0.561,0.28-1.237,1.144-2.03,2.59
		c-0.794,1.447-1.47,3.057-2.03,4.83c-0.56,1.774-0.84,3.314-0.84,4.62c0,2.147,0.793,3.22,2.38,3.22
		C298.351,53.895,299.376,53.429,300.59,52.495z M308.956,41.295c0.771-1.866,1.155-3.546,1.155-5.04c0-2.053-0.654-3.08-1.96-3.08
		c-0.607,0-1.237,0.304-1.891,0.91c-0.653,0.607-1.189,1.412-1.609,2.415c-0.42,1.004-0.63,2.112-0.63,3.325
		c0,1.074,0.186,2.299,0.56,3.675c0.373,1.377,0.863,2.439,1.47,3.185C307.216,44.959,308.186,43.162,308.956,41.295z"/>
	<path class="titre11" fill="#FFAC3A" d="M317.67,55.925c-1.633-1.586-2.45-3.616-2.45-6.09c0-2.706,0.91-5.635,2.73-8.785
		c1.82-3.15,4.153-5.786,7-7.91c2.846-2.123,5.646-3.185,8.4-3.185c1.445,0,2.659,0.362,3.64,1.085
		c0.979,0.724,1.47,1.925,1.47,3.605c0,2.24-0.864,4.352-2.59,6.335c-1.727,1.984-3.955,3.605-6.685,4.865
		c-2.73,1.26-5.52,2.054-8.365,2.38c-0.094,0.467-0.141,1.004-0.141,1.61c0,1.214,0.339,2.427,1.016,3.64
		c0.676,1.214,2.135,1.82,4.375,1.82c2.846,0,5.751-1.155,8.715-3.465c2.963-2.31,5.355-5.191,7.175-8.645l1.4,1.12
		c-1.867,4.2-4.539,7.584-8.016,10.15s-7.082,3.85-10.814,3.85C321.59,58.305,319.303,57.511,317.67,55.925z M327.226,43.605
		c2.075-1.166,3.838-2.601,5.284-4.305c1.446-1.703,2.17-3.371,2.17-5.005c0-0.513-0.094-0.863-0.279-1.05
		c-0.188-0.186-0.49-0.28-0.91-0.28c-1.354,0-2.835,0.642-4.445,1.925c-1.609,1.284-3.092,2.905-4.444,4.865
		c-1.354,1.96-2.357,3.92-3.011,5.88C323.271,45.449,325.149,44.772,327.226,43.605z"/>
	<path class="titre12" fill="#FFAC3A" d="M341.75,55.155c-1.026-1.446-1.54-3.15-1.54-5.11c0-1.68,0.373-3.78,1.12-6.3
		c0.746-2.52,1.621-4.713,2.625-6.58c1.003-1.866,1.878-2.8,2.625-2.8c0.326,0,0.828,0.175,1.505,0.525
		c0.676,0.35,1.271,0.782,1.785,1.295c-0.979,1.447-1.995,3.524-3.045,6.23c-1.05,2.707-1.575,5.04-1.575,7
		c0,0.887,0.128,1.809,0.386,2.765c0.256,0.957,0.827,1.435,1.715,1.435c1.726,0,3.791-1.925,6.194-5.775
		c2.403-3.85,4.469-7.758,6.195-11.725c2.8,0.467,4.2,1.26,4.2,2.38c0,0.094-0.28,0.77-0.84,2.03c-0.98,2.287-1.82,4.41-2.521,6.37
		s-1.05,3.664-1.05,5.11c0,1.634,0.63,2.45,1.89,2.45c0.98,0,2.158-0.455,3.535-1.365c1.376-0.91,2.788-2.216,4.235-3.92
		c1.445-1.703,2.706-3.675,3.78-5.915l1.05,0.84c-1.027,2.52-2.357,4.784-3.99,6.79c-1.634,2.007-3.395,3.582-5.285,4.725
		c-1.89,1.143-3.699,1.715-5.425,1.715c-2.054,0-3.372-0.712-3.955-2.135c-0.584-1.423-0.875-3.325-0.875-5.705
		c-1.587,2.427-3.08,4.34-4.479,5.74c-1.4,1.4-2.87,2.1-4.41,2.1S342.776,56.601,341.75,55.155z"/>
	<path class="titre13" fill="#FFAC3A" d="M374.089,58.9c-0.234-0.304-0.351-0.619-0.351-0.945c0-0.887,0.991-2.614,2.976-5.18
		c1.982-2.566,4.468-5.436,7.454-8.61c-0.42-2.66-0.816-4.503-1.189-5.53c-0.374-1.026-1.027-1.54-1.96-1.54
		c-1.074,0-2.042,0.537-2.905,1.61c-0.864,1.074-1.972,2.8-3.325,5.18l-1.89,3.22l-1.19-1.96c0.326-0.513,0.887-1.633,1.681-3.36
		c0.793-1.82,1.527-3.278,2.205-4.375c0.676-1.096,1.563-2.03,2.66-2.8c1.096-0.77,2.438-1.155,4.024-1.155
		c1.773,0,3.15,0.502,4.13,1.505c0.98,1.004,1.75,2.485,2.311,4.445c2.239-2.24,4.188-4.036,5.845-5.39
		c1.656-1.353,2.811-2.03,3.465-2.03c0.373,0,0.793,0.164,1.26,0.49c0.466,0.327,0.816,0.77,1.051,1.33
		c-0.888,0-2.346,0.864-4.375,2.59c-2.03,1.727-4.26,3.92-6.686,6.58c0.187,1.26,0.28,1.937,0.28,2.03
		c0.232,2.52,0.605,4.597,1.12,6.23c0.513,1.634,1.376,2.45,2.59,2.45c1.446,0,3.161-1.166,5.145-3.5
		c1.983-2.333,3.512-4.643,4.585-6.93l1.12,1.05c-1.307,3.407-3.185,6.394-5.635,8.96s-4.912,3.85-7.385,3.85
		c-1.96,0-3.407-0.782-4.34-2.345c-0.935-1.563-1.61-3.651-2.03-6.265c-2.847,3.22-5.694,6.627-8.54,10.22
		c-0.374,0.42-0.771,0.63-1.19,0.63C374.625,59.355,374.322,59.204,374.089,58.9z"/>
</g>
</svg>